{"glyphs":{"0":{"ha":854,"x_min":0,"x_max":0,"o":"m 426 -18 b 789 479 681 -18 789 207 b 426 978 789 751 681 978 b 65 479 172 978 65 751 b 426 -18 65 207 172 -18 z m 426 71 b 171 479 238 71 171 261 b 426 889 171 699 238 889 b 683 479 617 889 683 699 b 426 71 683 261 617 71 z "},"1":{"ha":429,"x_min":0,"x_max":0,"o":"m 217 0 l 317 0 l 317 960 l 236 960 b 17 786 225 843 185 790 l 17 701 b 217 757 103 701 171 708 z "},"2":{"ha":763,"x_min":0,"x_max":0,"o":"m 693 0 l 693 89 l 164 89 l 164 92 b 419 351 182 219 303 285 b 703 696 560 431 703 514 b 406 978 703 875 569 978 b 71 636 179 978 71 822 l 175 636 b 404 889 175 772 238 889 b 597 694 551 889 597 789 b 326 407 597 549 501 507 b 43 0 153 310 43 178 z "},"3":{"ha":813,"x_min":0,"x_max":0,"o":"m 419 -18 b 751 265 618 -18 751 85 b 565 506 751 379 694 465 l 565 508 b 715 718 663 547 715 611 b 418 978 715 883 575 978 b 76 676 189 978 76 849 l 182 676 b 418 889 182 779 225 889 b 610 718 556 889 610 804 b 431 546 610 603 535 546 l 333 546 l 333 457 l 436 457 b 646 265 535 457 646 411 b 413 71 646 146 579 71 b 156 321 228 71 156 174 l 50 321 b 419 -18 50 108 186 -18 z "},"4":{"ha":779,"x_min":0,"x_max":0,"o":"m 604 0 l 604 233 l 740 233 l 740 322 l 604 322 l 604 960 l 504 960 l 35 322 l 35 233 l 504 233 l 504 0 z m 504 817 l 504 322 l 139 322 z "},"5":{"ha":774,"x_min":0,"x_max":0,"o":"m 386 -18 b 721 325 579 -18 721 119 b 417 639 721 503 600 639 b 183 547 315 639 236 607 l 183 550 l 249 871 l 671 871 l 671 960 l 167 960 l 65 449 l 174 449 b 394 550 217 507 293 550 b 615 325 524 550 615 483 b 382 71 615 156 518 71 b 156 271 228 71 165 164 l 51 271 b 386 -18 56 122 168 -18 z "},"6":{"ha":804,"x_min":0,"x_max":0,"o":"m 418 -18 b 744 308 622 -18 744 128 b 436 624 744 496 619 624 b 169 453 324 624 214 568 l 168 454 l 168 482 b 426 889 168 704 228 889 b 614 721 538 889 603 825 l 718 721 b 426 978 706 865 593 978 b 67 468 194 978 67 790 b 418 -18 67 167 171 -18 z m 418 71 b 189 293 269 71 189 169 b 428 535 189 446 294 535 b 639 303 557 535 639 447 b 418 71 639 164 561 71 z "},"7":{"ha":696,"x_min":0,"x_max":0,"o":"m 268 0 b 664 882 268 293 408 675 l 664 960 l 11 960 l 11 871 l 549 871 l 549 868 b 163 0 333 685 163 304 z "},"8":{"ha":819,"x_min":0,"x_max":0,"o":"m 410 -18 b 761 268 604 -18 761 79 b 576 513 761 401 674 472 l 576 515 b 714 724 650 551 714 615 b 410 978 714 885 586 978 b 106 724 233 978 106 885 b 243 515 106 615 169 551 l 243 513 b 58 268 144 472 58 401 b 410 -18 58 79 215 -18 z m 410 558 b 211 724 290 558 211 613 b 410 889 211 835 290 889 b 608 724 529 889 608 835 b 410 558 608 613 529 558 z m 410 71 b 164 272 264 71 164 143 b 410 469 164 397 264 469 b 656 272 556 469 656 397 b 410 71 656 143 556 71 z "},"9":{"ha":806,"x_min":0,"x_max":0,"o":"m 378 -18 b 738 492 610 -18 738 169 b 386 978 738 793 635 978 b 60 651 182 978 60 832 b 368 336 60 464 185 336 b 635 507 482 336 590 392 l 638 506 l 638 478 b 378 71 638 256 576 71 b 190 239 267 71 203 136 l 86 239 b 378 -18 99 94 211 -18 z m 376 426 b 165 657 249 426 165 513 b 386 889 165 796 243 889 b 615 667 535 889 615 790 b 376 426 615 514 510 426 z "},"\r":{"ha":304,"x_min":0,"x_max":0,"o":""}," ":{"ha":304,"x_min":0,"x_max":0,"o":""},"A":{"ha":882,"x_min":0,"x_max":0,"o":"m 117 0 l 217 275 l 663 275 l 763 0 l 871 0 l 497 993 l 383 993 l 13 0 z m 439 897 l 442 897 l 631 365 l 250 365 z "},"Á":{"ha":882,"x_min":0,"x_max":0,"o":"m 468 1108 l 588 1292 l 479 1292 l 393 1108 z m 117 0 l 217 275 l 663 275 l 763 0 l 871 0 l 497 993 l 383 993 l 13 0 z m 439 897 l 442 897 l 631 365 l 250 365 z "},"Ă":{"ha":882,"x_min":0,"x_max":0,"o":"m 440 1101 b 613 1278 540 1101 607 1165 l 542 1278 b 440 1169 536 1208 504 1169 b 338 1278 376 1169 344 1208 l 268 1278 b 440 1101 272 1163 342 1101 z m 117 0 l 217 275 l 663 275 l 763 0 l 871 0 l 497 993 l 383 993 l 13 0 z m 439 897 l 442 897 l 631 365 l 250 365 z "},"Â":{"ha":882,"x_min":0,"x_max":0,"o":"m 357 1111 l 439 1240 l 440 1240 l 522 1111 l 617 1111 l 492 1292 l 389 1292 l 263 1111 z m 117 0 l 217 275 l 663 275 l 763 0 l 871 0 l 497 993 l 383 993 l 13 0 z m 439 897 l 442 897 l 631 365 l 250 365 z "},"Ä":{"ha":882,"x_min":0,"x_max":0,"o":"m 394 1135 l 394 1251 l 278 1251 l 278 1135 z m 601 1135 l 601 1251 l 485 1251 l 485 1135 z m 117 0 l 217 275 l 663 275 l 763 0 l 871 0 l 497 993 l 383 993 l 13 0 z m 439 897 l 442 897 l 631 365 l 250 365 z "},"À":{"ha":882,"x_min":0,"x_max":0,"o":"m 472 1108 l 396 1292 l 286 1292 l 397 1108 z m 117 0 l 217 275 l 663 275 l 763 0 l 871 0 l 497 993 l 383 993 l 13 0 z m 439 897 l 442 897 l 631 365 l 250 365 z "},"Ā":{"ha":882,"x_min":0,"x_max":0,"o":"m 613 1142 l 613 1221 l 267 1221 l 267 1142 z m 117 0 l 217 275 l 663 275 l 763 0 l 871 0 l 497 993 l 383 993 l 13 0 z m 439 897 l 442 897 l 631 365 l 250 365 z "},"Ą":{"ha":882,"x_min":0,"x_max":0,"o":"m 815 -175 b 753 -124 778 -175 753 -156 b 853 0 753 -87 788 -46 l 871 0 l 497 993 l 383 993 l 13 0 l 117 0 l 217 275 l 663 275 l 763 0 l 782 0 b 672 -142 729 -25 672 -78 b 799 -244 672 -201 714 -244 b 885 -231 831 -244 861 -239 l 885 -161 b 815 -175 863 -171 842 -175 z m 439 897 l 442 897 l 631 365 l 250 365 z "},"Å":{"ha":882,"x_min":0,"x_max":0,"o":"m 439 1064 b 558 1182 508 1064 558 1113 b 439 1300 558 1253 508 1300 b 319 1182 369 1300 319 1253 b 439 1064 319 1113 369 1064 z m 439 1111 b 371 1182 397 1111 371 1140 b 439 1253 371 1222 397 1253 b 508 1182 481 1253 508 1222 b 439 1111 508 1140 481 1111 z m 117 0 l 217 275 l 663 275 l 763 0 l 871 0 l 497 993 l 383 993 l 13 0 z m 439 897 l 442 897 l 631 365 l 250 365 z "},"Ã":{"ha":882,"x_min":0,"x_max":0,"o":"m 319 1118 b 357 1174 321 1144 328 1174 b 529 1117 400 1174 460 1117 b 629 1240 582 1117 628 1151 l 558 1240 b 521 1186 557 1213 550 1186 b 349 1243 478 1186 419 1243 b 249 1118 296 1243 250 1206 z m 117 0 l 217 275 l 663 275 l 763 0 l 871 0 l 497 993 l 383 993 l 13 0 z m 439 897 l 442 897 l 631 365 l 250 365 z "},"Æ":{"ha":1328,"x_min":0,"x_max":0,"o":"m 699 474 l 1208 474 l 1208 563 l 699 563 l 699 904 l 1271 904 l 1271 993 l 383 993 l 13 0 l 117 0 l 217 275 l 597 275 l 597 0 l 1286 0 l 1286 89 l 699 89 z m 439 901 l 597 901 l 597 365 l 250 365 z "},"B":{"ha":908,"x_min":0,"x_max":0,"o":"m 528 0 b 856 285 725 0 856 97 b 658 531 856 428 769 510 l 658 533 b 815 743 747 564 815 625 b 501 993 815 899 697 993 l 106 993 l 106 0 z m 207 567 l 207 904 l 521 904 b 710 733 649 904 710 835 b 521 567 710 635 658 567 z m 207 89 l 207 478 l 557 478 b 750 285 675 478 750 401 b 532 89 750 169 689 89 z "},"C":{"ha":968,"x_min":0,"x_max":0,"o":"m 511 -18 b 925 353 747 -18 901 136 l 819 353 b 511 71 808 215 721 71 b 161 496 272 71 161 274 b 511 922 161 718 271 922 b 815 676 714 922 796 788 l 921 676 b 513 1011 896 863 744 1011 b 56 496 240 1011 56 796 b 511 -18 56 194 242 -18 z "},"Ć":{"ha":968,"x_min":0,"x_max":0,"o":"m 542 1108 l 661 1292 l 553 1292 l 467 1108 z m 511 -18 b 925 353 747 -18 901 136 l 819 353 b 511 71 808 215 721 71 b 161 496 272 71 161 274 b 511 922 161 718 271 922 b 815 676 714 922 796 788 l 921 676 b 513 1011 896 863 744 1011 b 56 496 240 1011 56 796 b 511 -18 56 194 242 -18 z "},"Č":{"ha":968,"x_min":0,"x_max":0,"o":"m 565 1110 l 690 1290 l 597 1290 l 515 1161 l 513 1161 l 431 1290 l 336 1290 l 463 1110 z m 511 -18 b 925 353 747 -18 901 136 l 819 353 b 511 71 808 215 721 71 b 161 496 272 71 161 274 b 511 922 161 718 271 922 b 815 676 714 922 796 788 l 921 676 b 513 1011 896 863 744 1011 b 56 496 240 1011 56 796 b 511 -18 56 194 242 -18 z "},"Ç":{"ha":968,"x_min":0,"x_max":0,"o":"m 535 -18 b 925 353 758 -7 903 143 l 819 353 b 511 71 808 215 721 71 b 161 496 272 71 161 274 b 511 922 161 718 271 922 b 815 676 714 922 796 788 l 921 676 b 513 1011 896 863 744 1011 b 56 496 240 1011 56 796 b 475 -17 56 208 225 1 l 404 -104 l 421 -129 b 479 -118 435 -122 460 -118 b 538 -164 515 -118 538 -131 b 461 -219 538 -199 511 -219 b 361 -197 424 -219 393 -211 l 335 -228 b 478 -269 372 -251 424 -269 b 618 -165 551 -269 618 -239 b 488 -78 618 -93 550 -67 l 488 -75 z "},"Ĉ":{"ha":968,"x_min":0,"x_max":0,"o":"m 431 1111 l 513 1240 l 514 1240 l 596 1111 l 690 1111 l 565 1292 l 463 1292 l 336 1111 z m 511 -18 b 925 353 747 -18 901 136 l 819 353 b 511 71 808 215 721 71 b 161 496 272 71 161 274 b 511 922 161 718 271 922 b 815 676 714 922 796 788 l 921 676 b 513 1011 896 863 744 1011 b 56 496 240 1011 56 796 b 511 -18 56 194 242 -18 z "},"Ċ":{"ha":968,"x_min":0,"x_max":0,"o":"m 571 1135 l 571 1251 l 454 1251 l 454 1135 z m 511 -18 b 925 353 747 -18 901 136 l 819 353 b 511 71 808 215 721 71 b 161 496 272 71 161 274 b 511 922 161 718 271 922 b 815 676 714 922 796 788 l 921 676 b 513 1011 896 863 744 1011 b 56 496 240 1011 56 796 b 511 -18 56 194 242 -18 z "},"D":{"ha":954,"x_min":0,"x_max":0,"o":"m 461 0 b 897 494 739 0 897 188 b 465 993 897 801 743 993 l 106 993 l 106 0 z m 207 89 l 207 904 l 464 904 b 792 494 714 904 792 715 b 461 89 792 275 710 89 z "},"Ð":{"ha":985,"x_min":0,"x_max":0,"o":"m 136 993 l 136 554 l 19 554 l 19 474 l 136 474 l 136 0 l 492 0 b 928 494 769 0 928 188 b 496 993 928 801 774 993 z m 238 89 l 238 474 l 547 474 l 547 554 l 238 554 l 238 904 l 494 904 b 822 494 744 904 822 715 b 492 89 822 275 740 89 z "},"Ď":{"ha":954,"x_min":0,"x_max":0,"o":"m 433 1110 l 558 1290 l 465 1290 l 383 1161 l 381 1161 l 299 1290 l 204 1290 l 331 1110 z m 461 0 b 897 494 739 0 897 188 b 465 993 897 801 743 993 l 106 993 l 106 0 z m 207 89 l 207 904 l 464 904 b 792 494 714 904 792 715 b 461 89 792 275 710 89 z "},"Đ":{"ha":985,"x_min":0,"x_max":0,"o":"m 136 993 l 136 554 l 19 554 l 19 474 l 136 474 l 136 0 l 492 0 b 928 494 769 0 928 188 b 496 993 928 801 774 993 z m 238 89 l 238 474 l 547 474 l 547 554 l 238 554 l 238 904 l 494 904 b 822 494 744 904 822 715 b 492 89 822 275 740 89 z "},"E":{"ha":838,"x_min":0,"x_max":0,"o":"m 794 0 l 794 89 l 207 89 l 207 474 l 718 474 l 718 563 l 207 563 l 207 904 l 779 904 l 779 993 l 106 993 l 106 0 z "},"É":{"ha":838,"x_min":0,"x_max":0,"o":"m 476 1108 l 596 1292 l 488 1292 l 401 1108 z m 794 0 l 794 89 l 207 89 l 207 474 l 718 474 l 718 563 l 207 563 l 207 904 l 779 904 l 779 993 l 106 993 l 106 0 z "},"Ě":{"ha":838,"x_min":0,"x_max":0,"o":"m 500 1110 l 625 1290 l 532 1290 l 450 1161 l 447 1161 l 365 1290 l 271 1290 l 397 1110 z m 794 0 l 794 89 l 207 89 l 207 474 l 718 474 l 718 563 l 207 563 l 207 904 l 779 904 l 779 993 l 106 993 l 106 0 z "},"Ê":{"ha":838,"x_min":0,"x_max":0,"o":"m 365 1111 l 447 1240 l 449 1240 l 531 1111 l 625 1111 l 500 1292 l 397 1292 l 271 1111 z m 794 0 l 794 89 l 207 89 l 207 474 l 718 474 l 718 563 l 207 563 l 207 904 l 779 904 l 779 993 l 106 993 l 106 0 z "},"Ë":{"ha":838,"x_min":0,"x_max":0,"o":"m 403 1135 l 403 1251 l 286 1251 l 286 1135 z m 610 1135 l 610 1251 l 493 1251 l 493 1135 z m 794 0 l 794 89 l 207 89 l 207 474 l 718 474 l 718 563 l 207 563 l 207 904 l 779 904 l 779 993 l 106 993 l 106 0 z "},"Ė":{"ha":838,"x_min":0,"x_max":0,"o":"m 506 1135 l 506 1251 l 389 1251 l 389 1135 z m 794 0 l 794 89 l 207 89 l 207 474 l 718 474 l 718 563 l 207 563 l 207 904 l 779 904 l 779 993 l 106 993 l 106 0 z "},"È":{"ha":838,"x_min":0,"x_max":0,"o":"m 481 1108 l 404 1292 l 294 1292 l 406 1108 z m 794 0 l 794 89 l 207 89 l 207 474 l 718 474 l 718 563 l 207 563 l 207 904 l 779 904 l 779 993 l 106 993 l 106 0 z "},"Ē":{"ha":838,"x_min":0,"x_max":0,"o":"m 621 1142 l 621 1221 l 275 1221 l 275 1142 z m 794 0 l 794 89 l 207 89 l 207 474 l 718 474 l 718 563 l 207 563 l 207 904 l 779 904 l 779 993 l 106 993 l 106 0 z "},"Ę":{"ha":838,"x_min":0,"x_max":0,"o":"m 740 -175 b 678 -124 703 -175 678 -156 b 778 0 678 -87 713 -46 l 794 0 l 794 89 l 207 89 l 207 474 l 718 474 l 718 563 l 207 563 l 207 904 l 779 904 l 779 993 l 106 993 l 106 0 l 707 0 b 597 -142 654 -25 597 -78 b 724 -244 597 -201 639 -244 b 810 -231 756 -244 786 -239 l 810 -161 b 740 -175 788 -171 767 -175 z "},"F":{"ha":788,"x_min":0,"x_max":0,"o":"m 207 0 l 207 464 l 671 464 l 671 553 l 207 553 l 207 904 l 769 904 l 769 993 l 106 993 l 106 0 z "},"G":{"ha":1013,"x_min":0,"x_max":0,"o":"m 506 -18 b 840 176 675 -18 778 60 l 843 176 l 874 0 l 943 0 l 943 510 l 513 510 l 513 419 l 842 419 b 506 71 842 211 699 71 b 163 496 249 71 163 288 b 518 922 163 703 269 922 b 822 699 678 922 793 843 l 926 699 b 518 1011 892 886 756 1011 b 57 496 236 1011 57 790 b 506 -18 57 200 214 -18 z "},"Ğ":{"ha":1013,"x_min":0,"x_max":0,"o":"m 513 1101 b 685 1278 613 1101 679 1165 l 614 1278 b 513 1169 608 1208 576 1169 b 410 1278 449 1169 417 1208 l 340 1278 b 513 1101 344 1163 414 1101 z m 506 -18 b 840 176 675 -18 778 60 l 843 176 l 874 0 l 943 0 l 943 510 l 513 510 l 513 419 l 842 419 b 506 71 842 211 699 71 b 163 496 249 71 163 288 b 518 922 163 703 269 922 b 822 699 678 922 793 843 l 926 699 b 518 1011 892 886 756 1011 b 57 496 236 1011 57 790 b 506 -18 57 200 214 -18 z "},"Ĝ":{"ha":1013,"x_min":0,"x_max":0,"o":"m 429 1111 l 511 1240 l 513 1240 l 594 1111 l 689 1111 l 564 1292 l 461 1292 l 335 1111 z m 506 -18 b 840 176 675 -18 778 60 l 843 176 l 874 0 l 943 0 l 943 510 l 513 510 l 513 419 l 842 419 b 506 71 842 211 699 71 b 163 496 249 71 163 288 b 518 922 163 703 269 922 b 822 699 678 922 793 843 l 926 699 b 518 1011 892 886 756 1011 b 57 496 236 1011 57 790 b 506 -18 57 200 214 -18 z "},"Ģ":{"ha":1013,"x_min":0,"x_max":0,"o":"m 513 419 l 842 419 b 506 71 842 211 699 71 b 163 496 249 71 163 288 b 518 922 163 703 269 922 b 822 699 678 922 793 843 l 926 699 b 518 1011 892 886 756 1011 b 57 496 236 1011 57 790 b 506 -18 57 200 214 -18 b 840 176 675 -18 778 60 l 843 176 l 874 0 l 943 0 l 943 510 l 513 510 z m 526 -167 b 469 -260 526 -224 514 -246 l 469 -310 b 586 -167 564 -285 586 -233 l 586 -67 l 469 -67 l 469 -167 z "},"Ġ":{"ha":1013,"x_min":0,"x_max":0,"o":"m 571 1135 l 571 1251 l 454 1251 l 454 1135 z m 506 -18 b 840 176 675 -18 778 60 l 843 176 l 874 0 l 943 0 l 943 510 l 513 510 l 513 419 l 842 419 b 506 71 842 211 699 71 b 163 496 249 71 163 288 b 518 922 163 703 269 922 b 822 699 678 922 793 843 l 926 699 b 518 1011 892 886 756 1011 b 57 496 236 1011 57 790 b 506 -18 57 200 214 -18 z "},"H":{"ha":976,"x_min":0,"x_max":0,"o":"m 207 0 l 207 475 l 769 475 l 769 0 l 869 0 l 869 993 l 769 993 l 769 564 l 207 564 l 207 993 l 106 993 l 106 0 z "},"Ħ":{"ha":1007,"x_min":0,"x_max":0,"o":"m 893 832 l 893 993 l 792 993 l 792 832 l 231 832 l 231 993 l 129 993 l 129 832 l 22 832 l 22 751 l 129 751 l 129 0 l 231 0 l 231 475 l 792 475 l 792 0 l 893 0 l 893 751 l 979 751 l 979 832 z m 231 564 l 231 751 l 792 751 l 792 564 z "},"Ĥ":{"ha":976,"x_min":0,"x_max":0,"o":"m 406 1111 l 488 1240 l 489 1240 l 571 1111 l 665 1111 l 540 1292 l 438 1292 l 311 1111 z m 207 0 l 207 475 l 769 475 l 769 0 l 869 0 l 869 993 l 769 993 l 769 564 l 207 564 l 207 993 l 106 993 l 106 0 z "},"I":{"ha":313,"x_min":0,"x_max":0,"o":"m 207 0 l 207 993 l 106 993 l 106 0 z "},"Í":{"ha":313,"x_min":0,"x_max":0,"o":"m 185 1108 l 304 1292 l 196 1292 l 110 1108 z m 207 0 l 207 993 l 106 993 l 106 0 z "},"Î":{"ha":313,"x_min":0,"x_max":0,"o":"m 74 1111 l 156 1240 l 157 1240 l 239 1111 l 333 1111 l 208 1292 l 106 1292 l -21 1111 z m 207 0 l 207 993 l 106 993 l 106 0 z "},"Ï":{"ha":313,"x_min":0,"x_max":0,"o":"m 111 1135 l 111 1251 l -6 1251 l -6 1135 z m 318 1135 l 318 1251 l 201 1251 l 201 1135 z m 207 0 l 207 993 l 106 993 l 106 0 z "},"İ":{"ha":313,"x_min":0,"x_max":0,"o":"m 214 1135 l 214 1251 l 97 1251 l 97 1135 z m 207 0 l 207 993 l 106 993 l 106 0 z "},"Ì":{"ha":313,"x_min":0,"x_max":0,"o":"m 189 1108 l 113 1292 l 3 1292 l 114 1108 z m 207 0 l 207 993 l 106 993 l 106 0 z "},"Ī":{"ha":313,"x_min":0,"x_max":0,"o":"m 329 1142 l 329 1221 l -17 1221 l -17 1142 z m 207 0 l 207 993 l 106 993 l 106 0 z "},"Į":{"ha":313,"x_min":0,"x_max":0,"o":"m 160 -175 b 97 -124 122 -175 97 -156 b 197 0 97 -87 132 -46 l 207 0 l 207 993 l 106 993 l 106 0 l 126 0 b 17 -142 74 -25 17 -78 b 143 -244 17 -201 58 -244 b 229 -231 175 -244 206 -239 l 229 -161 b 160 -175 207 -171 186 -175 z "},"Ĩ":{"ha":313,"x_min":0,"x_max":0,"o":"m 36 1118 b 74 1174 38 1144 44 1174 b 246 1117 117 1174 176 1117 b 346 1240 299 1117 344 1151 l 275 1240 b 238 1186 274 1213 267 1186 b 65 1243 194 1186 136 1243 b -35 1118 13 1243 -33 1206 z m 207 0 l 207 993 l 106 993 l 106 0 z "},"J":{"ha":689,"x_min":0,"x_max":0,"o":"m 307 -18 b 589 288 515 -18 589 129 l 589 993 l 488 993 l 488 288 b 307 71 488 161 447 71 b 129 288 168 71 129 161 l 129 319 l 28 319 l 28 288 b 307 -18 28 129 99 -18 z "},"Ĵ":{"ha":689,"x_min":0,"x_max":0,"o":"m 456 1111 l 538 1240 l 539 1240 l 621 1111 l 715 1111 l 590 1292 l 488 1292 l 361 1111 z m 307 -18 b 589 288 515 -18 589 129 l 589 993 l 488 993 l 488 288 b 307 71 488 161 447 71 b 129 288 168 71 129 161 l 129 319 l 28 319 l 28 288 b 307 -18 28 129 99 -18 z "},"K":{"ha":874,"x_min":0,"x_max":0,"o":"m 890 0 l 463 581 l 858 993 l 743 993 l 207 432 l 207 993 l 106 993 l 106 0 l 207 0 l 207 314 l 397 513 l 772 0 z "},"Ķ":{"ha":874,"x_min":0,"x_max":0,"o":"m 858 993 l 743 993 l 207 432 l 207 993 l 106 993 l 106 0 l 207 0 l 207 314 l 397 513 l 772 0 l 890 0 l 463 581 z m 468 -167 b 411 -260 468 -224 456 -246 l 411 -310 b 528 -167 506 -285 528 -233 l 528 -67 l 411 -67 l 411 -167 z "},"L":{"ha":763,"x_min":0,"x_max":0,"o":"m 743 0 l 743 89 l 207 89 l 207 993 l 106 993 l 106 0 z "},"Ĺ":{"ha":763,"x_min":0,"x_max":0,"o":"m 186 1108 l 306 1292 l 197 1292 l 111 1108 z m 743 0 l 743 89 l 207 89 l 207 993 l 106 993 l 106 0 z "},"Ľ":{"ha":763,"x_min":0,"x_max":0,"o":"m 743 0 l 743 89 l 207 89 l 207 993 l 106 993 l 106 0 z m 456 732 l 525 993 l 418 993 l 385 732 z "},"Ļ":{"ha":763,"x_min":0,"x_max":0,"o":"m 207 993 l 106 993 l 106 0 l 743 0 l 743 89 l 207 89 z m 424 -167 b 367 -260 424 -224 411 -246 l 367 -310 b 483 -167 461 -285 483 -233 l 483 -67 l 367 -67 l 367 -167 z "},"Ł":{"ha":817,"x_min":0,"x_max":0,"o":"m 261 431 l 521 606 l 521 694 l 261 519 l 261 993 l 160 993 l 160 451 l 35 368 l 35 279 l 160 363 l 160 0 l 796 0 l 796 89 l 261 89 z "},"M":{"ha":1165,"x_min":0,"x_max":0,"o":"m 207 0 l 207 850 l 210 850 l 536 0 l 628 0 l 956 850 l 958 850 l 958 0 l 1060 0 l 1060 993 l 919 993 l 583 136 l 581 136 l 246 993 l 106 993 l 106 0 z "},"N":{"ha":976,"x_min":0,"x_max":0,"o":"m 207 0 l 207 850 l 210 850 l 747 0 l 871 0 l 871 993 l 769 993 l 769 143 l 767 143 l 229 993 l 106 993 l 106 0 z "},"Ń":{"ha":976,"x_min":0,"x_max":0,"o":"m 517 1108 l 636 1292 l 528 1292 l 442 1108 z m 207 0 l 207 850 l 210 850 l 747 0 l 871 0 l 871 993 l 769 993 l 769 143 l 767 143 l 229 993 l 106 993 l 106 0 z "},"Ň":{"ha":976,"x_min":0,"x_max":0,"o":"m 540 1110 l 665 1290 l 572 1290 l 490 1161 l 488 1161 l 406 1290 l 311 1290 l 438 1110 z m 207 0 l 207 850 l 210 850 l 747 0 l 871 0 l 871 993 l 769 993 l 769 143 l 767 143 l 229 993 l 106 993 l 106 0 z "},"Ņ":{"ha":976,"x_min":0,"x_max":0,"o":"m 769 143 l 767 143 l 229 993 l 106 993 l 106 0 l 207 0 l 207 850 l 210 850 l 747 0 l 871 0 l 871 993 l 769 993 z m 483 -167 b 426 -260 483 -224 471 -246 l 426 -310 b 543 -167 521 -285 543 -233 l 543 -67 l 426 -67 l 426 -167 z "},"Ñ":{"ha":976,"x_min":0,"x_max":0,"o":"m 368 1118 b 406 1174 369 1144 376 1174 b 578 1117 449 1174 508 1117 b 678 1240 631 1117 676 1151 l 607 1240 b 569 1186 606 1213 599 1186 b 397 1243 526 1186 468 1243 b 297 1118 344 1243 299 1206 z m 207 0 l 207 850 l 210 850 l 747 0 l 871 0 l 871 993 l 769 993 l 769 143 l 767 143 l 229 993 l 106 993 l 106 0 z "},"Ŋ":{"ha":976,"x_min":0,"x_max":0,"o":"m 626 -247 b 871 8 763 -247 871 -178 l 871 993 l 769 993 l 769 142 l 767 142 l 229 993 l 106 993 l 106 0 l 207 0 l 207 849 l 210 849 l 758 -18 b 543 -158 757 -139 676 -178 l 543 -237 b 626 -247 568 -244 594 -247 z "},"O":{"ha":1065,"x_min":0,"x_max":0,"o":"m 533 -18 b 1010 497 819 -18 1010 199 b 533 1011 1010 796 819 1011 b 56 497 246 1011 56 796 b 533 -18 56 199 246 -18 z m 533 71 b 161 497 288 71 161 263 b 533 922 161 732 288 922 b 904 497 778 922 904 732 b 533 71 904 263 778 71 z "},"Ó":{"ha":1065,"x_min":0,"x_max":0,"o":"m 561 1108 l 681 1292 l 572 1292 l 486 1108 z m 533 -18 b 1010 497 819 -18 1010 199 b 533 1011 1010 796 819 1011 b 56 497 246 1011 56 796 b 533 -18 56 199 246 -18 z m 533 71 b 161 497 288 71 161 263 b 533 922 161 732 288 922 b 904 497 778 922 904 732 b 533 71 904 263 778 71 z "},"Ô":{"ha":1065,"x_min":0,"x_max":0,"o":"m 450 1111 l 532 1240 l 533 1240 l 615 1111 l 710 1111 l 585 1292 l 482 1292 l 356 1111 z m 533 -18 b 1010 497 819 -18 1010 199 b 533 1011 1010 796 819 1011 b 56 497 246 1011 56 796 b 533 -18 56 199 246 -18 z m 533 71 b 161 497 288 71 161 263 b 533 922 161 732 288 922 b 904 497 778 922 904 732 b 533 71 904 263 778 71 z "},"Ö":{"ha":1065,"x_min":0,"x_max":0,"o":"m 488 1135 l 488 1251 l 371 1251 l 371 1135 z m 694 1135 l 694 1251 l 578 1251 l 578 1135 z m 533 -18 b 1010 497 819 -18 1010 199 b 533 1011 1010 796 819 1011 b 56 497 246 1011 56 796 b 533 -18 56 199 246 -18 z m 533 71 b 161 497 288 71 161 263 b 533 922 161 732 288 922 b 904 497 778 922 904 732 b 533 71 904 263 778 71 z "},"Ò":{"ha":1065,"x_min":0,"x_max":0,"o":"m 565 1108 l 489 1292 l 379 1292 l 490 1108 z m 533 -18 b 1010 497 819 -18 1010 199 b 533 1011 1010 796 819 1011 b 56 497 246 1011 56 796 b 533 -18 56 199 246 -18 z m 533 71 b 161 497 288 71 161 263 b 533 922 161 732 288 922 b 904 497 778 922 904 732 b 533 71 904 263 778 71 z "},"Ő":{"ha":1065,"x_min":0,"x_max":0,"o":"m 469 1107 l 589 1290 l 481 1290 l 394 1107 z m 660 1107 l 781 1290 l 671 1290 l 585 1107 z m 533 -18 b 1010 497 819 -18 1010 199 b 533 1011 1010 796 819 1011 b 56 497 246 1011 56 796 b 533 -18 56 199 246 -18 z m 533 71 b 161 497 288 71 161 263 b 533 922 161 732 288 922 b 904 497 778 922 904 732 b 533 71 904 263 778 71 z "},"Ō":{"ha":1065,"x_min":0,"x_max":0,"o":"m 706 1142 l 706 1221 l 360 1221 l 360 1142 z m 533 -18 b 1010 497 819 -18 1010 199 b 533 1011 1010 796 819 1011 b 56 497 246 1011 56 796 b 533 -18 56 199 246 -18 z m 533 71 b 161 497 288 71 161 263 b 533 922 161 732 288 922 b 904 497 778 922 904 732 b 533 71 904 263 778 71 z "},"Ø":{"ha":1075,"x_min":0,"x_max":0,"o":"m 976 988 l 871 881 b 538 1011 788 963 674 1011 b 60 497 251 1011 60 796 b 163 163 60 365 97 250 l 53 50 l 94 7 l 203 117 b 538 -18 285 32 400 -18 b 1015 497 824 -18 1015 199 b 911 835 1015 629 978 746 l 1021 946 z m 165 497 b 538 922 165 732 292 922 b 804 813 653 922 742 881 l 233 233 b 165 497 188 306 165 397 z m 910 497 b 538 71 910 263 783 71 b 269 185 421 71 332 114 l 840 763 b 910 497 886 690 910 597 z "},"Õ":{"ha":1065,"x_min":0,"x_max":0,"o":"m 413 1118 b 450 1174 414 1144 421 1174 b 622 1117 493 1174 553 1117 b 722 1240 675 1117 721 1151 l 651 1240 b 614 1186 650 1213 643 1186 b 442 1243 571 1186 513 1243 b 342 1118 389 1243 343 1206 z m 533 -18 b 1010 497 819 -18 1010 199 b 533 1011 1010 796 819 1011 b 56 497 246 1011 56 796 b 533 -18 56 199 246 -18 z m 533 71 b 161 497 288 71 161 263 b 533 922 161 732 288 922 b 904 497 778 922 904 732 b 533 71 904 263 778 71 z "},"Œ":{"ha":1525,"x_min":0,"x_max":0,"o":"m 896 474 l 1406 474 l 1406 563 l 896 563 l 896 904 l 1468 904 l 1468 993 l 794 993 l 794 771 b 458 1011 732 936 607 1011 b 57 497 224 1011 57 796 b 458 -18 57 199 224 -18 b 794 224 607 -18 732 58 l 794 0 l 1483 0 l 1483 89 l 896 89 z m 478 71 b 161 497 264 71 161 263 b 478 922 161 732 264 922 b 785 497 643 922 785 781 b 478 71 785 214 643 71 z "},"P":{"ha":840,"x_min":0,"x_max":0,"o":"m 207 0 l 207 419 l 488 419 b 808 707 671 419 808 499 b 488 993 808 915 671 993 l 106 993 l 106 0 z m 207 508 l 207 904 l 497 904 b 703 707 632 904 703 842 b 497 508 703 571 632 508 z "},"Þ":{"ha":843,"x_min":0,"x_max":0,"o":"m 207 0 l 207 257 l 488 257 b 808 544 671 257 808 336 b 488 831 808 753 671 831 l 207 831 l 207 993 l 106 993 l 106 0 z m 207 346 l 207 742 l 501 742 b 707 544 635 742 707 679 b 501 346 707 408 635 346 z "},"Q":{"ha":1065,"x_min":0,"x_max":0,"o":"m 1010 497 b 533 1011 1010 796 819 1011 b 56 497 246 1011 56 796 b 533 -18 56 199 246 -18 b 818 72 644 -18 742 15 l 943 -53 l 1007 11 l 885 133 b 1010 497 964 225 1010 351 z m 533 71 b 161 497 288 71 161 263 b 533 922 161 732 288 922 b 904 497 778 922 904 732 b 815 203 904 383 874 279 l 682 336 l 618 274 l 751 139 b 533 71 694 96 622 71 z "},"R":{"ha":889,"x_min":0,"x_max":0,"o":"m 207 0 l 207 413 l 510 413 b 731 0 775 413 685 42 l 839 0 l 839 8 b 636 460 785 25 864 414 l 636 463 b 821 713 744 490 821 581 b 494 993 821 894 706 993 l 106 993 l 106 0 z m 207 501 l 207 904 l 476 904 b 719 711 647 904 719 838 b 469 501 719 572 628 501 z "},"Ŕ":{"ha":889,"x_min":0,"x_max":0,"o":"m 460 1108 l 579 1292 l 471 1292 l 385 1108 z m 207 0 l 207 413 l 510 413 b 731 0 775 413 685 42 l 839 0 l 839 8 b 636 460 785 25 864 414 l 636 463 b 821 713 744 490 821 581 b 494 993 821 894 706 993 l 106 993 l 106 0 z m 207 501 l 207 904 l 476 904 b 719 711 647 904 719 838 b 469 501 719 572 628 501 z "},"Ř":{"ha":889,"x_min":0,"x_max":0,"o":"m 483 1110 l 608 1290 l 515 1290 l 433 1161 l 431 1161 l 349 1290 l 254 1290 l 381 1110 z m 207 0 l 207 413 l 510 413 b 731 0 775 413 685 42 l 839 0 l 839 8 b 636 460 785 25 864 414 l 636 463 b 821 713 744 490 821 581 b 494 993 821 894 706 993 l 106 993 l 106 0 z m 207 501 l 207 904 l 476 904 b 719 711 647 904 719 838 b 469 501 719 572 628 501 z "},"Ŗ":{"ha":889,"x_min":0,"x_max":0,"o":"m 636 463 b 821 713 744 490 821 581 b 494 993 821 894 706 993 l 106 993 l 106 0 l 207 0 l 207 413 l 510 413 b 731 0 775 413 685 42 l 839 0 l 839 8 b 636 460 785 25 864 414 z m 207 501 l 207 904 l 476 904 b 719 711 647 904 719 838 b 469 501 719 572 628 501 z m 458 -167 b 401 -260 458 -224 446 -246 l 401 -310 b 518 -167 496 -285 518 -233 l 518 -67 l 401 -67 l 401 -167 z "},"S":{"ha":856,"x_min":0,"x_max":0,"o":"m 463 -18 b 810 271 699 -18 810 110 b 449 567 810 472 653 522 b 185 760 303 599 185 626 b 410 922 185 863 264 922 b 671 707 578 922 654 844 l 776 707 b 410 1011 761 901 625 1011 b 79 756 206 1011 79 914 b 399 486 79 574 236 524 b 704 268 603 440 706 415 b 458 71 704 158 642 71 b 143 329 251 71 157 175 l 38 329 b 463 -18 51 106 224 -18 z "},"Ś":{"ha":856,"x_min":0,"x_max":0,"o":"m 447 1108 l 567 1292 l 458 1292 l 372 1108 z m 463 -18 b 810 271 699 -18 810 110 b 449 567 810 472 653 522 b 185 760 303 599 185 626 b 410 922 185 863 264 922 b 671 707 578 922 654 844 l 776 707 b 410 1011 761 901 625 1011 b 79 756 206 1011 79 914 b 399 486 79 574 236 524 b 704 268 603 440 706 415 b 458 71 704 158 642 71 b 143 329 251 71 157 175 l 38 329 b 463 -18 51 106 224 -18 z "},"Š":{"ha":856,"x_min":0,"x_max":0,"o":"m 471 1110 l 596 1290 l 503 1290 l 421 1161 l 418 1161 l 336 1290 l 242 1290 l 368 1110 z m 463 -18 b 810 271 699 -18 810 110 b 449 567 810 472 653 522 b 185 760 303 599 185 626 b 410 922 185 863 264 922 b 671 707 578 922 654 844 l 776 707 b 410 1011 761 901 625 1011 b 79 756 206 1011 79 914 b 399 486 79 574 236 524 b 704 268 603 440 706 415 b 458 71 704 158 642 71 b 143 329 251 71 157 175 l 38 329 b 463 -18 51 106 224 -18 z "},"Ş":{"ha":856,"x_min":0,"x_max":0,"o":"m 496 -17 b 810 271 708 -6 810 118 b 449 567 810 472 653 522 b 185 760 303 599 185 626 b 410 922 185 863 264 922 b 671 707 578 922 654 844 l 776 707 b 410 1011 761 901 625 1011 b 79 756 206 1011 79 914 b 399 486 79 574 236 524 b 704 268 603 440 706 415 b 458 71 704 158 642 71 b 143 329 251 71 157 175 l 38 329 b 435 -18 51 114 210 -8 l 364 -104 l 381 -129 b 439 -118 394 -122 419 -118 b 497 -164 475 -118 497 -131 b 421 -219 497 -199 471 -219 b 321 -197 383 -219 353 -211 l 294 -228 b 438 -269 332 -251 383 -269 b 578 -165 511 -269 578 -239 b 447 -78 578 -93 510 -67 l 447 -75 z "},"Ŝ":{"ha":856,"x_min":0,"x_max":0,"o":"m 336 1111 l 418 1240 l 419 1240 l 501 1111 l 596 1111 l 471 1292 l 368 1292 l 242 1111 z m 463 -18 b 810 271 699 -18 810 110 b 449 567 810 472 653 522 b 185 760 303 599 185 626 b 410 922 185 863 264 922 b 671 707 578 922 654 844 l 776 707 b 410 1011 761 901 625 1011 b 79 756 206 1011 79 914 b 399 486 79 574 236 524 b 704 268 603 440 706 415 b 458 71 704 158 642 71 b 143 329 251 71 157 175 l 38 329 b 463 -18 51 106 224 -18 z "},"Ș":{"ha":856,"x_min":0,"x_max":0,"o":"m 449 567 b 185 760 303 599 185 626 b 410 922 185 863 264 922 b 671 707 578 922 654 844 l 776 707 b 410 1011 761 901 625 1011 b 79 756 206 1011 79 914 b 399 486 79 574 236 524 b 704 268 603 440 706 415 b 458 71 704 158 642 71 b 143 329 251 71 157 175 l 38 329 b 463 -18 51 106 224 -18 b 810 271 699 -18 810 110 b 449 567 810 472 653 522 z m 472 -167 b 415 -260 472 -224 460 -246 l 415 -310 b 532 -167 510 -285 532 -233 l 532 -67 l 415 -67 l 415 -167 z "},"T":{"ha":817,"x_min":0,"x_max":0,"o":"m 458 0 l 458 904 l 797 904 l 797 993 l 21 993 l 21 904 l 358 904 l 358 0 z "},"Ŧ":{"ha":817,"x_min":0,"x_max":0,"o":"m 797 993 l 21 993 l 21 904 l 358 904 l 358 554 l 144 554 l 144 474 l 358 474 l 358 0 l 458 0 l 458 474 l 711 474 l 711 554 l 458 554 l 458 904 l 797 904 z "},"Ť":{"ha":817,"x_min":0,"x_max":0,"o":"m 460 1110 l 585 1290 l 492 1290 l 410 1161 l 407 1161 l 325 1290 l 231 1290 l 357 1110 z m 458 0 l 458 904 l 797 904 l 797 993 l 21 993 l 21 904 l 358 904 l 358 0 z "},"Ţ":{"ha":817,"x_min":0,"x_max":0,"o":"m 458 0 l 458 904 l 797 904 l 797 993 l 21 993 l 21 904 l 358 904 l 358 0 l 385 0 l 300 -104 l 317 -129 b 375 -118 331 -122 356 -118 b 433 -164 411 -118 433 -131 b 357 -219 433 -199 407 -219 b 257 -197 319 -219 289 -211 l 231 -228 b 374 -269 268 -251 319 -269 b 514 -165 447 -269 514 -239 b 383 -78 514 -93 446 -67 l 383 -75 l 446 0 z "},"Ț":{"ha":817,"x_min":0,"x_max":0,"o":"m 21 904 l 358 904 l 358 0 l 458 0 l 458 904 l 797 904 l 797 993 l 21 993 z m 407 -167 b 350 -260 407 -224 394 -246 l 350 -310 b 467 -167 444 -285 467 -233 l 467 -67 l 350 -67 l 350 -167 z "},"U":{"ha":944,"x_min":0,"x_max":0,"o":"m 472 -18 b 846 335 732 -18 846 124 l 846 993 l 744 993 l 744 335 b 472 71 744 157 656 71 b 200 335 289 71 200 157 l 200 993 l 99 993 l 99 335 b 472 -18 99 124 213 -18 z "},"Ú":{"ha":944,"x_min":0,"x_max":0,"o":"m 500 1108 l 619 1292 l 511 1292 l 425 1108 z m 472 -18 b 846 335 732 -18 846 124 l 846 993 l 744 993 l 744 335 b 472 71 744 157 656 71 b 200 335 289 71 200 157 l 200 993 l 99 993 l 99 335 b 472 -18 99 124 213 -18 z "},"Ŭ":{"ha":944,"x_min":0,"x_max":0,"o":"m 472 1101 b 644 1278 572 1101 639 1165 l 574 1278 b 472 1169 568 1208 536 1169 b 369 1278 408 1169 376 1208 l 300 1278 b 472 1101 304 1163 374 1101 z m 472 -18 b 846 335 732 -18 846 124 l 846 993 l 744 993 l 744 335 b 472 71 744 157 656 71 b 200 335 289 71 200 157 l 200 993 l 99 993 l 99 335 b 472 -18 99 124 213 -18 z "},"Û":{"ha":944,"x_min":0,"x_max":0,"o":"m 389 1111 l 471 1240 l 472 1240 l 554 1111 l 649 1111 l 524 1292 l 421 1292 l 294 1111 z m 472 -18 b 846 335 732 -18 846 124 l 846 993 l 744 993 l 744 335 b 472 71 744 157 656 71 b 200 335 289 71 200 157 l 200 993 l 99 993 l 99 335 b 472 -18 99 124 213 -18 z "},"Ü":{"ha":944,"x_min":0,"x_max":0,"o":"m 428 1135 l 428 1251 l 311 1251 l 311 1135 z m 635 1135 l 635 1251 l 518 1251 l 518 1135 z m 472 -18 b 846 335 732 -18 846 124 l 846 993 l 744 993 l 744 335 b 472 71 744 157 656 71 b 200 335 289 71 200 157 l 200 993 l 99 993 l 99 335 b 472 -18 99 124 213 -18 z "},"Ù":{"ha":944,"x_min":0,"x_max":0,"o":"m 504 1108 l 428 1292 l 318 1292 l 429 1108 z m 472 -18 b 846 335 732 -18 846 124 l 846 993 l 744 993 l 744 335 b 472 71 744 157 656 71 b 200 335 289 71 200 157 l 200 993 l 99 993 l 99 335 b 472 -18 99 124 213 -18 z "},"Ű":{"ha":944,"x_min":0,"x_max":0,"o":"m 408 1107 l 528 1290 l 419 1290 l 333 1107 z m 599 1107 l 719 1290 l 610 1290 l 524 1107 z m 472 -18 b 846 335 732 -18 846 124 l 846 993 l 744 993 l 744 335 b 472 71 744 157 656 71 b 200 335 289 71 200 157 l 200 993 l 99 993 l 99 335 b 472 -18 99 124 213 -18 z "},"Ū":{"ha":944,"x_min":0,"x_max":0,"o":"m 646 1142 l 646 1221 l 300 1221 l 300 1142 z m 472 -18 b 846 335 732 -18 846 124 l 846 993 l 744 993 l 744 335 b 472 71 744 157 656 71 b 200 335 289 71 200 157 l 200 993 l 99 993 l 99 335 b 472 -18 99 124 213 -18 z "},"Ų":{"ha":944,"x_min":0,"x_max":0,"o":"m 744 335 b 472 71 744 157 656 71 b 200 335 289 71 200 157 l 200 993 l 99 993 l 99 335 b 472 -18 99 124 213 -18 b 504 -17 483 -18 494 -18 b 425 -142 463 -46 425 -90 b 551 -244 425 -201 467 -244 b 638 -231 583 -244 614 -239 l 638 -161 b 568 -175 615 -171 594 -175 b 506 -124 531 -175 506 -156 b 599 -4 506 -89 538 -49 b 846 335 769 36 846 163 l 846 993 l 744 993 z "},"Ů":{"ha":944,"x_min":0,"x_max":0,"o":"m 471 1064 b 590 1182 540 1064 590 1113 b 471 1300 590 1253 540 1300 b 351 1182 401 1300 351 1253 b 471 1064 351 1113 401 1064 z m 471 1111 b 403 1182 429 1111 403 1140 b 471 1253 403 1222 429 1253 b 540 1182 513 1253 540 1222 b 471 1111 540 1140 513 1111 z m 472 -18 b 846 335 732 -18 846 124 l 846 993 l 744 993 l 744 335 b 472 71 744 157 656 71 b 200 335 289 71 200 157 l 200 993 l 99 993 l 99 335 b 472 -18 99 124 213 -18 z "},"Ũ":{"ha":944,"x_min":0,"x_max":0,"o":"m 351 1118 b 389 1174 353 1144 360 1174 b 561 1117 432 1174 492 1117 b 661 1240 614 1117 660 1151 l 590 1240 b 553 1186 589 1213 582 1186 b 381 1243 510 1186 451 1243 b 281 1118 328 1243 282 1206 z m 472 -18 b 846 335 732 -18 846 124 l 846 993 l 744 993 l 744 335 b 472 71 744 157 656 71 b 200 335 289 71 200 157 l 200 993 l 99 993 l 99 335 b 472 -18 99 124 213 -18 z "},"V":{"ha":856,"x_min":0,"x_max":0,"o":"m 482 0 l 839 993 l 733 993 l 431 103 l 429 103 l 124 993 l 14 993 l 376 0 z "},"W":{"ha":1251,"x_min":0,"x_max":0,"o":"m 385 0 l 624 874 l 628 874 l 867 0 l 979 0 l 1228 993 l 1122 993 l 919 144 l 915 144 l 682 993 l 569 993 l 336 144 l 333 144 l 131 993 l 24 993 l 274 0 z "},"Ẃ":{"ha":1251,"x_min":0,"x_max":0,"o":"m 654 1108 l 774 1292 l 665 1292 l 579 1108 z m 385 0 l 624 874 l 628 874 l 867 0 l 979 0 l 1228 993 l 1122 993 l 919 144 l 915 144 l 682 993 l 569 993 l 336 144 l 333 144 l 131 993 l 24 993 l 274 0 z "},"Ŵ":{"ha":1251,"x_min":0,"x_max":0,"o":"m 543 1111 l 625 1240 l 626 1240 l 708 1111 l 803 1111 l 678 1292 l 575 1292 l 449 1111 z m 385 0 l 624 874 l 628 874 l 867 0 l 979 0 l 1228 993 l 1122 993 l 919 144 l 915 144 l 682 993 l 569 993 l 336 144 l 333 144 l 131 993 l 24 993 l 274 0 z "},"Ẅ":{"ha":1251,"x_min":0,"x_max":0,"o":"m 581 1135 l 581 1251 l 464 1251 l 464 1135 z m 788 1135 l 788 1251 l 671 1251 l 671 1135 z m 385 0 l 624 874 l 628 874 l 867 0 l 979 0 l 1228 993 l 1122 993 l 919 144 l 915 144 l 682 993 l 569 993 l 336 144 l 333 144 l 131 993 l 24 993 l 274 0 z "},"Ẁ":{"ha":1251,"x_min":0,"x_max":0,"o":"m 658 1108 l 582 1292 l 472 1292 l 583 1108 z m 385 0 l 624 874 l 628 874 l 867 0 l 979 0 l 1228 993 l 1122 993 l 919 144 l 915 144 l 682 993 l 569 993 l 336 144 l 333 144 l 131 993 l 24 993 l 274 0 z "},"X":{"ha":796,"x_min":0,"x_max":0,"o":"m 119 0 l 393 435 l 394 435 l 675 0 l 794 0 l 457 508 l 778 993 l 665 993 l 401 582 l 400 582 l 136 993 l 22 993 l 342 510 l -1 0 z "},"Y":{"ha":858,"x_min":0,"x_max":0,"o":"m 479 0 l 479 407 l 843 993 l 735 993 l 431 486 l 428 486 l 125 993 l 15 993 l 378 407 l 378 0 z "},"Ý":{"ha":858,"x_min":0,"x_max":0,"o":"m 458 1108 l 578 1292 l 469 1292 l 383 1108 z m 479 0 l 479 407 l 843 993 l 735 993 l 431 486 l 428 486 l 125 993 l 15 993 l 378 407 l 378 0 z "},"Ŷ":{"ha":858,"x_min":0,"x_max":0,"o":"m 347 1111 l 429 1240 l 431 1240 l 513 1111 l 607 1111 l 482 1292 l 379 1292 l 253 1111 z m 479 0 l 479 407 l 843 993 l 735 993 l 431 486 l 428 486 l 125 993 l 15 993 l 378 407 l 378 0 z "},"Ÿ":{"ha":858,"x_min":0,"x_max":0,"o":"m 385 1135 l 385 1251 l 268 1251 l 268 1135 z m 592 1135 l 592 1251 l 475 1251 l 475 1135 z m 479 0 l 479 407 l 843 993 l 735 993 l 431 486 l 428 486 l 125 993 l 15 993 l 378 407 l 378 0 z "},"Ỳ":{"ha":858,"x_min":0,"x_max":0,"o":"m 463 1108 l 386 1292 l 276 1292 l 388 1108 z m 479 0 l 479 407 l 843 993 l 735 993 l 431 486 l 428 486 l 125 993 l 15 993 l 378 407 l 378 0 z "},"Z":{"ha":817,"x_min":0,"x_max":0,"o":"m 786 0 l 786 89 l 149 89 l 149 92 l 772 904 l 772 993 l 53 993 l 53 904 l 649 904 l 649 901 l 25 89 l 25 0 z "},"Ź":{"ha":817,"x_min":0,"x_max":0,"o":"m 439 1108 l 558 1292 l 450 1292 l 364 1108 z m 786 0 l 786 89 l 149 89 l 149 92 l 772 904 l 772 993 l 53 993 l 53 904 l 649 904 l 649 901 l 25 89 l 25 0 z "},"Ž":{"ha":817,"x_min":0,"x_max":0,"o":"m 461 1110 l 586 1290 l 493 1290 l 411 1161 l 408 1161 l 326 1290 l 232 1290 l 358 1110 z m 786 0 l 786 89 l 149 89 l 149 92 l 772 904 l 772 993 l 53 993 l 53 904 l 649 904 l 649 901 l 25 89 l 25 0 z "},"Ż":{"ha":817,"x_min":0,"x_max":0,"o":"m 468 1135 l 468 1251 l 351 1251 l 351 1135 z m 786 0 l 786 89 l 149 89 l 149 92 l 772 904 l 772 993 l 53 993 l 53 904 l 649 904 l 649 901 l 25 89 l 25 0 z "},"a":{"ha":714,"x_min":0,"x_max":0,"o":"m 278 -18 b 526 107 393 -18 478 26 l 529 107 b 629 -6 535 18 569 -6 b 676 0 646 -6 661 -3 l 676 65 b 657 64 668 64 663 64 b 617 147 625 64 617 90 l 617 501 b 371 726 617 671 501 726 b 79 494 165 726 86 619 l 175 494 b 368 647 182 599 231 647 b 529 526 482 647 529 599 b 338 413 529 442 454 433 b 46 179 154 381 46 332 b 278 -18 46 61 136 -18 z m 289 61 b 140 188 186 61 140 106 b 349 338 140 278 211 313 b 529 397 433 351 508 368 l 529 265 b 289 61 529 138 433 61 z "},"á":{"ha":714,"x_min":0,"x_max":0,"o":"m 394 824 l 514 1007 l 406 1007 l 319 824 z m 278 -18 b 526 107 393 -18 478 26 l 529 107 b 629 -6 535 18 569 -6 b 676 0 646 -6 661 -3 l 676 65 b 657 64 668 64 663 64 b 617 147 625 64 617 90 l 617 501 b 371 726 617 671 501 726 b 79 494 165 726 86 619 l 175 494 b 368 647 182 599 231 647 b 529 526 482 647 529 599 b 338 413 529 442 454 433 b 46 179 154 381 46 332 b 278 -18 46 61 136 -18 z m 289 61 b 140 188 186 61 140 106 b 349 338 140 278 211 313 b 529 397 433 351 508 368 l 529 265 b 289 61 529 138 433 61 z "},"ă":{"ha":714,"x_min":0,"x_max":0,"o":"m 367 817 b 539 993 467 817 533 881 l 468 993 b 367 885 463 924 431 885 b 264 993 303 885 271 924 l 194 993 b 367 817 199 878 268 817 z m 278 -18 b 526 107 393 -18 478 26 l 529 107 b 629 -6 535 18 569 -6 b 676 0 646 -6 661 -3 l 676 65 b 657 64 668 64 663 64 b 617 147 625 64 617 90 l 617 501 b 371 726 617 671 501 726 b 79 494 165 726 86 619 l 175 494 b 368 647 182 599 231 647 b 529 526 482 647 529 599 b 338 413 529 442 454 433 b 46 179 154 381 46 332 b 278 -18 46 61 136 -18 z m 289 61 b 140 188 186 61 140 106 b 349 338 140 278 211 313 b 529 397 433 351 508 368 l 529 265 b 289 61 529 138 433 61 z "},"â":{"ha":714,"x_min":0,"x_max":0,"o":"m 283 826 l 365 956 l 367 956 l 449 826 l 543 826 l 418 1007 l 315 1007 l 189 826 z m 278 -18 b 526 107 393 -18 478 26 l 529 107 b 629 -6 535 18 569 -6 b 676 0 646 -6 661 -3 l 676 65 b 657 64 668 64 663 64 b 617 147 625 64 617 90 l 617 501 b 371 726 617 671 501 726 b 79 494 165 726 86 619 l 175 494 b 368 647 182 599 231 647 b 529 526 482 647 529 599 b 338 413 529 442 454 433 b 46 179 154 381 46 332 b 278 -18 46 61 136 -18 z m 289 61 b 140 188 186 61 140 106 b 349 338 140 278 211 313 b 529 397 433 351 508 368 l 529 265 b 289 61 529 138 433 61 z "},"ä":{"ha":714,"x_min":0,"x_max":0,"o":"m 322 850 l 322 967 l 206 967 l 206 850 z m 529 850 l 529 967 l 413 967 l 413 850 z m 278 -18 b 526 107 393 -18 478 26 l 529 107 b 629 -6 535 18 569 -6 b 676 0 646 -6 661 -3 l 676 65 b 657 64 668 64 663 64 b 617 147 625 64 617 90 l 617 501 b 371 726 617 671 501 726 b 79 494 165 726 86 619 l 175 494 b 368 647 182 599 231 647 b 529 526 482 647 529 599 b 338 413 529 442 454 433 b 46 179 154 381 46 332 b 278 -18 46 61 136 -18 z m 289 61 b 140 188 186 61 140 106 b 349 338 140 278 211 313 b 529 397 433 351 508 368 l 529 265 b 289 61 529 138 433 61 z "},"à":{"ha":714,"x_min":0,"x_max":0,"o":"m 399 824 l 322 1007 l 213 1007 l 324 824 z m 278 -18 b 526 107 393 -18 478 26 l 529 107 b 629 -6 535 18 569 -6 b 676 0 646 -6 661 -3 l 676 65 b 657 64 668 64 663 64 b 617 147 625 64 617 90 l 617 501 b 371 726 617 671 501 726 b 79 494 165 726 86 619 l 175 494 b 368 647 182 599 231 647 b 529 526 482 647 529 599 b 338 413 529 442 454 433 b 46 179 154 381 46 332 b 278 -18 46 61 136 -18 z m 289 61 b 140 188 186 61 140 106 b 349 338 140 278 211 313 b 529 397 433 351 508 368 l 529 265 b 289 61 529 138 433 61 z "},"ā":{"ha":714,"x_min":0,"x_max":0,"o":"m 540 857 l 540 936 l 194 936 l 194 857 z m 278 -18 b 526 107 393 -18 478 26 l 529 107 b 629 -6 535 18 569 -6 b 676 0 646 -6 661 -3 l 676 65 b 657 64 668 64 663 64 b 617 147 625 64 617 90 l 617 501 b 371 726 617 671 501 726 b 79 494 165 726 86 619 l 175 494 b 368 647 182 599 231 647 b 529 526 482 647 529 599 b 338 413 529 442 454 433 b 46 179 154 381 46 332 b 278 -18 46 61 136 -18 z m 289 61 b 140 188 186 61 140 106 b 349 338 140 278 211 313 b 529 397 433 351 508 368 l 529 265 b 289 61 529 138 433 61 z "},"ą":{"ha":714,"x_min":0,"x_max":0,"o":"m 639 -175 b 576 -124 601 -175 576 -156 b 676 0 576 -87 611 -46 l 676 65 b 657 64 668 64 663 64 b 617 147 625 64 617 90 l 617 501 b 371 726 617 671 501 726 b 79 494 165 726 86 619 l 175 494 b 368 647 182 599 231 647 b 529 526 482 647 529 599 b 338 413 529 442 454 433 b 46 179 154 381 46 332 b 278 -18 46 61 136 -18 b 526 107 393 -18 478 26 l 529 107 b 600 -3 533 35 558 6 b 496 -142 549 -29 496 -81 b 622 -244 496 -201 538 -244 b 708 -231 654 -244 685 -239 l 708 -161 b 639 -175 686 -171 665 -175 z m 529 265 b 289 61 529 138 433 61 b 140 188 186 61 140 106 b 349 338 140 278 211 313 b 529 397 433 351 508 368 z "},"å":{"ha":714,"x_min":0,"x_max":0,"o":"m 365 779 b 485 897 435 779 485 828 b 365 1015 485 968 435 1015 b 246 897 296 1015 246 968 b 365 779 246 828 296 779 z m 365 826 b 297 897 324 826 297 856 b 365 968 297 938 324 968 b 435 897 407 968 435 938 b 365 826 435 856 407 826 z m 278 -18 b 526 107 393 -18 478 26 l 529 107 b 629 -6 535 18 569 -6 b 676 0 646 -6 661 -3 l 676 65 b 657 64 668 64 663 64 b 617 147 625 64 617 90 l 617 501 b 371 726 617 671 501 726 b 79 494 165 726 86 619 l 175 494 b 368 647 182 599 231 647 b 529 526 482 647 529 599 b 338 413 529 442 454 433 b 46 179 154 381 46 332 b 278 -18 46 61 136 -18 z m 289 61 b 140 188 186 61 140 106 b 349 338 140 278 211 313 b 529 397 433 351 508 368 l 529 265 b 289 61 529 138 433 61 z "},"ã":{"ha":714,"x_min":0,"x_max":0,"o":"m 246 833 b 283 889 247 860 254 889 b 456 832 326 889 386 832 b 556 956 508 832 554 867 l 485 956 b 447 901 483 928 476 901 b 275 958 404 901 346 958 b 175 833 222 958 176 921 z m 278 -18 b 526 107 393 -18 478 26 l 529 107 b 629 -6 535 18 569 -6 b 676 0 646 -6 661 -3 l 676 65 b 657 64 668 64 663 64 b 617 147 625 64 617 90 l 617 501 b 371 726 617 671 501 726 b 79 494 165 726 86 619 l 175 494 b 368 647 182 599 231 647 b 529 526 482 647 529 599 b 338 413 529 442 454 433 b 46 179 154 381 46 332 b 278 -18 46 61 136 -18 z m 289 61 b 140 188 186 61 140 106 b 349 338 140 278 211 313 b 529 397 433 351 508 368 l 529 265 b 289 61 529 138 433 61 z "},"æ":{"ha":1229,"x_min":0,"x_max":0,"o":"m 1185 386 b 867 726 1185 583 1069 726 b 600 600 751 726 658 681 b 368 726 563 692 469 726 b 79 494 164 726 86 621 l 175 494 b 368 647 182 600 231 647 b 529 526 482 647 529 599 b 338 413 529 442 454 433 b 46 179 154 381 46 332 b 278 -18 46 61 136 -18 b 576 143 389 -18 514 24 b 865 -19 631 43 729 -19 b 1175 217 1043 -19 1142 88 l 1083 217 b 867 58 1069 158 1014 58 b 622 336 700 58 624 193 l 1183 336 b 1185 386 1185 347 1185 367 z m 622 415 b 861 649 629 547 724 649 b 1089 415 1007 649 1089 542 z m 529 265 b 289 61 529 150 453 61 b 140 188 186 61 139 106 b 349 338 139 278 211 313 b 529 397 433 351 508 368 l 529 393 b 528 354 528 381 528 368 b 529 315 528 340 528 328 z "},"b":{"ha":774,"x_min":0,"x_max":0,"o":"m 415 726 b 176 594 292 726 218 663 l 174 594 l 174 993 l 83 993 l 83 0 l 174 0 l 174 121 l 176 121 b 415 -17 218 44 292 -17 b 728 354 589 -17 728 122 b 415 726 728 588 589 726 z m 406 63 b 174 354 269 63 174 176 b 406 649 174 533 269 649 b 633 354 553 649 633 514 b 406 63 633 196 553 63 z "},"c":{"ha":725,"x_min":0,"x_max":0,"o":"m 383 -18 b 688 253 556 -18 678 100 l 593 253 b 383 60 588 167 532 60 b 139 354 210 60 139 208 b 383 646 139 499 210 646 b 593 460 531 646 588 539 l 688 460 b 383 725 672 610 556 725 b 44 354 181 725 44 575 b 383 -18 44 132 181 -18 z "},"ć":{"ha":725,"x_min":0,"x_max":0,"o":"m 413 824 l 532 1007 l 424 1007 l 338 824 z m 383 -18 b 688 253 556 -18 678 100 l 593 253 b 383 60 588 167 532 60 b 139 354 210 60 139 208 b 383 646 139 499 210 646 b 593 460 531 646 588 539 l 688 460 b 383 725 672 610 556 725 b 44 354 181 725 44 575 b 383 -18 44 132 181 -18 z "},"č":{"ha":725,"x_min":0,"x_max":0,"o":"m 436 825 l 561 1006 l 468 1006 l 386 876 l 383 876 l 301 1006 l 207 1006 l 333 825 z m 383 -18 b 688 253 556 -18 678 100 l 593 253 b 383 60 588 167 532 60 b 139 354 210 60 139 208 b 383 646 139 499 210 646 b 593 460 531 646 588 539 l 688 460 b 383 725 672 610 556 725 b 44 354 181 725 44 575 b 383 -18 44 132 181 -18 z "},"ç":{"ha":725,"x_min":0,"x_max":0,"o":"m 383 60 b 139 354 210 60 139 208 b 383 646 139 499 210 646 b 593 460 531 646 588 539 l 688 460 b 383 725 672 610 556 725 b 44 354 181 725 44 575 b 356 -17 44 142 168 -4 l 285 -104 l 301 -129 b 360 -118 315 -122 340 -118 b 418 -164 396 -118 418 -131 b 342 -219 418 -199 392 -219 b 242 -197 304 -219 274 -211 l 215 -228 b 358 -269 253 -251 304 -269 b 499 -165 432 -269 499 -239 b 368 -78 499 -93 431 -67 l 368 -75 l 417 -17 b 688 253 571 -3 678 110 l 593 253 b 383 60 588 167 532 60 z "},"ĉ":{"ha":725,"x_min":0,"x_max":0,"o":"m 301 826 l 383 956 l 385 956 l 467 826 l 561 826 l 436 1007 l 333 1007 l 207 826 z m 383 -18 b 688 253 556 -18 678 100 l 593 253 b 383 60 588 167 532 60 b 139 354 210 60 139 208 b 383 646 139 499 210 646 b 593 460 531 646 588 539 l 688 460 b 383 725 672 610 556 725 b 44 354 181 725 44 575 b 383 -18 44 132 181 -18 z "},"ċ":{"ha":725,"x_min":0,"x_max":0,"o":"m 442 850 l 442 967 l 325 967 l 325 850 z m 383 -18 b 688 253 556 -18 678 100 l 593 253 b 383 60 588 167 532 60 b 139 354 210 60 139 208 b 383 646 139 499 210 646 b 593 460 531 646 588 539 l 688 460 b 383 725 672 610 556 725 b 44 354 181 725 44 575 b 383 -18 44 132 181 -18 z "},"d":{"ha":774,"x_min":0,"x_max":0,"o":"m 599 589 l 596 589 b 357 725 554 664 481 725 b 46 354 185 725 46 586 b 357 -18 46 121 185 -18 b 596 115 481 -18 556 46 l 599 115 l 599 0 l 689 0 l 689 993 l 599 993 z m 368 61 b 140 354 221 61 140 194 b 368 646 140 513 221 646 b 599 354 504 646 599 532 b 368 61 599 175 504 61 z "},"ð":{"ha":774,"x_min":0,"x_max":0,"o":"m 699 899 l 682 968 l 485 915 b 383 993 447 949 411 975 l 260 993 b 396 892 307 964 353 929 l 214 843 l 229 774 l 457 835 b 611 594 531 760 588 676 b 378 725 563 674 474 725 b 44 356 189 725 44 581 b 381 -19 44 136 168 -19 b 725 399 624 -19 725 188 b 543 857 725 606 638 756 z m 381 60 b 135 356 221 60 135 199 b 378 650 135 513 218 650 b 633 360 538 650 633 517 b 381 60 633 200 542 60 z "},"ď":{"ha":788,"x_min":0,"x_max":0,"o":"m 596 589 b 357 725 554 664 481 725 b 46 354 185 725 46 586 b 357 -18 46 121 185 -18 b 596 115 481 -18 556 46 l 599 115 l 599 0 l 689 0 l 689 993 l 599 993 l 599 589 z m 746 732 l 817 732 l 885 993 l 779 993 z m 368 61 b 140 354 221 61 140 194 b 368 646 140 513 221 646 b 599 354 504 646 599 532 b 368 61 599 175 504 61 z "},"đ":{"ha":774,"x_min":0,"x_max":0,"o":"m 689 893 l 689 993 l 599 993 l 599 893 l 401 893 l 401 824 l 599 824 l 599 589 l 596 589 b 357 725 554 664 481 725 b 46 354 185 725 46 586 b 357 -18 46 121 185 -18 b 596 115 481 -18 556 46 l 599 115 l 599 0 l 689 0 l 689 824 l 789 824 l 789 893 z m 368 61 b 140 354 221 61 140 194 b 368 646 140 513 221 646 b 599 354 504 646 599 532 b 368 61 599 175 504 61 z "},"e":{"ha":746,"x_min":0,"x_max":0,"o":"m 703 386 b 383 726 703 583 588 726 b 46 354 179 726 46 581 b 383 -19 46 139 167 -19 b 693 217 561 -19 658 88 l 601 217 b 385 58 588 158 531 58 b 140 336 218 58 142 193 l 701 336 b 703 386 703 347 703 367 z m 140 415 b 379 649 147 547 242 649 b 607 415 525 649 607 542 z "},"é":{"ha":746,"x_min":0,"x_max":0,"o":"m 417 1010 l 331 826 l 406 826 l 525 1010 z m 703 386 b 383 726 703 583 588 726 b 46 354 179 726 46 581 b 383 -19 46 139 167 -19 b 693 217 561 -19 658 88 l 601 217 b 385 58 588 158 531 58 b 140 336 218 58 142 193 l 701 336 b 703 386 703 347 703 367 z m 140 415 b 379 649 147 547 242 649 b 607 415 525 649 607 542 z "},"ě":{"ha":746,"x_min":0,"x_max":0,"o":"m 554 1007 l 461 1007 l 379 878 l 376 878 l 294 1007 l 200 1007 l 326 826 l 429 826 z m 703 386 b 383 726 703 583 588 726 b 46 354 179 726 46 581 b 383 -19 46 139 167 -19 b 693 217 561 -19 658 88 l 601 217 b 385 58 588 158 531 58 b 140 336 218 58 142 193 l 701 336 b 703 386 703 347 703 367 z m 140 415 b 379 649 147 547 242 649 b 607 415 525 649 607 542 z "},"ê":{"ha":746,"x_min":0,"x_max":0,"o":"m 378 958 l 460 829 l 554 829 l 429 1010 l 326 1010 l 200 829 l 294 829 l 376 958 z m 703 386 b 383 726 703 583 588 726 b 46 354 179 726 46 581 b 383 -19 46 139 167 -19 b 693 217 561 -19 658 88 l 601 217 b 385 58 588 158 531 58 b 140 336 218 58 142 193 l 701 336 b 703 386 703 347 703 367 z m 140 415 b 379 649 147 547 242 649 b 607 415 525 649 607 542 z "},"ë":{"ha":746,"x_min":0,"x_max":0,"o":"m 215 969 l 215 853 l 332 853 l 332 969 z m 422 969 l 422 853 l 539 853 l 539 969 z m 703 386 b 383 726 703 583 588 726 b 46 354 179 726 46 581 b 383 -19 46 139 167 -19 b 693 217 561 -19 658 88 l 601 217 b 385 58 588 158 531 58 b 140 336 218 58 142 193 l 701 336 b 703 386 703 347 703 367 z m 140 415 b 379 649 147 547 242 649 b 607 415 525 649 607 542 z "},"ė":{"ha":746,"x_min":0,"x_max":0,"o":"m 318 969 l 318 853 l 435 853 l 435 969 z m 703 386 b 383 726 703 583 588 726 b 46 354 179 726 46 581 b 383 -19 46 139 167 -19 b 693 217 561 -19 658 88 l 601 217 b 385 58 588 158 531 58 b 140 336 218 58 142 193 l 701 336 b 703 386 703 347 703 367 z m 140 415 b 379 649 147 547 242 649 b 607 415 525 649 607 542 z "},"è":{"ha":746,"x_min":0,"x_max":0,"o":"m 333 1010 l 224 1010 l 335 826 l 410 826 z m 703 386 b 383 726 703 583 588 726 b 46 354 179 726 46 581 b 383 -19 46 139 167 -19 b 693 217 561 -19 658 88 l 601 217 b 385 58 588 158 531 58 b 140 336 218 58 142 193 l 701 336 b 703 386 703 347 703 367 z m 140 415 b 379 649 147 547 242 649 b 607 415 525 649 607 542 z "},"ē":{"ha":746,"x_min":0,"x_max":0,"o":"m 204 938 l 204 858 l 550 858 l 550 938 z m 703 386 b 383 726 703 583 588 726 b 46 354 179 726 46 581 b 383 -19 46 139 167 -19 b 693 217 561 -19 658 88 l 601 217 b 385 58 588 158 531 58 b 140 336 218 58 142 193 l 701 336 b 703 386 703 347 703 367 z m 140 415 b 379 649 147 547 242 649 b 607 415 525 649 607 542 z "},"ę":{"ha":746,"x_min":0,"x_max":0,"o":"m 703 386 b 383 726 703 583 588 726 b 46 354 179 726 46 581 b 383 -19 46 139 167 -19 l 385 -19 b 308 -142 343 -47 308 -92 b 435 -244 308 -201 350 -244 b 521 -231 467 -244 497 -239 l 521 -161 b 451 -175 499 -171 478 -175 b 389 -124 414 -175 389 -156 b 478 -8 389 -90 419 -51 b 693 217 596 22 665 113 l 601 217 b 385 58 588 158 531 58 b 140 336 218 58 142 193 l 701 336 b 703 386 703 347 703 367 z m 140 415 b 379 649 147 547 242 649 b 607 415 525 649 607 542 z "},"f":{"ha":364,"x_min":0,"x_max":0,"o":"m 301 922 b 357 919 321 922 332 921 l 357 996 b 289 1001 325 1000 308 1001 b 126 813 188 1001 126 967 l 126 708 l 26 708 l 26 629 l 126 629 l 126 0 l 217 0 l 217 629 l 357 629 l 357 708 l 217 708 l 217 814 b 301 922 217 901 233 922 z "},"g":{"ha":774,"x_min":0,"x_max":0,"o":"m 601 597 l 599 597 b 360 725 557 668 479 725 b 49 381 190 725 49 614 b 360 33 49 144 190 33 b 599 164 479 33 557 90 l 601 164 l 601 32 b 374 -175 601 -112 517 -175 b 163 -37 236 -175 176 -114 l 68 -37 b 372 -254 79 -161 181 -254 b 692 44 567 -254 692 -157 l 692 708 l 601 708 z m 372 113 b 143 381 226 113 143 218 b 372 646 143 540 226 646 b 601 381 503 646 601 560 b 372 113 601 199 503 113 z "},"ğ":{"ha":774,"x_min":0,"x_max":0,"o":"m 374 817 b 546 993 474 817 540 881 l 475 993 b 374 885 469 924 438 885 b 271 993 310 885 278 924 l 201 993 b 374 817 206 878 275 817 z m 601 597 l 599 597 b 360 725 557 668 479 725 b 49 381 190 725 49 614 b 360 33 49 144 190 33 b 599 164 479 33 557 90 l 601 164 l 601 32 b 374 -175 601 -112 517 -175 b 163 -37 236 -175 176 -114 l 68 -37 b 372 -254 79 -161 181 -254 b 692 44 567 -254 692 -157 l 692 708 l 601 708 z m 372 113 b 143 381 226 113 143 218 b 372 646 143 540 226 646 b 601 381 503 646 601 560 b 372 113 601 199 503 113 z "},"ĝ":{"ha":774,"x_min":0,"x_max":0,"o":"m 374 956 l 456 826 l 550 826 l 425 1007 l 322 1007 l 196 826 l 290 826 l 372 956 z m 601 597 l 599 597 b 360 725 557 668 479 725 b 49 381 190 725 49 614 b 360 33 49 144 190 33 b 599 164 479 33 557 90 l 601 164 l 601 32 b 374 -175 601 -112 517 -175 b 163 -37 236 -175 176 -114 l 68 -37 b 372 -254 79 -161 181 -254 b 692 44 567 -254 692 -157 l 692 708 l 601 708 z m 372 113 b 143 381 226 113 143 218 b 372 646 143 540 226 646 b 601 381 503 646 601 560 b 372 113 601 199 503 113 z "},"ģ":{"ha":774,"x_min":0,"x_max":0,"o":"m 375 936 b 432 1033 374 994 388 1018 l 432 1089 b 315 936 338 1061 315 1006 l 315 828 l 432 828 l 432 936 z m 601 597 l 599 597 b 360 725 557 668 479 725 b 49 381 190 725 49 614 b 360 33 49 144 190 33 b 599 164 479 33 557 90 l 601 164 l 601 32 b 374 -175 601 -112 517 -175 b 163 -37 236 -175 176 -114 l 68 -37 b 372 -254 79 -161 181 -254 b 692 44 567 -254 692 -157 l 692 708 l 601 708 z m 372 113 b 143 381 226 113 143 218 b 372 646 143 540 226 646 b 601 381 503 646 601 560 b 372 113 601 199 503 113 z "},"ġ":{"ha":774,"x_min":0,"x_max":0,"o":"m 315 967 l 315 850 l 432 850 l 432 967 z m 601 597 l 599 597 b 360 725 557 668 479 725 b 49 381 190 725 49 614 b 360 33 49 144 190 33 b 599 164 479 33 557 90 l 601 164 l 601 32 b 374 -175 601 -112 517 -175 b 163 -37 236 -175 176 -114 l 68 -37 b 372 -254 79 -161 181 -254 b 692 44 567 -254 692 -157 l 692 708 l 601 708 z m 372 113 b 143 381 226 113 143 218 b 372 646 143 540 226 646 b 601 381 503 646 601 560 b 372 113 601 199 503 113 z "},"h":{"ha":729,"x_min":0,"x_max":0,"o":"m 419 725 b 176 607 293 725 217 665 l 174 607 l 174 993 l 83 993 l 83 0 l 174 0 l 174 447 b 397 646 174 551 263 646 b 561 478 519 646 561 568 l 561 0 l 651 0 l 651 497 b 419 725 651 654 546 725 z "},"ħ":{"ha":729,"x_min":0,"x_max":0,"o":"m 419 725 b 176 607 293 725 217 665 l 174 607 l 174 824 l 393 824 l 393 893 l 174 893 l 174 993 l 83 993 l 83 893 l -4 893 l -4 824 l 83 824 l 83 0 l 174 0 l 174 447 b 397 646 174 551 263 646 b 561 478 519 646 561 568 l 561 0 l 651 0 l 651 497 b 419 725 651 654 546 725 z "},"ĥ":{"ha":729,"x_min":0,"x_max":0,"o":"m 211 1049 l 306 1049 l 181 1229 l 78 1229 l -49 1049 l 46 1049 l 128 1178 l 129 1178 z m 419 725 b 176 607 293 725 217 665 l 174 607 l 174 993 l 83 993 l 83 0 l 174 0 l 174 447 b 397 646 174 551 263 646 b 561 478 519 646 561 568 l 561 0 l 651 0 l 651 497 b 419 725 651 654 546 725 z "},"i":{"ha":257,"x_min":0,"x_max":0,"o":"m 186 850 l 186 967 l 69 967 l 69 850 z m 174 0 l 174 708 l 83 708 l 83 0 z "},"ı":{"ha":257,"x_min":0,"x_max":0,"o":"m 174 0 l 174 708 l 83 708 l 83 0 z "},"í":{"ha":257,"x_min":0,"x_max":0,"o":"m 157 824 l 276 1007 l 168 1007 l 82 824 z m 174 0 l 174 708 l 83 708 l 83 0 z "},"î":{"ha":257,"x_min":0,"x_max":0,"o":"m 46 826 l 128 956 l 129 956 l 211 826 l 306 826 l 181 1007 l 78 1007 l -49 826 z m 174 0 l 174 708 l 83 708 l 83 0 z "},"ï":{"ha":257,"x_min":0,"x_max":0,"o":"m 83 850 l 83 967 l -33 967 l -33 850 z m 290 850 l 290 967 l 174 967 l 174 850 z m 174 0 l 174 708 l 83 708 l 83 0 z "},"ì":{"ha":257,"x_min":0,"x_max":0,"o":"m 161 824 l 85 1007 l -25 1007 l 86 824 z m 174 0 l 174 708 l 83 708 l 83 0 z "},"ī":{"ha":257,"x_min":0,"x_max":0,"o":"m 301 857 l 301 936 l -44 936 l -44 857 z m 174 0 l 174 708 l 83 708 l 83 0 z "},"į":{"ha":257,"x_min":0,"x_max":0,"o":"m 69 967 l 69 850 l 186 850 l 186 967 z m 126 -175 b 64 -124 89 -175 64 -156 b 164 0 64 -87 99 -46 l 174 0 l 174 708 l 83 708 l 83 0 l 93 0 b -17 -142 40 -25 -17 -78 b 110 -244 -17 -201 25 -244 b 196 -231 142 -244 172 -239 l 196 -161 b 126 -175 174 -171 153 -175 z "},"ĩ":{"ha":257,"x_min":0,"x_max":0,"o":"m 8 833 b 46 889 10 860 17 889 b 218 832 89 889 149 832 b 318 956 271 832 317 867 l 247 956 b 210 901 246 928 239 901 b 38 958 167 901 108 958 b -62 833 -15 958 -61 921 z m 174 0 l 174 708 l 83 708 l 83 0 z "},"j":{"ha":257,"x_min":0,"x_max":0,"o":"m 186 850 l 186 967 l 69 967 l 69 850 z m 35 -250 b 174 -68 110 -250 174 -206 l 174 708 l 83 708 l 83 -61 b 19 -171 83 -144 65 -171 b -33 -168 -1 -171 -12 -169 l -33 -244 b 35 -250 -6 -249 11 -250 z "},"ȷ":{"ha":257,"x_min":0,"x_max":0,"o":"m 35 -250 b 174 -68 110 -250 174 -206 l 174 708 l 83 708 l 83 -61 b 19 -171 83 -144 65 -171 b -33 -168 -1 -171 -12 -169 l -33 -244 b 35 -250 -6 -249 11 -250 z "},"ĵ":{"ha":257,"x_min":0,"x_max":0,"o":"m 46 826 l 128 956 l 129 956 l 211 826 l 306 826 l 181 1007 l 78 1007 l -49 826 z m 35 -250 b 174 -68 110 -250 174 -206 l 174 708 l 83 708 l 83 -61 b 19 -171 83 -144 65 -171 b -33 -168 -1 -171 -12 -169 l -33 -244 b 35 -250 -6 -249 11 -250 z "},"k":{"ha":653,"x_min":0,"x_max":0,"o":"m 671 0 l 357 449 l 636 708 l 525 708 l 174 375 l 174 993 l 83 993 l 83 0 l 174 0 l 174 278 l 296 392 l 564 0 z "},"ķ":{"ha":653,"x_min":0,"x_max":0,"o":"m 636 708 l 525 708 l 174 375 l 174 993 l 83 993 l 83 0 l 174 0 l 174 278 l 296 392 l 564 0 l 671 0 l 357 449 z m 360 -167 b 303 -260 360 -224 347 -246 l 303 -310 b 419 -167 397 -285 419 -233 l 419 -67 l 303 -67 l 303 -167 z "},"ĸ":{"ha":661,"x_min":0,"x_max":0,"o":"m 671 0 l 365 436 l 660 708 l 547 708 l 174 357 l 174 708 l 83 708 l 83 0 l 174 0 l 174 257 l 306 379 l 564 0 z "},"l":{"ha":257,"x_min":0,"x_max":0,"o":"m 174 0 l 174 993 l 83 993 l 83 0 z "},"ĺ":{"ha":257,"x_min":0,"x_max":0,"o":"m 157 1046 l 276 1229 l 168 1229 l 82 1046 z m 174 0 l 174 993 l 83 993 l 83 0 z "},"ľ":{"ha":272,"x_min":0,"x_max":0,"o":"m 174 0 l 174 993 l 83 993 l 83 0 z m 290 732 l 360 993 l 253 993 l 221 732 z "},"ļ":{"ha":257,"x_min":0,"x_max":0,"o":"m 83 993 l 83 0 l 174 0 l 174 993 z m 71 -167 l 128 -167 b 71 -260 128 -224 115 -246 l 71 -310 b 188 -167 165 -285 188 -233 l 188 -67 l 71 -67 z "},"ł":{"ha":358,"x_min":0,"x_max":0,"o":"m 225 599 l 225 993 l 135 993 l 135 531 l 33 456 l 33 367 l 135 442 l 135 0 l 225 0 l 225 510 l 328 586 l 328 675 z "},"m":{"ha":1106,"x_min":0,"x_max":0,"o":"m 819 725 b 585 594 707 725 631 665 l 582 594 b 392 725 556 679 492 725 b 176 608 281 725 214 665 l 174 608 l 174 708 l 83 708 l 83 0 l 174 0 l 174 447 b 372 646 174 550 249 646 b 511 478 490 646 511 567 l 511 0 l 601 0 l 601 447 b 800 646 601 550 675 646 b 938 478 917 646 938 567 l 938 0 l 1028 0 l 1028 497 b 819 725 1028 644 954 725 z "},"n":{"ha":729,"x_min":0,"x_max":0,"o":"m 419 725 b 176 607 293 725 217 665 l 174 607 l 174 708 l 83 708 l 83 0 l 174 0 l 174 447 b 397 646 174 551 263 646 b 561 478 519 646 561 568 l 561 0 l 651 0 l 651 497 b 419 725 651 654 546 725 z "},"ń":{"ha":729,"x_min":0,"x_max":0,"o":"m 411 1008 l 325 825 l 400 825 l 519 1008 z m 419 725 b 176 607 293 725 217 665 l 174 607 l 174 708 l 83 708 l 83 0 l 174 0 l 174 447 b 397 646 174 551 263 646 b 561 478 519 646 561 568 l 561 0 l 651 0 l 651 497 b 419 725 651 654 546 725 z "},"ň":{"ha":729,"x_min":0,"x_max":0,"o":"m 549 1007 l 456 1007 l 374 878 l 371 878 l 289 1007 l 194 1007 l 321 826 l 424 826 z m 419 725 b 176 607 293 725 217 665 l 174 607 l 174 708 l 83 708 l 83 0 l 174 0 l 174 447 b 397 646 174 551 263 646 b 561 478 519 646 561 568 l 561 0 l 651 0 l 651 497 b 419 725 651 654 546 725 z "},"ņ":{"ha":729,"x_min":0,"x_max":0,"o":"m 419 725 b 176 607 293 725 217 665 l 174 607 l 174 708 l 83 708 l 83 0 l 174 0 l 174 447 b 397 646 174 551 263 646 b 561 478 519 646 561 568 l 561 0 l 651 0 l 651 497 b 419 725 651 654 546 725 z m 367 -167 b 310 -260 367 -224 354 -246 l 310 -310 b 426 -167 404 -285 426 -233 l 426 -67 l 310 -67 l 310 -167 z "},"ñ":{"ha":729,"x_min":0,"x_max":0,"o":"m 289 890 b 461 833 332 890 392 833 b 561 957 514 833 560 868 l 490 957 b 453 903 489 929 482 903 b 281 960 410 903 351 960 b 181 835 228 960 182 922 l 251 835 b 289 890 253 861 260 890 z m 419 725 b 176 607 293 725 217 665 l 174 607 l 174 708 l 83 708 l 83 0 l 174 0 l 174 447 b 397 646 174 551 263 646 b 561 478 519 646 561 568 l 561 0 l 651 0 l 651 497 b 419 725 651 654 546 725 z "},"ŋ":{"ha":729,"x_min":0,"x_max":0,"o":"m 419 725 b 176 607 293 725 217 665 l 174 607 l 174 708 l 83 708 l 83 0 l 174 0 l 174 447 b 397 646 174 551 263 646 b 561 478 519 646 561 568 l 561 -50 b 426 -140 561 -132 524 -151 l 426 -219 b 501 -226 449 -224 476 -226 b 651 -53 589 -226 651 -189 l 651 497 b 419 725 651 654 546 725 z "},"o":{"ha":769,"x_min":0,"x_max":0,"o":"m 385 -19 b 725 353 597 -19 725 133 b 385 726 725 574 597 726 b 44 353 172 726 44 574 b 385 -19 44 133 172 -19 z m 385 60 b 139 353 219 60 139 190 b 385 647 139 517 219 647 b 631 353 550 647 631 517 b 385 60 631 190 550 60 z "},"ó":{"ha":769,"x_min":0,"x_max":0,"o":"m 414 825 l 533 1008 l 425 1008 l 339 825 z m 385 -19 b 725 353 597 -19 725 133 b 385 726 725 574 597 726 b 44 353 172 726 44 574 b 385 -19 44 133 172 -19 z m 385 60 b 139 353 219 60 139 190 b 385 647 139 517 219 647 b 631 353 550 647 631 517 b 385 60 631 190 550 60 z "},"ô":{"ha":769,"x_min":0,"x_max":0,"o":"m 303 828 l 385 957 l 386 957 l 468 828 l 563 828 l 438 1008 l 335 1008 l 208 828 z m 385 -19 b 725 353 597 -19 725 133 b 385 726 725 574 597 726 b 44 353 172 726 44 574 b 385 -19 44 133 172 -19 z m 385 60 b 139 353 219 60 139 190 b 385 647 139 517 219 647 b 631 353 550 647 631 517 b 385 60 631 190 550 60 z "},"ö":{"ha":769,"x_min":0,"x_max":0,"o":"m 340 851 l 340 968 l 224 968 l 224 851 z m 547 851 l 547 968 l 431 968 l 431 851 z m 385 -19 b 725 353 597 -19 725 133 b 385 726 725 574 597 726 b 44 353 172 726 44 574 b 385 -19 44 133 172 -19 z m 385 60 b 139 353 219 60 139 190 b 385 647 139 517 219 647 b 631 353 550 647 631 517 b 385 60 631 190 550 60 z "},"ò":{"ha":769,"x_min":0,"x_max":0,"o":"m 418 825 l 342 1008 l 232 1008 l 343 825 z m 385 -19 b 725 353 597 -19 725 133 b 385 726 725 574 597 726 b 44 353 172 726 44 574 b 385 -19 44 133 172 -19 z m 385 60 b 139 353 219 60 139 190 b 385 647 139 517 219 647 b 631 353 550 647 631 517 b 385 60 631 190 550 60 z "},"ő":{"ha":769,"x_min":0,"x_max":0,"o":"m 322 824 l 442 1007 l 333 1007 l 247 824 z m 513 824 l 633 1007 l 524 1007 l 438 824 z m 385 -19 b 725 353 597 -19 725 133 b 385 726 725 574 597 726 b 44 353 172 726 44 574 b 385 -19 44 133 172 -19 z m 385 60 b 139 353 219 60 139 190 b 385 647 139 517 219 647 b 631 353 550 647 631 517 b 385 60 631 190 550 60 z "},"ō":{"ha":769,"x_min":0,"x_max":0,"o":"m 558 858 l 558 938 l 213 938 l 213 858 z m 385 -19 b 725 353 597 -19 725 133 b 385 726 725 574 597 726 b 44 353 172 726 44 574 b 385 -19 44 133 172 -19 z m 385 60 b 139 353 219 60 139 190 b 385 647 139 517 219 647 b 631 353 550 647 631 517 b 385 60 631 190 550 60 z "},"ø":{"ha":785,"x_min":0,"x_max":0,"o":"m 711 722 l 628 638 b 393 726 571 694 490 726 b 53 353 181 726 53 574 b 118 117 53 260 75 179 l 32 29 l 74 -14 l 157 71 b 393 -19 214 14 294 -19 b 733 353 606 -19 733 133 b 667 592 733 447 710 529 l 753 679 z m 147 353 b 393 647 147 517 228 647 b 567 575 468 647 526 619 l 183 185 b 147 353 160 232 147 290 z m 639 353 b 393 60 639 190 558 60 b 218 133 317 60 258 88 l 601 525 b 639 353 626 476 639 417 z "},"õ":{"ha":769,"x_min":0,"x_max":0,"o":"m 265 835 b 303 890 267 861 274 890 b 475 833 346 890 406 833 b 575 957 528 833 574 868 l 504 957 b 467 903 503 929 496 903 b 294 960 424 903 365 960 b 194 835 242 960 196 922 z m 385 -19 b 725 353 597 -19 725 133 b 385 726 725 574 597 726 b 44 353 172 726 44 574 b 385 -19 44 133 172 -19 z m 385 60 b 139 353 219 60 139 190 b 385 647 139 517 219 647 b 631 353 550 647 631 517 b 385 60 631 190 550 60 z "},"œ":{"ha":1331,"x_min":0,"x_max":0,"o":"m 1288 386 b 969 726 1288 583 1172 726 b 678 560 836 726 733 665 b 385 725 622 663 519 725 b 44 354 172 725 44 574 b 385 -18 44 133 172 -18 b 678 147 519 -18 622 44 b 968 -19 731 44 831 -19 b 1278 217 1146 -19 1243 88 l 1186 217 b 969 58 1172 158 1117 58 b 725 336 803 58 726 193 l 1286 336 b 1288 386 1288 347 1288 367 z m 725 415 b 964 649 732 547 826 649 b 1192 415 1110 649 1192 542 z m 385 61 b 139 354 219 61 139 190 b 385 646 139 517 219 646 b 631 354 550 646 631 517 b 385 61 631 190 550 61 z "},"p":{"ha":774,"x_min":0,"x_max":0,"o":"m 415 726 b 176 594 292 726 218 663 l 174 594 l 174 708 l 83 708 l 83 -246 l 174 -246 l 174 119 l 176 119 b 415 -17 218 44 292 -17 b 728 354 589 -17 728 122 b 415 726 728 588 589 726 z m 406 63 b 174 354 269 63 174 176 b 406 647 174 533 269 647 b 633 354 553 647 633 514 b 406 63 633 196 553 63 z "},"þ":{"ha":774,"x_min":0,"x_max":0,"o":"m 415 726 b 176 594 292 726 218 663 l 174 594 l 174 993 l 83 993 l 83 -246 l 174 -246 l 174 119 l 176 119 b 415 -17 218 44 292 -17 b 728 354 589 -17 728 122 b 415 726 728 588 589 726 z m 406 63 b 174 354 269 63 174 176 b 406 647 174 533 269 647 b 633 354 553 647 633 514 b 406 63 633 196 553 63 z "},"q":{"ha":772,"x_min":0,"x_max":0,"o":"m 599 589 l 596 589 b 357 725 554 664 481 725 b 46 354 185 725 46 586 b 357 -18 46 121 185 -18 b 596 115 481 -18 556 46 l 599 115 l 599 -246 l 689 -246 l 689 708 l 599 708 z m 368 61 b 140 354 221 61 140 194 b 368 646 140 513 221 646 b 599 354 504 646 599 532 b 368 61 599 175 504 61 z "},"r":{"ha":451,"x_min":0,"x_max":0,"o":"m 378 725 b 176 564 278 725 213 657 l 174 564 l 174 708 l 83 708 l 83 0 l 174 0 l 174 396 b 396 636 174 533 268 636 b 439 632 410 636 425 635 l 439 721 b 378 725 422 724 403 725 z "},"ŕ":{"ha":451,"x_min":0,"x_max":0,"o":"m 306 1007 l 219 824 l 294 824 l 414 1007 z m 378 725 b 176 564 278 725 213 657 l 174 564 l 174 708 l 83 708 l 83 0 l 174 0 l 174 396 b 396 636 174 533 268 636 b 439 632 410 636 425 635 l 439 721 b 378 725 422 724 403 725 z "},"ř":{"ha":451,"x_min":0,"x_max":0,"o":"m 443 1006 l 350 1006 l 268 876 l 265 876 l 183 1006 l 89 1006 l 215 825 l 318 825 z m 174 564 l 174 708 l 83 708 l 83 0 l 174 0 l 174 396 b 396 636 174 533 268 636 b 439 632 410 636 425 635 l 439 721 b 378 725 422 724 403 725 b 176 564 278 725 213 657 z "},"ŗ":{"ha":451,"x_min":0,"x_max":0,"o":"m 378 725 b 176 564 278 725 213 657 l 174 564 l 174 708 l 83 708 l 83 0 l 174 0 l 174 396 b 396 636 174 533 268 636 b 439 632 410 636 425 635 l 439 721 b 378 725 422 724 403 725 z m 128 -167 b 71 -260 128 -224 115 -246 l 71 -310 b 188 -167 165 -285 188 -233 l 188 -67 l 71 -67 l 71 -167 z "},"s":{"ha":656,"x_min":0,"x_max":0,"o":"m 344 -18 b 622 196 519 -18 622 67 b 357 413 622 343 490 381 b 154 540 250 439 154 451 b 313 646 154 607 211 646 b 500 510 450 646 488 572 l 594 510 b 311 725 582 626 496 725 b 60 535 151 725 60 650 b 322 332 60 397 192 365 b 526 193 421 308 526 297 b 346 61 526 124 481 61 b 128 232 197 61 133 135 l 33 232 b 344 -18 38 90 146 -18 z "},"ś":{"ha":656,"x_min":0,"x_max":0,"o":"m 356 824 l 475 1007 l 367 1007 l 281 824 z m 344 -18 b 622 196 519 -18 622 67 b 357 413 622 343 490 381 b 154 540 250 439 154 451 b 313 646 154 607 211 646 b 500 510 450 646 488 572 l 594 510 b 311 725 582 626 496 725 b 60 535 151 725 60 650 b 322 332 60 397 192 365 b 526 193 421 308 526 297 b 346 61 526 124 481 61 b 128 232 197 61 133 135 l 33 232 b 344 -18 38 90 146 -18 z "},"š":{"ha":656,"x_min":0,"x_max":0,"o":"m 379 825 l 504 1006 l 411 1006 l 329 876 l 326 876 l 244 1006 l 150 1006 l 276 825 z m 344 -18 b 622 196 519 -18 622 67 b 357 413 622 343 490 381 b 154 540 250 439 154 451 b 313 646 154 607 211 646 b 500 510 450 646 488 572 l 594 510 b 311 725 582 626 496 725 b 60 535 151 725 60 650 b 322 332 60 397 192 365 b 526 193 421 308 526 297 b 346 61 526 124 481 61 b 128 232 197 61 133 135 l 33 232 b 344 -18 38 90 146 -18 z "},"ş":{"ha":656,"x_min":0,"x_max":0,"o":"m 358 -18 b 622 196 525 -14 622 71 b 357 413 622 343 490 381 b 154 540 250 439 154 451 b 313 646 154 607 211 646 b 500 510 450 646 488 572 l 594 510 b 311 725 582 626 496 725 b 60 535 151 725 60 650 b 322 332 60 397 192 365 b 526 193 421 308 526 297 b 346 61 526 124 481 61 b 128 232 197 61 133 135 l 33 232 b 300 -17 38 101 129 -1 l 228 -104 l 244 -129 b 303 -118 258 -122 283 -118 b 361 -164 339 -118 361 -131 b 285 -219 361 -199 335 -219 b 185 -197 247 -219 217 -211 l 158 -228 b 301 -269 196 -251 247 -269 b 442 -165 375 -269 442 -239 b 311 -78 442 -93 374 -67 l 311 -75 z "},"ŝ":{"ha":656,"x_min":0,"x_max":0,"o":"m 244 826 l 326 956 l 328 956 l 410 826 l 504 826 l 379 1007 l 276 1007 l 150 826 z m 344 -18 b 622 196 519 -18 622 67 b 357 413 622 343 490 381 b 154 540 250 439 154 451 b 313 646 154 607 211 646 b 500 510 450 646 488 572 l 594 510 b 311 725 582 626 496 725 b 60 535 151 725 60 650 b 322 332 60 397 192 365 b 526 193 421 308 526 297 b 346 61 526 124 481 61 b 128 232 197 61 133 135 l 33 232 b 344 -18 38 90 146 -18 z "},"ș":{"ha":656,"x_min":0,"x_max":0,"o":"m 357 413 b 154 540 250 439 154 451 b 313 646 154 607 211 646 b 500 510 450 646 488 572 l 594 510 b 311 725 582 626 496 725 b 60 535 151 725 60 650 b 322 332 60 397 192 365 b 526 193 421 308 526 297 b 346 61 526 124 481 61 b 128 232 197 61 133 135 l 33 232 b 344 -18 38 90 146 -18 b 622 196 519 -18 622 67 b 357 413 622 343 490 381 z m 336 -167 b 279 -260 336 -224 324 -246 l 279 -310 b 396 -167 374 -285 396 -233 l 396 -67 l 279 -67 l 279 -167 z "},"ß":{"ha":708,"x_min":0,"x_max":0,"o":"m 404 -18 b 665 267 569 -18 665 100 b 460 549 665 428 581 510 l 460 551 b 617 772 550 590 617 654 b 356 1011 617 925 504 1011 b 83 728 182 1011 83 904 l 83 0 l 174 0 l 174 700 b 356 932 174 831 210 932 b 522 769 476 932 522 854 b 324 589 522 643 421 589 l 286 589 l 286 511 l 328 511 b 571 275 440 511 571 449 b 382 60 571 153 507 60 b 274 81 349 60 313 65 l 274 1 b 404 -18 315 -11 357 -18 z "},"t":{"ha":389,"x_min":0,"x_max":0,"o":"m 356 708 l 213 708 l 213 944 l 122 944 l 122 708 l 18 708 l 18 629 l 122 629 l 122 183 b 289 -6 122 29 186 -6 b 356 0 311 -6 328 -4 l 356 76 b 301 74 335 75 324 74 b 213 182 232 74 213 94 l 213 629 l 356 629 z "},"ŧ":{"ha":400,"x_min":0,"x_max":0,"o":"m 361 708 l 217 708 l 217 944 l 126 944 l 126 708 l 22 708 l 22 629 l 126 629 l 126 481 l 22 481 l 22 401 l 126 401 l 126 183 b 294 -6 126 29 190 -6 b 361 0 317 -6 333 -4 l 361 76 b 307 74 339 75 328 74 b 217 182 236 74 217 94 l 217 401 l 361 401 l 361 481 l 217 481 l 217 629 l 361 629 z "},"ť":{"ha":389,"x_min":0,"x_max":0,"o":"m 311 993 l 279 783 l 349 783 l 418 993 z m 122 944 l 122 708 l 18 708 l 18 629 l 122 629 l 122 183 b 289 -6 122 29 186 -6 b 356 0 311 -6 328 -4 l 356 76 b 301 74 335 75 324 74 b 213 182 232 74 213 94 l 213 629 l 356 629 l 356 708 l 213 708 l 213 944 z "},"ţ":{"ha":389,"x_min":0,"x_max":0,"o":"m 239 -57 l 282 -6 l 289 -6 b 356 0 311 -6 328 -4 l 356 76 b 301 74 335 75 324 74 b 213 182 232 74 213 94 l 213 629 l 356 629 l 356 708 l 213 708 l 213 944 l 122 944 l 122 708 l 18 708 l 18 629 l 122 629 l 122 183 b 226 0 122 64 161 15 l 156 -86 l 172 -111 b 231 -100 186 -104 211 -100 b 289 -146 267 -100 289 -112 b 213 -201 289 -181 263 -201 b 113 -179 175 -201 144 -193 l 86 -210 b 229 -251 124 -233 175 -251 b 369 -147 303 -251 369 -221 b 239 -60 369 -75 301 -49 z "},"ț":{"ha":389,"x_min":0,"x_max":0,"o":"m 356 708 l 213 708 l 213 944 l 122 944 l 122 708 l 18 708 l 18 629 l 122 629 l 122 183 b 289 -6 122 29 186 -6 b 356 0 311 -6 328 -4 l 356 76 b 301 74 335 75 324 74 b 213 182 232 74 213 94 l 213 629 l 356 629 z m 263 -149 b 206 -242 263 -206 250 -228 l 206 -292 b 322 -149 300 -267 322 -215 l 322 -49 l 206 -49 l 206 -149 z "},"u":{"ha":729,"x_min":0,"x_max":0,"o":"m 556 261 b 332 63 556 157 467 63 b 168 231 210 63 168 140 l 168 708 l 78 708 l 78 211 b 310 -17 78 54 183 -17 b 553 100 436 -17 513 42 l 556 100 l 556 0 l 646 0 l 646 708 l 556 708 z "},"ú":{"ha":729,"x_min":0,"x_max":0,"o":"m 390 1007 l 304 824 l 379 824 l 499 1007 z m 556 261 b 332 63 556 157 467 63 b 168 231 210 63 168 140 l 168 708 l 78 708 l 78 211 b 310 -17 78 54 183 -17 b 553 100 436 -17 513 42 l 556 100 l 556 0 l 646 0 l 646 708 l 556 708 z "},"ŭ":{"ha":729,"x_min":0,"x_max":0,"o":"m 351 817 b 524 993 451 817 518 881 l 453 993 b 351 885 447 924 415 885 b 249 993 288 885 256 924 l 179 993 b 351 817 183 878 253 817 z m 556 261 b 332 63 556 157 467 63 b 168 231 210 63 168 140 l 168 708 l 78 708 l 78 211 b 310 -17 78 54 183 -17 b 553 100 436 -17 513 42 l 556 100 l 556 0 l 646 0 l 646 708 l 556 708 z "},"û":{"ha":729,"x_min":0,"x_max":0,"o":"m 351 956 l 433 826 l 528 826 l 403 1007 l 300 1007 l 174 826 l 268 826 l 350 956 z m 556 261 b 332 63 556 157 467 63 b 168 231 210 63 168 140 l 168 708 l 78 708 l 78 211 b 310 -17 78 54 183 -17 b 553 100 436 -17 513 42 l 556 100 l 556 0 l 646 0 l 646 708 l 556 708 z "},"ü":{"ha":729,"x_min":0,"x_max":0,"o":"m 190 967 l 190 850 l 307 850 l 307 967 z m 397 967 l 397 850 l 514 850 l 514 967 z m 556 261 b 332 63 556 157 467 63 b 168 231 210 63 168 140 l 168 708 l 78 708 l 78 211 b 310 -17 78 54 183 -17 b 553 100 436 -17 513 42 l 556 100 l 556 0 l 646 0 l 646 708 l 556 708 z "},"ù":{"ha":729,"x_min":0,"x_max":0,"o":"m 307 1007 l 197 1007 l 308 824 l 383 824 z m 556 261 b 332 63 556 157 467 63 b 168 231 210 63 168 140 l 168 708 l 78 708 l 78 211 b 310 -17 78 54 183 -17 b 553 100 436 -17 513 42 l 556 100 l 556 0 l 646 0 l 646 708 l 556 708 z "},"ű":{"ha":729,"x_min":0,"x_max":0,"o":"m 299 1006 l 213 822 l 288 822 l 407 1006 z m 599 1006 l 489 1006 l 403 822 l 478 822 z m 556 261 b 332 63 556 157 467 63 b 168 231 210 63 168 140 l 168 708 l 78 708 l 78 211 b 310 -17 78 54 183 -17 b 553 100 436 -17 513 42 l 556 100 l 556 0 l 646 0 l 646 708 l 556 708 z "},"ū":{"ha":729,"x_min":0,"x_max":0,"o":"m 178 936 l 178 857 l 524 857 l 524 936 z m 556 261 b 332 63 556 157 467 63 b 168 231 210 63 168 140 l 168 708 l 78 708 l 78 211 b 310 -17 78 54 183 -17 b 553 100 436 -17 513 42 l 556 100 l 556 0 l 646 0 l 646 708 l 556 708 z "},"ų":{"ha":729,"x_min":0,"x_max":0,"o":"m 589 -175 b 526 -124 551 -175 526 -156 b 626 0 526 -87 561 -46 l 646 0 l 646 708 l 556 708 l 556 261 b 332 63 556 157 467 63 b 168 231 210 63 168 140 l 168 708 l 78 708 l 78 211 b 310 -17 78 54 183 -17 b 553 100 436 -17 513 42 l 556 100 l 556 0 b 446 -142 503 -25 446 -78 b 572 -244 446 -201 488 -244 b 658 -231 604 -244 635 -239 l 658 -161 b 589 -175 636 -171 615 -175 z "},"ů":{"ha":729,"x_min":0,"x_max":0,"o":"m 350 779 b 469 897 419 779 469 828 b 350 1015 469 968 419 1015 b 231 897 281 1015 231 968 b 350 779 231 828 281 779 z m 350 968 b 419 897 392 968 419 938 b 350 826 419 856 392 826 b 282 897 308 826 282 856 b 350 968 282 938 308 968 z m 556 261 b 332 63 556 157 467 63 b 168 231 210 63 168 140 l 168 708 l 78 708 l 78 211 b 310 -17 78 54 183 -17 b 553 100 436 -17 513 42 l 556 100 l 556 0 l 646 0 l 646 708 l 556 708 z "},"ũ":{"ha":729,"x_min":0,"x_max":0,"o":"m 268 889 b 440 832 311 889 371 832 b 540 956 493 832 539 867 l 469 956 b 432 901 468 928 461 901 b 260 958 389 901 331 958 b 160 833 207 958 161 921 l 231 833 b 268 889 232 860 239 889 z m 556 261 b 332 63 556 157 467 63 b 168 231 210 63 168 140 l 168 708 l 78 708 l 78 211 b 310 -17 78 54 183 -17 b 553 100 436 -17 513 42 l 556 100 l 556 0 l 646 0 l 646 708 l 556 708 z "},"v":{"ha":650,"x_min":0,"x_max":0,"o":"m 376 0 l 636 708 l 539 708 l 328 92 l 326 92 l 114 708 l 14 708 l 274 0 z "},"w":{"ha":1024,"x_min":0,"x_max":0,"o":"m 343 0 l 510 599 l 513 599 l 679 0 l 781 0 l 1007 708 l 910 708 l 732 103 l 729 103 l 564 708 l 463 708 l 297 103 l 294 103 l 118 708 l 18 708 l 243 0 z "},"ẃ":{"ha":1024,"x_min":0,"x_max":0,"o":"m 540 824 l 660 1007 l 551 1007 l 465 824 z m 343 0 l 510 599 l 513 599 l 679 0 l 781 0 l 1007 708 l 910 708 l 732 103 l 729 103 l 564 708 l 463 708 l 297 103 l 294 103 l 118 708 l 18 708 l 243 0 z "},"ŵ":{"ha":1024,"x_min":0,"x_max":0,"o":"m 429 826 l 511 956 l 513 956 l 594 826 l 689 826 l 564 1007 l 461 1007 l 335 826 z m 343 0 l 510 599 l 513 599 l 679 0 l 781 0 l 1007 708 l 910 708 l 732 103 l 729 103 l 564 708 l 463 708 l 297 103 l 294 103 l 118 708 l 18 708 l 243 0 z "},"ẅ":{"ha":1024,"x_min":0,"x_max":0,"o":"m 468 850 l 468 967 l 351 967 l 351 850 z m 675 850 l 675 967 l 558 967 l 558 850 z m 343 0 l 510 599 l 513 599 l 679 0 l 781 0 l 1007 708 l 910 708 l 732 103 l 729 103 l 564 708 l 463 708 l 297 103 l 294 103 l 118 708 l 18 708 l 243 0 z "},"ẁ":{"ha":1024,"x_min":0,"x_max":0,"o":"m 544 824 l 468 1007 l 358 1007 l 469 824 z m 343 0 l 510 599 l 513 599 l 679 0 l 781 0 l 1007 708 l 910 708 l 732 103 l 729 103 l 564 708 l 463 708 l 297 103 l 294 103 l 118 708 l 18 708 l 243 0 z "},"x":{"ha":649,"x_min":0,"x_max":0,"o":"m 100 0 l 322 301 l 325 301 l 549 0 l 658 0 l 379 363 l 633 708 l 525 708 l 326 426 l 324 426 l 124 708 l 14 708 l 269 363 l -8 0 z "},"y":{"ha":668,"x_min":0,"x_max":0,"o":"m 146 -249 b 372 -21 240 -249 303 -197 l 656 708 l 558 708 l 339 118 l 336 118 l 106 708 l 6 708 l 292 4 b 132 -169 253 -126 199 -169 b 78 -165 110 -169 99 -168 l 78 -243 b 146 -249 107 -247 124 -249 z "},"ý":{"ha":668,"x_min":0,"x_max":0,"o":"m 360 824 l 479 1007 l 371 1007 l 285 824 z m 146 -249 b 372 -21 240 -249 303 -197 l 656 708 l 558 708 l 339 118 l 336 118 l 106 708 l 6 708 l 292 4 b 132 -169 253 -126 199 -169 b 78 -165 110 -169 99 -168 l 78 -243 b 146 -249 107 -247 124 -249 z "},"ŷ":{"ha":668,"x_min":0,"x_max":0,"o":"m 249 826 l 331 956 l 332 956 l 414 826 l 508 826 l 383 1007 l 281 1007 l 154 826 z m 146 -249 b 372 -21 240 -249 303 -197 l 656 708 l 558 708 l 339 118 l 336 118 l 106 708 l 6 708 l 292 4 b 132 -169 253 -126 199 -169 b 78 -165 110 -169 99 -168 l 78 -243 b 146 -249 107 -247 124 -249 z "},"ÿ":{"ha":668,"x_min":0,"x_max":0,"o":"m 286 850 l 286 967 l 169 967 l 169 850 z m 493 850 l 493 967 l 376 967 l 376 850 z m 146 -249 b 372 -21 240 -249 303 -197 l 656 708 l 558 708 l 339 118 l 336 118 l 106 708 l 6 708 l 292 4 b 132 -169 253 -126 199 -169 b 78 -165 110 -169 99 -168 l 78 -243 b 146 -249 107 -247 124 -249 z "},"ỳ":{"ha":668,"x_min":0,"x_max":0,"o":"m 364 824 l 288 1007 l 178 1007 l 289 824 z m 146 -249 b 372 -21 240 -249 303 -197 l 656 708 l 558 708 l 339 118 l 336 118 l 106 708 l 6 708 l 292 4 b 132 -169 253 -126 199 -169 b 78 -165 110 -169 99 -168 l 78 -243 b 146 -249 107 -247 124 -249 z "},"z":{"ha":613,"x_min":0,"x_max":0,"o":"m 586 0 l 586 79 l 142 79 l 142 82 l 571 651 l 571 708 l 47 708 l 47 629 l 446 629 l 446 626 l 25 69 l 25 0 z "},"ź":{"ha":613,"x_min":0,"x_max":0,"o":"m 333 824 l 453 1007 l 344 1007 l 258 824 z m 586 0 l 586 79 l 142 79 l 142 82 l 571 651 l 571 708 l 47 708 l 47 629 l 446 629 l 446 626 l 25 69 l 25 0 z "},"ž":{"ha":613,"x_min":0,"x_max":0,"o":"m 357 825 l 482 1006 l 389 1006 l 307 876 l 304 876 l 222 1006 l 128 1006 l 254 825 z m 586 0 l 586 79 l 142 79 l 142 82 l 571 651 l 571 708 l 47 708 l 47 629 l 446 629 l 446 626 l 25 69 l 25 0 z "},"ż":{"ha":613,"x_min":0,"x_max":0,"o":"m 363 850 l 363 967 l 246 967 l 246 850 z m 586 0 l 586 79 l 142 79 l 142 82 l 571 651 l 571 708 l 47 708 l 47 629 l 446 629 l 446 626 l 25 69 l 25 0 z "},"ﬁ":{"ha":621,"x_min":0,"x_max":0,"o":"m 126 708 l 26 708 l 26 629 l 126 629 l 126 0 l 217 0 l 217 629 l 357 629 l 357 708 l 217 708 l 217 814 b 301 922 217 901 233 922 b 357 919 321 922 332 921 l 357 996 b 289 1001 325 1000 308 1001 b 126 813 188 1001 126 967 z m 433 850 l 550 850 l 550 967 l 433 967 z m 538 0 l 538 708 l 447 708 l 447 0 z "},"ﬂ":{"ha":621,"x_min":0,"x_max":0,"o":"m 126 708 l 26 708 l 26 629 l 126 629 l 126 0 l 217 0 l 217 629 l 357 629 l 357 708 l 217 708 l 217 814 b 301 922 217 901 233 922 b 357 919 321 922 332 921 l 357 996 b 289 1001 325 1000 308 1001 b 126 813 188 1001 126 967 z m 447 0 l 538 0 l 538 993 l 447 993 z "},"ª":{"ha":588,"x_min":0,"x_max":0,"o":"m 222 432 b 406 528 301 432 368 467 l 410 528 b 489 442 414 467 438 442 b 536 449 503 442 518 444 l 536 504 l 519 504 b 492 561 496 504 492 525 l 492 825 b 297 1003 492 958 407 1003 b 72 819 140 1003 76 917 l 158 819 b 290 935 163 892 199 935 b 408 850 372 935 408 900 b 268 756 408 782 349 771 b 49 588 133 732 49 697 b 222 432 49 492 115 432 z m 244 504 b 136 592 171 504 136 536 b 281 696 136 657 197 681 b 408 746 353 710 394 722 l 408 653 b 244 504 408 565 342 504 z "},"º":{"ha":613,"x_min":0,"x_max":0,"o":"m 307 432 b 568 718 469 432 568 550 b 307 1003 568 886 469 1003 b 44 718 144 1003 44 885 b 307 432 44 550 143 432 z m 307 506 b 129 718 186 506 129 600 b 307 929 129 836 186 929 b 483 718 426 929 483 836 b 307 506 483 600 426 506 z "},"А":{"ha":882,"x_min":0,"x_max":0,"o":"m 117 0 l 217 275 l 663 275 l 763 0 l 871 0 l 497 993 l 383 993 l 13 0 z m 439 897 l 442 897 l 631 365 l 250 365 z "},"Б":{"ha":863,"x_min":0,"x_max":0,"o":"m 496 0 b 824 311 700 0 824 121 b 508 608 824 501 706 608 l 207 608 l 207 904 l 750 904 l 750 993 l 106 993 l 106 0 z m 207 519 l 514 519 b 718 311 642 519 718 439 b 500 89 718 175 636 89 l 207 89 z "},"В":{"ha":908,"x_min":0,"x_max":0,"o":"m 528 0 b 856 285 725 0 856 97 b 658 531 856 428 769 510 l 658 533 b 815 743 747 564 815 625 b 501 993 815 899 697 993 l 106 993 l 106 0 z m 207 567 l 207 904 l 521 904 b 710 733 649 904 710 835 b 521 567 710 635 658 567 z m 207 89 l 207 478 l 557 478 b 750 285 675 478 750 401 b 532 89 750 169 689 89 z "},"Г":{"ha":669,"x_min":0,"x_max":0,"o":"m 207 0 l 207 904 l 649 904 l 649 993 l 106 993 l 106 0 z "},"Ѓ":{"ha":669,"x_min":0,"x_max":0,"o":"m 403 1108 l 522 1292 l 414 1292 l 328 1108 z m 207 0 l 207 904 l 649 904 l 649 993 l 106 993 l 106 0 z "},"Ґ":{"ha":669,"x_min":0,"x_max":0,"o":"m 207 0 l 207 904 l 649 904 l 649 1131 l 554 1131 l 554 993 l 106 993 l 106 0 z "},"Ғ":{"ha":735,"x_min":0,"x_max":0,"o":"m 711 993 l 168 993 l 168 525 l 4 525 l 4 446 l 168 446 l 168 0 l 269 0 l 269 446 l 568 446 l 568 525 l 269 525 l 269 904 l 711 904 z "},"Д":{"ha":929,"x_min":0,"x_max":0,"o":"m 101 -181 l 101 -1 l 794 -1 l 794 -181 l 889 -181 l 889 88 l 785 88 l 785 993 l 224 993 l 192 338 b 76 88 182 158 156 88 l 6 88 l 6 -181 z m 231 90 b 292 281 265 128 288 183 l 324 904 l 683 904 l 683 88 l 231 88 z "},"Е":{"ha":838,"x_min":0,"x_max":0,"o":"m 794 0 l 794 89 l 207 89 l 207 474 l 718 474 l 718 563 l 207 563 l 207 904 l 779 904 l 779 993 l 106 993 l 106 0 z "},"Ѐ":{"ha":838,"x_min":0,"x_max":0,"o":"m 481 1108 l 404 1292 l 294 1292 l 406 1108 z m 794 0 l 794 89 l 207 89 l 207 474 l 718 474 l 718 563 l 207 563 l 207 904 l 779 904 l 779 993 l 106 993 l 106 0 z "},"Ё":{"ha":838,"x_min":0,"x_max":0,"o":"m 403 1135 l 403 1251 l 286 1251 l 286 1135 z m 610 1135 l 610 1251 l 493 1251 l 493 1135 z m 794 0 l 794 89 l 207 89 l 207 474 l 718 474 l 718 563 l 207 563 l 207 904 l 779 904 l 779 993 l 106 993 l 106 0 z "},"Ж":{"ha":1256,"x_min":0,"x_max":0,"o":"m 1238 993 l 1132 993 l 801 528 l 678 528 l 678 993 l 578 993 l 578 528 l 457 528 l 128 993 l 19 993 l 376 490 l -6 0 l 117 0 l 457 440 l 578 440 l 578 0 l 678 0 l 678 440 l 799 440 l 1139 0 l 1261 0 l 881 490 z "},"З":{"ha":801,"x_min":0,"x_max":0,"o":"m 407 -19 b 744 274 610 -19 744 104 b 563 500 744 388 672 467 l 563 503 b 717 735 661 543 717 631 b 388 1007 717 901 582 1007 b 51 728 179 1007 51 894 l 157 728 b 388 918 157 840 243 918 b 611 735 518 918 611 846 b 425 544 611 621 542 544 l 308 544 l 308 456 l 431 456 b 639 274 556 456 639 383 b 397 69 639 150 542 69 b 146 269 243 69 146 138 l 40 269 b 407 -19 40 82 174 -19 z "},"И":{"ha":1004,"x_min":0,"x_max":0,"o":"m 207 0 l 794 838 l 797 838 l 797 0 l 897 0 l 897 993 l 797 993 l 210 154 l 207 154 l 207 993 l 106 993 l 106 0 z "},"Й":{"ha":1004,"x_min":0,"x_max":0,"o":"m 506 1101 b 678 1278 606 1101 672 1165 l 607 1278 b 506 1169 601 1208 569 1169 b 403 1278 442 1169 410 1208 l 333 1278 b 506 1101 338 1163 407 1101 z m 207 0 l 794 838 l 797 838 l 797 0 l 897 0 l 897 993 l 797 993 l 210 154 l 207 154 l 207 993 l 106 993 l 106 0 z "},"Ѝ":{"ha":1004,"x_min":0,"x_max":0,"o":"m 539 1108 l 463 1292 l 353 1292 l 464 1108 z m 207 0 l 794 838 l 797 838 l 797 0 l 897 0 l 897 993 l 797 993 l 210 154 l 207 154 l 207 993 l 106 993 l 106 0 z "},"К":{"ha":853,"x_min":0,"x_max":0,"o":"m 843 993 l 732 993 l 353 528 l 207 528 l 207 993 l 106 993 l 106 0 l 207 0 l 207 440 l 350 440 l 740 0 l 868 0 l 433 489 z "},"Ќ":{"ha":853,"x_min":0,"x_max":0,"o":"m 478 1292 l 392 1108 l 467 1108 l 586 1292 z m 843 993 l 732 993 l 353 528 l 207 528 l 207 993 l 106 993 l 106 0 l 207 0 l 207 440 l 350 440 l 740 0 l 868 0 l 433 489 z "},"Л":{"ha":893,"x_min":0,"x_max":0,"o":"m 89 -21 b 297 228 217 -21 289 42 l 325 904 l 686 904 l 686 0 l 788 0 l 788 993 l 225 993 l 197 224 b 81 69 193 103 151 69 b 1 83 51 69 21 76 l 1 -4 b 89 -21 22 -15 60 -21 z "},"М":{"ha":1165,"x_min":0,"x_max":0,"o":"m 207 0 l 207 850 l 210 850 l 536 0 l 628 0 l 956 850 l 958 850 l 958 0 l 1060 0 l 1060 993 l 919 993 l 583 136 l 581 136 l 246 993 l 106 993 l 106 0 z "},"Н":{"ha":976,"x_min":0,"x_max":0,"o":"m 207 0 l 207 475 l 769 475 l 769 0 l 869 0 l 869 993 l 769 993 l 769 564 l 207 564 l 207 993 l 106 993 l 106 0 z "},"О":{"ha":1065,"x_min":0,"x_max":0,"o":"m 533 -18 b 1010 497 819 -18 1010 199 b 533 1011 1010 796 819 1011 b 56 497 246 1011 56 796 b 533 -18 56 199 246 -18 z m 533 71 b 161 497 288 71 161 263 b 533 922 161 732 288 922 b 904 497 778 922 904 732 b 533 71 904 263 778 71 z "},"П":{"ha":949,"x_min":0,"x_max":0,"o":"m 207 0 l 207 904 l 742 904 l 742 0 l 842 0 l 842 993 l 106 993 l 106 0 z "},"Р":{"ha":840,"x_min":0,"x_max":0,"o":"m 207 0 l 207 419 l 488 419 b 808 707 671 419 808 499 b 488 993 808 915 671 993 l 106 993 l 106 0 z m 207 508 l 207 904 l 497 904 b 703 707 632 904 703 842 b 497 508 703 571 632 508 z "},"С":{"ha":968,"x_min":0,"x_max":0,"o":"m 511 -18 b 925 353 747 -18 901 136 l 819 353 b 511 71 808 215 721 71 b 161 496 272 71 161 274 b 511 922 161 718 271 922 b 815 676 714 922 796 788 l 921 676 b 513 1011 896 863 744 1011 b 56 496 240 1011 56 796 b 511 -18 56 194 242 -18 z "},"Т":{"ha":817,"x_min":0,"x_max":0,"o":"m 458 0 l 458 904 l 797 904 l 797 993 l 21 993 l 21 904 l 358 904 l 358 0 z "},"У":{"ha":803,"x_min":0,"x_max":0,"o":"m 313 0 l 786 993 l 682 993 l 400 396 l 397 396 l 129 993 l 21 993 l 344 283 l 211 0 z "},"Ў":{"ha":803,"x_min":0,"x_max":0,"o":"m 410 1101 b 582 1278 510 1101 576 1165 l 511 1278 b 410 1169 506 1208 474 1169 b 307 1278 346 1169 314 1208 l 238 1278 b 410 1101 242 1163 311 1101 z m 313 0 l 786 993 l 682 993 l 400 396 l 397 396 l 129 993 l 21 993 l 344 283 l 211 0 z "},"Ф":{"ha":989,"x_min":0,"x_max":0,"o":"m 940 490 b 542 854 940 701 788 839 l 542 993 l 442 993 l 442 854 b 49 490 199 836 49 699 b 442 129 49 283 199 147 l 442 0 l 542 0 l 542 129 b 940 490 788 144 940 281 z m 542 775 b 840 490 726 760 840 651 b 542 208 840 331 726 224 z m 149 490 b 442 774 149 650 260 757 l 442 210 b 149 490 260 226 149 332 z "},"Х":{"ha":796,"x_min":0,"x_max":0,"o":"m 119 0 l 393 435 l 394 435 l 675 0 l 794 0 l 457 508 l 778 993 l 665 993 l 401 582 l 400 582 l 136 993 l 22 993 l 342 510 l -1 0 z "},"Ч":{"ha":811,"x_min":0,"x_max":0,"o":"m 706 0 l 706 993 l 604 993 l 604 542 b 371 413 546 464 489 413 b 164 628 242 413 164 490 l 164 993 l 64 993 l 64 628 b 351 324 64 431 182 324 b 601 444 460 324 553 379 l 604 444 l 604 0 z "},"Ц":{"ha":969,"x_min":0,"x_max":0,"o":"m 925 -181 l 925 89 l 828 89 l 828 992 l 728 992 l 728 89 l 207 89 l 207 992 l 106 992 l 106 -1 l 829 -1 l 829 -181 z "},"Ш":{"ha":1176,"x_min":0,"x_max":0,"o":"m 1069 -1 l 1069 992 l 969 992 l 969 89 l 639 89 l 639 992 l 538 992 l 538 89 l 207 89 l 207 992 l 106 992 l 106 -1 z "},"Щ":{"ha":1210,"x_min":0,"x_max":0,"o":"m 1165 -181 l 1165 89 l 1069 89 l 1069 992 l 969 992 l 969 89 l 639 89 l 639 992 l 538 992 l 538 89 l 207 89 l 207 992 l 106 992 l 106 -1 l 1071 -1 l 1071 -181 z "},"Џ":{"ha":935,"x_min":0,"x_max":0,"o":"m 515 -181 l 515 -1 l 828 -1 l 828 992 l 728 992 l 728 89 l 207 89 l 207 992 l 106 992 l 106 -1 l 421 -1 l 421 -181 z "},"Ь":{"ha":829,"x_min":0,"x_max":0,"o":"m 468 0 b 796 308 672 0 796 118 b 481 608 796 500 678 608 l 207 608 l 207 993 l 106 993 l 106 0 z m 207 519 l 486 519 b 690 308 614 519 690 436 b 472 89 690 174 608 89 l 207 89 z "},"Ы":{"ha":1085,"x_min":0,"x_max":0,"o":"m 421 0 b 749 308 625 0 749 118 b 433 608 749 500 631 608 l 207 608 l 207 993 l 106 993 l 106 0 z m 979 0 l 979 993 l 878 993 l 878 0 z m 207 519 l 439 519 b 643 308 567 519 643 436 b 425 89 643 174 561 89 l 207 89 z "},"Ъ":{"ha":908,"x_min":0,"x_max":0,"o":"m 547 0 b 875 308 751 0 875 118 b 560 608 875 500 756 608 l 286 608 l 286 993 l 13 993 l 13 904 l 185 904 l 185 0 z m 286 519 l 565 519 b 769 308 693 519 769 436 b 551 89 769 174 688 89 l 286 89 z "},"Љ":{"ha":1264,"x_min":0,"x_max":0,"o":"m 89 -21 b 297 228 217 -21 289 42 l 325 904 l 621 904 l 621 0 l 903 0 b 1231 308 1106 0 1231 118 b 915 608 1231 500 1111 608 l 722 608 l 722 993 l 225 993 l 197 224 b 81 69 193 103 151 69 b 1 83 51 69 21 76 l 1 -4 b 89 -21 22 -15 60 -21 z m 722 519 l 921 519 b 1125 308 1049 519 1125 436 b 906 89 1125 174 1043 89 l 722 89 z "},"Њ":{"ha":1306,"x_min":0,"x_max":0,"o":"m 207 0 l 207 494 l 664 494 l 664 0 l 946 0 b 1274 296 1149 0 1274 106 b 958 583 1274 476 1154 583 l 765 583 l 765 993 l 664 993 l 664 583 l 207 583 l 207 993 l 106 993 l 106 0 z m 765 494 l 964 494 b 1168 296 1092 494 1168 424 b 949 89 1168 160 1086 89 l 765 89 z "},"Ѕ":{"ha":856,"x_min":0,"x_max":0,"o":"m 463 -18 b 810 271 699 -18 810 110 b 449 567 810 472 653 522 b 185 760 303 599 185 626 b 410 922 185 863 264 922 b 671 707 578 922 654 844 l 776 707 b 410 1011 761 901 625 1011 b 79 756 206 1011 79 914 b 399 486 79 574 236 524 b 704 268 603 440 706 415 b 458 71 704 158 642 71 b 143 329 251 71 157 175 l 38 329 b 463 -18 51 106 224 -18 z "},"Є":{"ha":951,"x_min":0,"x_max":0,"o":"m 803 315 b 506 71 790 176 681 71 b 164 451 314 71 181 213 l 564 451 l 564 540 l 164 540 b 510 922 178 776 315 922 b 799 714 676 922 774 833 l 904 714 b 510 1011 878 889 731 1011 b 57 500 240 1011 57 818 b 506 -18 57 172 238 -18 b 908 315 743 -18 894 122 z "},"Э":{"ha":950,"x_min":0,"x_max":0,"o":"m 442 1011 b 46 714 221 1011 72 889 l 151 714 b 440 922 176 833 274 922 b 786 540 636 922 772 776 l 386 540 l 386 451 l 786 451 b 449 71 771 213 640 71 b 147 315 274 71 160 176 l 42 315 b 449 -18 56 122 211 -18 b 893 500 717 -18 893 172 b 442 1011 893 818 711 1011 z "},"І":{"ha":313,"x_min":0,"x_max":0,"o":"m 207 0 l 207 993 l 106 993 l 106 0 z "},"Ї":{"ha":313,"x_min":0,"x_max":0,"o":"m 111 1135 l 111 1251 l -6 1251 l -6 1135 z m 318 1135 l 318 1251 l 201 1251 l 201 1135 z m 207 0 l 207 993 l 106 993 l 106 0 z "},"Ј":{"ha":689,"x_min":0,"x_max":0,"o":"m 307 -18 b 589 288 515 -18 589 129 l 589 993 l 488 993 l 488 288 b 307 71 488 161 447 71 b 129 288 168 71 129 161 l 129 319 l 28 319 l 28 288 b 307 -18 28 129 99 -18 z "},"Ћ":{"ha":971,"x_min":0,"x_max":0,"o":"m 368 0 l 368 308 b 611 553 368 464 461 553 b 808 338 740 553 808 475 l 808 0 l 908 0 l 908 353 b 631 642 908 540 801 642 b 371 521 506 642 419 586 l 368 521 l 368 904 l 668 904 l 668 993 l 22 993 l 22 904 l 267 904 l 267 0 z "},"Ю":{"ha":1286,"x_min":0,"x_max":0,"o":"m 810 1011 b 393 544 565 1011 408 832 l 207 544 l 207 993 l 106 993 l 106 0 l 207 0 l 207 456 l 393 456 b 810 -18 407 164 564 -18 b 1228 497 1067 -18 1228 182 b 810 1011 1228 813 1067 1011 z m 810 71 b 497 497 618 71 497 235 b 810 922 497 760 618 922 b 1122 497 1001 922 1122 760 b 810 71 1122 235 1001 71 z "},"Я":{"ha":865,"x_min":0,"x_max":0,"o":"m 157 0 b 379 425 196 68 128 425 l 658 425 l 658 0 l 760 0 l 760 993 l 413 993 b 75 708 201 993 75 893 b 260 475 75 588 150 504 l 260 472 b 47 8 32 429 96 47 l 47 0 z m 424 514 b 178 713 268 514 178 586 b 415 904 178 839 250 904 l 658 904 l 658 514 z "},"Ђ":{"ha":974,"x_min":0,"x_max":0,"o":"m 757 -253 b 908 -96 842 -253 908 -208 l 908 381 b 631 669 908 568 801 669 b 371 549 506 669 419 614 l 368 549 l 368 904 l 668 904 l 668 993 l 22 993 l 22 904 l 267 904 l 267 0 l 368 0 l 368 336 b 611 581 368 492 461 581 b 808 365 740 581 808 503 l 808 -81 b 743 -165 808 -144 782 -165 b 675 -157 722 -165 697 -162 l 675 -244 b 757 -253 696 -250 722 -253 z "},"Җ":{"ha":1256,"x_min":0,"x_max":0,"o":"m 881 490 l 1238 993 l 1132 993 l 801 528 l 678 528 l 678 993 l 578 993 l 578 528 l 457 528 l 128 993 l 19 993 l 376 490 l -6 0 l 117 0 l 457 440 l 578 440 l 578 0 l 678 0 l 678 440 l 799 440 l 1139 0 l 1182 0 l 1182 -181 l 1278 -181 l 1278 65 l 1210 65 z "},"Қ":{"ha":853,"x_min":0,"x_max":0,"o":"m 433 489 l 843 993 l 732 993 l 353 528 l 207 528 l 207 993 l 106 993 l 106 0 l 207 0 l 207 440 l 350 440 l 740 0 l 788 0 l 788 -181 l 883 -181 l 883 65 l 810 65 z "},"Ң":{"ha":976,"x_min":0,"x_max":0,"o":"m 869 993 l 769 993 l 769 564 l 207 564 l 207 993 l 106 993 l 106 0 l 207 0 l 207 475 l 769 475 l 769 0 l 819 0 l 819 -181 l 915 -181 l 915 65 l 869 65 z "},"Ү":{"ha":858,"x_min":0,"x_max":0,"o":"m 479 0 l 479 407 l 843 993 l 735 993 l 431 486 l 428 486 l 125 993 l 15 993 l 378 407 l 378 0 z "},"Ұ":{"ha":853,"x_min":0,"x_max":0,"o":"m 842 993 l 732 993 l 429 486 l 425 486 l 124 993 l 14 993 l 376 407 l 376 354 l 142 354 l 142 275 l 376 275 l 376 0 l 476 0 l 476 275 l 706 275 l 706 354 l 476 354 l 476 407 z "},"Ҳ":{"ha":796,"x_min":0,"x_max":0,"o":"m 457 508 l 778 993 l 665 993 l 401 582 l 400 582 l 136 993 l 22 993 l 342 510 l -1 0 l 119 0 l 393 435 l 394 435 l 675 0 l 719 0 l 719 -181 l 815 -181 l 815 65 l 751 65 z "},"Ҷ":{"ha":811,"x_min":0,"x_max":0,"o":"m 706 993 l 604 993 l 604 542 b 371 413 546 464 489 413 b 164 628 242 413 164 490 l 164 993 l 64 993 l 64 628 b 351 324 64 431 182 324 b 601 444 460 324 553 379 l 604 444 l 604 0 l 664 0 l 664 -181 l 760 -181 l 760 65 l 706 65 z "},"Һ":{"ha":826,"x_min":0,"x_max":0,"o":"m 207 0 l 207 350 b 450 594 207 506 300 594 b 661 379 593 594 661 517 l 661 0 l 761 0 l 761 394 b 469 683 761 582 654 683 b 210 563 344 683 258 628 l 207 563 l 207 994 l 106 994 l 106 0 z "},"Ә":{"ha":1000,"x_min":0,"x_max":0,"o":"m 506 1011 b 78 703 289 1011 110 888 l 183 703 b 494 922 206 826 328 922 b 839 522 692 922 831 764 l 57 522 b 54 453 54 500 54 476 b 497 -19 54 179 233 -19 b 944 499 763 -19 944 192 b 506 1011 944 792 767 1011 z m 503 69 b 161 433 289 69 161 219 l 836 433 b 503 69 815 217 694 69 z "},"Ӣ":{"ha":1004,"x_min":0,"x_max":0,"o":"m 679 1142 l 679 1221 l 333 1221 l 333 1142 z m 207 0 l 794 838 l 797 838 l 797 0 l 897 0 l 897 993 l 797 993 l 210 154 l 207 154 l 207 993 l 106 993 l 106 0 z "},"Ө":{"ha":1065,"x_min":0,"x_max":0,"o":"m 533 1011 b 56 497 246 1011 56 796 b 533 -18 56 199 246 -18 b 1010 497 819 -18 1010 199 b 533 1011 1010 796 819 1011 z m 533 922 b 903 542 763 922 888 756 l 163 542 b 533 922 178 756 303 922 z m 533 71 b 163 453 303 71 178 239 l 903 453 b 533 71 888 239 763 71 z "},"Ӯ":{"ha":803,"x_min":0,"x_max":0,"o":"m 583 1142 l 583 1221 l 238 1221 l 238 1142 z m 313 0 l 786 993 l 682 993 l 400 396 l 397 396 l 129 993 l 21 993 l 344 283 l 211 0 z "},"а":{"ha":714,"x_min":0,"x_max":0,"o":"m 278 -18 b 526 107 393 -18 478 26 l 529 107 b 629 -6 535 18 569 -6 b 676 0 646 -6 661 -3 l 676 65 b 657 64 668 64 663 64 b 617 147 625 64 617 90 l 617 501 b 371 726 617 671 501 726 b 79 494 165 726 86 619 l 175 494 b 368 647 182 599 231 647 b 529 526 482 647 529 599 b 338 413 529 442 454 433 b 46 179 154 381 46 332 b 278 -18 46 61 136 -18 z m 289 61 b 140 188 186 61 140 106 b 349 338 140 278 211 313 b 529 397 433 351 508 368 l 529 265 b 289 61 529 138 433 61 z "},"б":{"ha":746,"x_min":0,"x_max":0,"o":"m 385 -19 b 700 361 590 -19 700 146 b 411 726 700 583 594 726 b 149 567 276 726 188 647 l 146 567 b 338 811 165 682 217 786 l 525 850 b 681 994 614 868 681 913 l 582 994 b 463 924 582 969 549 940 l 324 896 b 60 406 118 857 60 656 b 385 -19 60 124 185 -19 z m 385 60 b 165 363 238 60 165 189 b 388 647 165 515 242 647 b 606 361 531 647 606 529 b 385 60 606 190 531 60 z "},"в":{"ha":663,"x_min":0,"x_max":0,"o":"m 392 0 b 619 199 532 0 619 75 b 465 367 619 290 554 353 l 465 369 b 589 525 533 389 589 450 b 371 708 589 636 513 708 l 83 708 l 83 0 z m 174 629 l 365 629 b 494 518 447 629 494 589 b 374 397 494 453 443 397 l 174 397 z m 174 324 l 388 324 b 525 200 467 324 525 279 b 383 79 525 124 475 79 l 174 79 z "},"г":{"ha":538,"x_min":0,"x_max":0,"o":"m 174 0 l 174 629 l 521 629 l 521 708 l 83 708 l 83 0 z "},"ѓ":{"ha":538,"x_min":0,"x_max":0,"o":"m 331 824 l 450 1007 l 342 1007 l 256 824 z m 174 0 l 174 629 l 521 629 l 521 708 l 83 708 l 83 0 z "},"ґ":{"ha":538,"x_min":0,"x_max":0,"o":"m 174 0 l 174 629 l 521 629 l 521 861 l 442 861 l 442 708 l 83 708 l 83 0 z "},"ғ":{"ha":575,"x_min":0,"x_max":0,"o":"m 558 708 l 121 708 l 121 393 l 4 393 l 4 325 l 121 325 l 121 0 l 211 0 l 211 325 l 447 325 l 447 393 l 211 393 l 211 629 l 558 629 z "},"д":{"ha":736,"x_min":0,"x_max":0,"o":"m 617 708 l 167 708 l 135 201 b 57 79 129 133 100 79 l 10 79 l 10 -181 l 89 -181 l 89 0 l 625 0 l 625 -181 l 703 -181 l 703 79 l 617 79 z m 182 82 b 224 207 207 108 221 150 l 250 629 l 528 629 l 528 79 l 182 79 z "},"е":{"ha":746,"x_min":0,"x_max":0,"o":"m 703 386 b 383 726 703 583 588 726 b 46 354 179 726 46 581 b 383 -19 46 139 167 -19 b 693 217 561 -19 658 88 l 601 217 b 385 58 588 158 531 58 b 140 336 218 58 142 193 l 701 336 b 703 386 703 347 703 367 z m 140 415 b 379 649 147 547 242 649 b 607 415 525 649 607 542 z "},"ѐ":{"ha":746,"x_min":0,"x_max":0,"o":"m 333 1010 l 224 1010 l 335 826 l 410 826 z m 703 386 b 383 726 703 583 588 726 b 46 354 179 726 46 581 b 383 -19 46 139 167 -19 b 693 217 561 -19 658 88 l 601 217 b 385 58 588 158 531 58 b 140 336 218 58 142 193 l 701 336 b 703 386 703 347 703 367 z m 140 415 b 379 649 147 547 242 649 b 607 415 525 649 607 542 z "},"ё":{"ha":746,"x_min":0,"x_max":0,"o":"m 215 969 l 215 853 l 332 853 l 332 969 z m 422 969 l 422 853 l 539 853 l 539 969 z m 703 386 b 383 726 703 583 588 726 b 46 354 179 726 46 581 b 383 -19 46 139 167 -19 b 693 217 561 -19 658 88 l 601 217 b 385 58 588 158 531 58 b 140 336 218 58 142 193 l 701 336 b 703 386 703 347 703 367 z m 140 415 b 379 649 147 547 242 649 b 607 415 525 649 607 542 z "},"ж":{"ha":890,"x_min":0,"x_max":0,"o":"m 115 0 l 324 310 l 400 310 l 400 0 l 490 0 l 490 310 l 564 310 l 772 0 l 883 0 l 643 353 l 883 708 l 783 708 l 568 389 l 490 389 l 490 708 l 400 708 l 400 389 l 322 389 l 107 708 l 6 708 l 247 353 l 7 0 z "},"з":{"ha":621,"x_min":0,"x_max":0,"o":"m 299 -18 b 576 199 469 -18 576 63 b 440 360 576 276 519 339 l 440 361 b 556 526 508 388 556 449 b 303 726 556 653 453 726 b 42 510 147 726 42 640 l 133 510 b 303 647 133 590 196 647 b 464 522 404 647 464 603 b 333 397 464 444 417 397 l 239 397 l 239 318 l 338 318 b 481 199 422 318 481 274 b 311 60 481 111 418 60 b 125 206 194 60 125 119 l 35 206 b 299 -18 35 71 136 -18 z "},"и":{"ha":772,"x_min":0,"x_max":0,"o":"m 174 0 l 599 578 l 599 0 l 689 0 l 689 708 l 599 708 l 174 131 l 174 708 l 83 708 l 83 0 z "},"й":{"ha":772,"x_min":0,"x_max":0,"o":"m 392 817 b 564 993 492 817 558 881 l 493 993 b 392 885 488 924 456 885 b 289 993 328 885 296 924 l 219 993 b 392 817 224 878 293 817 z m 174 0 l 599 578 l 599 0 l 689 0 l 689 708 l 599 708 l 174 131 l 174 708 l 83 708 l 83 0 z "},"ѝ":{"ha":772,"x_min":0,"x_max":0,"o":"m 424 824 l 347 1007 l 238 1007 l 349 824 z m 174 0 l 599 578 l 599 0 l 689 0 l 689 708 l 599 708 l 174 131 l 174 708 l 83 708 l 83 0 z "},"к":{"ha":632,"x_min":0,"x_max":0,"o":"m 632 708 l 526 708 l 283 389 l 174 389 l 174 708 l 83 708 l 83 0 l 174 0 l 174 310 l 279 310 l 525 0 l 640 0 l 360 351 z "},"ќ":{"ha":632,"x_min":0,"x_max":0,"o":"m 378 1007 l 292 824 l 367 824 l 486 1007 z m 632 708 l 526 708 l 283 389 l 174 389 l 174 708 l 83 708 l 83 0 l 174 0 l 174 310 l 279 310 l 525 0 l 640 0 l 360 351 z "},"л":{"ha":690,"x_min":0,"x_max":0,"o":"m 79 -19 b 215 143 153 -19 210 25 l 240 629 l 517 629 l 517 0 l 607 0 l 607 708 l 154 708 l 126 154 b 65 60 122 85 106 60 b 7 69 42 60 26 63 l 7 -8 b 79 -19 26 -15 53 -19 z "},"м":{"ha":913,"x_min":0,"x_max":0,"o":"m 174 0 l 174 554 l 176 554 l 417 1 l 493 1 l 736 554 l 739 554 l 739 0 l 829 0 l 829 708 l 715 708 l 460 129 l 457 129 l 201 708 l 83 708 l 83 0 z "},"н":{"ha":749,"x_min":0,"x_max":0,"o":"m 575 400 l 174 400 l 174 708 l 83 708 l 83 0 l 174 0 l 174 321 l 575 321 l 575 0 l 665 0 l 665 708 l 575 708 z "},"о":{"ha":769,"x_min":0,"x_max":0,"o":"m 385 -19 b 725 353 597 -19 725 133 b 385 726 725 574 597 726 b 44 353 172 726 44 574 b 385 -19 44 133 172 -19 z m 385 60 b 139 353 219 60 139 190 b 385 647 139 517 219 647 b 631 353 550 647 631 517 b 385 60 631 190 550 60 z "},"п":{"ha":735,"x_min":0,"x_max":0,"o":"m 174 0 l 174 629 l 561 629 l 561 0 l 651 0 l 651 708 l 83 708 l 83 0 z "},"р":{"ha":774,"x_min":0,"x_max":0,"o":"m 415 726 b 176 594 292 726 218 663 l 174 594 l 174 708 l 83 708 l 83 -246 l 174 -246 l 174 119 l 176 119 b 415 -17 218 44 292 -17 b 728 354 589 -17 728 122 b 415 726 728 588 589 726 z m 406 63 b 174 354 269 63 174 176 b 406 647 174 533 269 647 b 633 354 553 647 633 514 b 406 63 633 196 553 63 z "},"с":{"ha":725,"x_min":0,"x_max":0,"o":"m 383 -18 b 688 253 556 -18 678 100 l 593 253 b 383 60 588 167 532 60 b 139 354 210 60 139 208 b 383 646 139 499 210 646 b 593 460 531 646 588 539 l 688 460 b 383 725 672 610 556 725 b 44 354 181 725 44 575 b 383 -18 44 132 181 -18 z "},"т":{"ha":606,"x_min":0,"x_max":0,"o":"m 349 0 l 349 629 l 589 629 l 589 708 l 17 708 l 17 629 l 258 629 l 258 0 z "},"у":{"ha":668,"x_min":0,"x_max":0,"o":"m 146 -249 b 372 -21 240 -249 303 -197 l 656 708 l 558 708 l 339 118 l 336 118 l 106 708 l 6 708 l 292 4 b 132 -169 253 -126 199 -169 b 78 -165 110 -169 99 -168 l 78 -243 b 146 -249 107 -247 124 -249 z "},"ў":{"ha":668,"x_min":0,"x_max":0,"o":"m 331 817 b 503 993 431 817 497 881 l 432 993 b 331 885 426 924 394 885 b 228 993 267 885 235 924 l 158 993 b 331 817 163 878 232 817 z m 146 -249 b 372 -21 240 -249 303 -197 l 656 708 l 558 708 l 339 118 l 336 118 l 106 708 l 6 708 l 292 4 b 132 -169 253 -126 199 -169 b 78 -165 110 -169 99 -168 l 78 -243 b 146 -249 107 -247 124 -249 z "},"ф":{"ha":872,"x_min":0,"x_max":0,"o":"m 828 354 b 479 725 828 568 689 707 l 479 993 l 389 993 l 389 725 b 44 354 181 707 44 568 b 389 -18 44 140 181 0 l 389 -246 l 479 -246 l 479 -18 b 828 354 689 0 828 140 z m 479 644 b 732 354 632 628 732 519 b 479 63 732 189 632 79 z m 139 354 b 389 644 139 518 239 626 l 389 63 b 139 354 239 81 139 190 z "},"х":{"ha":649,"x_min":0,"x_max":0,"o":"m 100 0 l 322 301 l 325 301 l 549 0 l 658 0 l 379 363 l 633 708 l 525 708 l 326 426 l 324 426 l 124 708 l 14 708 l 269 363 l -8 0 z "},"ч":{"ha":669,"x_min":0,"x_max":0,"o":"m 586 0 l 586 708 l 496 708 l 496 414 b 308 301 463 361 403 301 b 138 496 201 301 138 353 l 138 708 l 47 708 l 47 476 b 286 222 47 286 161 222 b 493 326 382 222 454 276 l 496 326 l 496 0 z "},"ц":{"ha":754,"x_min":0,"x_max":0,"o":"m 718 -181 l 718 79 l 638 79 l 638 708 l 547 708 l 547 79 l 174 79 l 174 708 l 83 708 l 83 0 l 638 0 l 638 -181 z "},"ш":{"ha":971,"x_min":0,"x_max":0,"o":"m 888 0 l 888 708 l 797 708 l 797 79 l 531 79 l 531 708 l 440 708 l 440 79 l 174 79 l 174 708 l 83 708 l 83 0 z "},"щ":{"ha":1004,"x_min":0,"x_max":0,"o":"m 968 -181 l 968 79 l 888 79 l 888 708 l 797 708 l 797 79 l 531 79 l 531 708 l 440 708 l 440 79 l 174 79 l 174 708 l 83 708 l 83 0 l 888 0 l 888 -181 z "},"џ":{"ha":721,"x_min":0,"x_max":0,"o":"m 403 -181 l 403 0 l 638 0 l 638 708 l 547 708 l 547 79 l 174 79 l 174 708 l 83 708 l 83 0 l 322 0 l 322 -181 z "},"ь":{"ha":611,"x_min":0,"x_max":0,"o":"m 354 0 b 583 215 494 0 583 85 b 356 432 583 347 499 432 l 174 432 l 174 708 l 83 708 l 83 0 z m 174 353 l 354 353 b 489 215 443 353 489 300 b 356 79 489 131 438 79 l 174 79 z "},"ы":{"ha":810,"x_min":0,"x_max":0,"o":"m 317 0 b 546 215 457 0 546 85 b 318 432 546 347 461 432 l 174 432 l 174 708 l 83 708 l 83 0 z m 726 0 l 726 708 l 636 708 l 636 0 z m 174 353 l 317 353 b 451 215 406 353 451 300 b 318 79 451 131 400 79 l 174 79 z "},"ъ":{"ha":675,"x_min":0,"x_max":0,"o":"m 418 0 b 649 215 558 0 649 85 b 419 432 649 347 563 432 l 238 432 l 238 708 l 13 708 l 13 628 l 147 628 l 147 0 z m 238 353 l 418 353 b 553 215 507 353 553 300 b 419 79 553 131 503 79 l 238 79 z "},"љ":{"ha":949,"x_min":0,"x_max":0,"o":"m 79 -19 b 215 143 153 -19 210 25 l 240 629 l 458 629 l 458 0 l 692 0 b 921 215 832 0 921 85 b 693 432 921 347 836 432 l 549 432 l 549 708 l 154 708 l 126 154 b 65 60 122 85 106 60 b 7 69 42 60 26 63 l 7 -8 b 79 -19 26 -15 53 -19 z m 549 353 l 692 353 b 826 215 781 353 826 300 b 693 79 826 131 775 79 l 549 79 z "},"њ":{"ha":967,"x_min":0,"x_max":0,"o":"m 567 418 l 567 708 l 476 708 l 476 418 l 174 418 l 174 708 l 83 708 l 83 0 l 174 0 l 174 339 l 476 339 l 476 0 l 710 0 b 939 208 850 0 939 78 b 711 418 939 340 854 418 z m 567 79 l 567 339 l 710 339 b 844 208 799 339 844 293 b 711 79 844 125 793 79 z "},"ѕ":{"ha":656,"x_min":0,"x_max":0,"o":"m 344 -18 b 622 196 519 -18 622 67 b 357 413 622 343 490 381 b 154 540 250 439 154 451 b 313 646 154 607 211 646 b 500 510 450 646 488 572 l 594 510 b 311 725 582 626 496 725 b 60 535 151 725 60 650 b 322 332 60 397 192 365 b 526 193 421 308 526 297 b 346 61 526 124 481 61 b 128 232 197 61 133 135 l 33 232 b 344 -18 38 90 146 -18 z "},"є":{"ha":700,"x_min":0,"x_max":0,"o":"m 369 60 b 140 313 232 60 151 158 l 419 313 l 419 392 l 140 392 b 376 646 153 553 238 646 b 571 494 492 646 557 581 l 665 494 b 376 725 647 631 542 725 b 44 351 172 725 44 572 b 369 -18 44 142 165 -18 b 665 217 539 -18 650 76 l 569 217 b 369 60 557 126 488 60 z "},"э":{"ha":701,"x_min":0,"x_max":0,"o":"m 332 725 b 35 494 169 725 53 631 l 129 494 b 332 646 143 581 218 646 b 560 392 468 646 549 556 l 281 392 l 281 313 l 560 313 b 342 60 550 156 472 60 b 131 217 221 60 144 126 l 36 217 b 342 -18 49 76 167 -18 b 656 350 539 -18 656 139 b 332 725 656 574 539 725 z "},"і":{"ha":257,"x_min":0,"x_max":0,"o":"m 186 850 l 186 967 l 69 967 l 69 850 z m 174 0 l 174 708 l 83 708 l 83 0 z "},"ї":{"ha":257,"x_min":0,"x_max":0,"o":"m 113 850 l 113 967 l -4 967 l -4 850 z m 263 850 l 263 967 l 146 967 l 146 850 z m 174 0 l 174 708 l 83 708 l 83 0 z "},"ј":{"ha":257,"x_min":0,"x_max":0,"o":"m 186 850 l 186 967 l 69 967 l 69 850 z m 35 -250 b 174 -68 110 -250 174 -206 l 174 708 l 83 708 l 83 -61 b 19 -171 83 -144 65 -171 b -33 -168 -1 -171 -12 -169 l -33 -244 b 35 -250 -6 -249 11 -250 z "},"ћ":{"ha":729,"x_min":0,"x_max":0,"o":"m 419 725 b 176 607 293 725 217 665 l 174 607 l 174 824 l 393 824 l 393 893 l 174 893 l 174 993 l 83 993 l 83 893 l -4 893 l -4 824 l 83 824 l 83 0 l 174 0 l 174 447 b 397 646 174 551 263 646 b 561 478 519 646 561 568 l 561 0 l 651 0 l 651 497 b 419 725 651 654 546 725 z "},"ю":{"ha":950,"x_min":0,"x_max":0,"o":"m 610 728 b 317 393 439 728 329 601 l 174 393 l 174 708 l 83 708 l 83 0 l 174 0 l 174 315 l 317 315 b 610 -19 329 108 440 -19 b 904 354 792 -19 904 125 b 610 728 904 585 792 728 z m 610 60 b 410 354 488 60 410 174 b 610 649 410 536 488 649 b 810 354 732 649 810 536 b 610 60 810 174 732 60 z "},"я":{"ha":651,"x_min":0,"x_max":0,"o":"m 136 0 b 293 286 161 40 114 286 l 478 286 l 478 0 l 568 0 l 568 708 l 313 708 b 57 499 144 708 57 626 b 188 328 57 410 111 346 l 188 326 b 36 6 28 296 65 31 l 36 0 z m 297 365 b 151 504 193 365 151 432 b 307 629 151 571 193 629 l 478 629 l 478 365 z "},"ђ":{"ha":729,"x_min":0,"x_max":0,"o":"m 503 -250 b 651 -69 583 -250 651 -206 l 651 497 b 419 725 651 654 546 725 b 176 607 293 725 217 665 l 174 607 l 174 824 l 393 824 l 393 893 l 174 893 l 174 993 l 83 993 l 83 893 l -4 893 l -4 824 l 83 824 l 83 0 l 174 0 l 174 447 b 397 646 174 551 263 646 b 561 478 519 646 561 568 l 561 -61 b 490 -171 561 -144 538 -171 b 415 -165 464 -171 438 -168 l 415 -242 b 503 -250 440 -246 469 -250 z "},"җ":{"ha":890,"x_min":0,"x_max":0,"o":"m 643 353 l 883 708 l 783 708 l 568 389 l 490 389 l 490 708 l 400 708 l 400 389 l 322 389 l 107 708 l 6 708 l 247 353 l 7 0 l 115 0 l 324 310 l 400 310 l 400 0 l 490 0 l 490 310 l 564 310 l 772 0 l 819 0 l 819 -181 l 899 -181 l 899 71 l 835 71 z "},"қ":{"ha":632,"x_min":0,"x_max":0,"o":"m 360 351 l 632 708 l 526 708 l 283 389 l 174 389 l 174 708 l 83 708 l 83 0 l 174 0 l 174 310 l 279 310 l 525 0 l 565 0 l 565 -181 l 644 -181 l 644 71 l 583 71 z "},"ң":{"ha":749,"x_min":0,"x_max":0,"o":"m 665 708 l 575 708 l 575 400 l 174 400 l 174 708 l 83 708 l 83 0 l 174 0 l 174 321 l 575 321 l 575 0 l 626 0 l 626 -181 l 706 -181 l 706 71 l 665 71 z "},"ү":{"ha":664,"x_min":0,"x_max":0,"o":"m 382 -246 l 382 51 l 656 708 l 558 708 l 340 164 l 338 164 l 106 708 l 4 708 l 292 51 l 292 -246 z "},"ұ":{"ha":664,"x_min":0,"x_max":0,"o":"m 656 708 l 558 708 l 340 164 l 338 164 l 106 708 l 4 708 l 292 51 l 292 -26 l 107 -26 l 107 -94 l 292 -94 l 292 -246 l 382 -246 l 382 -94 l 567 -94 l 567 -26 l 382 -26 l 382 51 z "},"ҳ":{"ha":649,"x_min":0,"x_max":0,"o":"m 379 363 l 633 708 l 525 708 l 326 426 l 324 426 l 124 708 l 14 708 l 269 363 l -8 0 l 100 0 l 322 301 l 325 301 l 549 0 l 588 0 l 588 -181 l 667 -181 l 667 71 l 604 71 z "},"ҷ":{"ha":669,"x_min":0,"x_max":0,"o":"m 586 708 l 496 708 l 496 414 b 308 301 463 361 403 301 b 138 496 201 301 138 353 l 138 708 l 47 708 l 47 476 b 286 222 47 286 161 222 b 493 326 382 222 454 276 l 496 326 l 496 0 l 536 0 l 536 -181 l 615 -181 l 615 71 l 586 71 z "},"һ":{"ha":729,"x_min":0,"x_max":0,"o":"m 419 725 b 176 607 293 725 217 665 l 174 607 l 174 993 l 83 993 l 83 0 l 174 0 l 174 447 b 397 646 174 551 263 646 b 561 478 519 646 561 568 l 561 0 l 651 0 l 651 497 b 419 725 651 654 546 725 z "},"ә":{"ha":725,"x_min":0,"x_max":0,"o":"m 363 725 b 54 506 200 725 81 638 l 149 506 b 363 646 168 592 246 646 b 583 388 486 646 574 556 l 49 388 b 44 331 46 364 44 347 b 363 -18 44 128 167 -18 b 681 354 561 -18 681 131 b 363 725 681 575 563 725 z m 363 60 b 139 308 213 60 139 174 l 583 308 b 363 60 571 144 492 60 z "},"ӣ":{"ha":772,"x_min":0,"x_max":0,"o":"m 564 857 l 564 936 l 218 936 l 218 857 z m 174 0 l 599 578 l 599 0 l 689 0 l 689 708 l 599 708 l 174 131 l 174 708 l 83 708 l 83 0 z "},"ө":{"ha":769,"x_min":0,"x_max":0,"o":"m 385 726 b 44 353 172 726 44 574 b 385 -19 44 133 172 -19 b 725 353 597 -19 725 133 b 385 726 725 574 597 726 z m 385 647 b 629 393 536 647 617 538 l 140 393 b 385 647 153 538 233 647 z m 385 60 b 140 314 233 60 153 169 l 629 314 b 385 60 617 169 536 60 z "},"ӯ":{"ha":668,"x_min":0,"x_max":0,"o":"m 504 857 l 504 936 l 158 936 l 158 857 z m 146 -249 b 372 -21 240 -249 303 -197 l 656 708 l 558 708 l 339 118 l 336 118 l 106 708 l 6 708 l 292 4 b 132 -169 253 -126 199 -169 b 78 -165 110 -169 99 -168 l 78 -243 b 146 -249 107 -247 124 -249 z "},"Δ":{"ha":876,"x_min":0,"x_max":0,"o":"m 376 993 l 28 88 l 28 0 l 849 0 l 849 88 l 499 993 z m 443 897 l 742 89 l 132 89 l 433 897 z "},"Ω":{"ha":1089,"x_min":0,"x_max":0,"o":"m 447 0 l 446 72 b 179 499 296 153 179 269 b 544 919 179 751 321 919 b 910 499 769 919 910 751 b 643 72 910 269 793 153 l 642 0 l 1036 0 l 1036 89 l 806 89 b 1015 515 931 175 1015 325 b 544 1011 1015 793 826 1011 b 74 515 263 1011 74 793 b 285 89 74 325 160 175 l 53 89 l 53 0 z "},"μ":{"ha":735,"x_min":0,"x_max":0,"o":"m 561 261 b 339 63 561 157 471 63 b 174 231 214 63 174 140 l 174 708 l 83 708 l 83 -246 l 174 -246 l 174 35 b 326 -17 214 0 268 -17 b 558 100 446 -17 519 42 l 561 100 l 561 0 l 651 0 l 651 708 l 561 708 z "},"π":{"ha":743,"x_min":0,"x_max":0,"o":"m 704 708 l 21 708 l 21 629 l 129 629 l 129 0 l 219 0 l 219 629 l 511 629 l 511 163 b 636 -8 511 26 551 -8 b 701 0 657 -8 685 -6 l 701 76 b 665 74 689 75 679 74 b 601 163 615 74 601 93 l 601 629 l 704 629 z "},"⓪":{"ha":1175,"x_min":0,"x_max":0,"o":"m 589 -18 b 1106 496 900 -18 1106 185 b 589 1011 1106 808 900 1011 b 71 496 276 1011 71 808 b 589 -18 71 185 276 -18 z m 589 61 b 161 496 331 61 161 233 b 589 932 161 760 331 932 b 1015 496 844 932 1015 760 b 589 61 1015 233 844 61 z m 589 203 b 815 496 746 203 815 339 b 589 789 815 653 746 789 b 361 496 432 789 361 654 b 589 203 361 338 432 203 z m 589 275 b 451 496 488 275 451 372 b 589 718 451 618 488 718 b 725 496 689 718 725 621 b 589 275 725 371 689 275 z "},"①":{"ha":1175,"x_min":0,"x_max":0,"o":"m 589 -18 b 1106 496 900 -18 1106 185 b 589 1011 1106 808 900 1011 b 71 496 276 1011 71 808 b 589 -18 71 185 276 -18 z m 589 61 b 161 496 331 61 161 233 b 589 932 161 760 331 932 b 1015 496 844 932 1015 760 b 589 61 1015 233 844 61 z m 557 215 l 646 215 l 646 779 l 572 779 b 439 679 569 710 526 681 l 439 608 b 557 636 485 608 531 611 z "},"②":{"ha":1175,"x_min":0,"x_max":0,"o":"m 589 -18 b 1106 496 900 -18 1106 185 b 589 1011 1106 808 900 1011 b 71 496 276 1011 71 808 b 589 -18 71 185 276 -18 z m 589 61 b 161 496 331 61 161 233 b 589 932 161 760 331 932 b 1015 496 844 932 1015 760 b 589 61 1015 233 844 61 z m 783 215 l 783 288 l 499 288 l 499 290 b 628 417 514 347 572 382 b 788 626 710 469 788 519 b 603 792 788 732 711 792 b 396 585 464 792 396 697 l 482 585 b 599 718 482 664 519 718 b 697 621 669 718 697 672 b 524 438 697 532 614 499 b 383 215 438 381 383 317 z "},"③":{"ha":1175,"x_min":0,"x_max":0,"o":"m 589 -18 b 1106 496 900 -18 1106 185 b 589 1011 1106 808 900 1011 b 71 496 276 1011 71 808 b 589 -18 71 185 276 -18 z m 589 61 b 161 496 331 61 161 233 b 589 932 161 760 331 932 b 1015 496 844 932 1015 760 b 589 61 1015 233 844 61 z m 599 203 b 801 371 717 203 801 263 b 694 511 801 438 769 488 l 694 513 b 781 636 751 536 781 578 b 597 790 781 735 694 790 b 389 610 460 790 389 713 l 475 610 b 592 717 475 669 507 717 b 692 628 660 717 692 679 b 592 542 692 569 651 542 l 546 542 l 546 474 l 594 474 b 710 374 656 474 710 447 b 592 275 710 313 674 275 b 460 407 497 275 460 326 l 372 407 b 599 203 372 278 454 203 z "},"④":{"ha":1175,"x_min":0,"x_max":0,"o":"m 589 -18 b 1106 496 900 -18 1106 185 b 589 1011 1106 808 900 1011 b 71 496 276 1011 71 808 b 589 -18 71 185 276 -18 z m 589 61 b 161 496 331 61 161 233 b 589 932 161 760 331 932 b 1015 496 844 932 1015 760 b 589 61 1015 233 844 61 z m 704 214 l 704 344 l 786 344 l 786 418 l 704 418 l 704 778 l 615 778 l 347 428 l 347 344 l 615 344 l 615 214 z m 615 672 l 615 418 l 424 418 z "},"⑤":{"ha":1175,"x_min":0,"x_max":0,"o":"m 589 -18 b 1106 496 900 -18 1106 185 b 589 1011 1106 808 900 1011 b 71 496 276 1011 71 808 b 589 -18 71 185 276 -18 z m 589 61 b 161 496 331 61 161 233 b 589 932 161 760 331 932 b 1015 496 844 932 1015 760 b 589 61 1015 233 844 61 z m 593 203 b 797 404 710 203 797 278 b 615 593 797 515 725 593 b 485 543 560 593 517 575 l 485 544 l 518 706 l 769 706 l 769 778 l 451 778 l 392 472 l 476 472 b 592 525 503 506 544 525 b 707 406 661 525 707 486 b 588 275 707 319 658 275 b 469 378 514 275 474 318 l 379 378 b 593 203 382 279 457 203 z "},"⑥":{"ha":1175,"x_min":0,"x_max":0,"o":"m 589 -18 b 1106 496 900 -18 1106 185 b 589 1011 1106 808 900 1011 b 71 496 276 1011 71 808 b 589 -18 71 185 276 -18 z m 589 61 b 161 496 331 61 161 233 b 589 932 161 760 331 932 b 1015 496 844 932 1015 760 b 589 61 1015 233 844 61 z m 597 203 b 801 399 724 203 801 288 b 614 588 801 508 726 588 b 467 506 550 588 493 558 l 464 506 l 464 518 b 597 719 464 650 507 719 b 693 638 654 719 688 688 l 785 638 b 599 790 772 725 700 790 b 375 489 458 790 375 685 b 597 203 375 322 436 203 z m 593 274 b 474 392 517 274 474 326 b 597 517 474 469 526 517 b 713 394 668 517 713 469 b 593 274 713 325 669 274 z "},"⑦":{"ha":1175,"x_min":0,"x_max":0,"o":"m 589 -18 b 1106 496 900 -18 1106 185 b 589 1011 1106 808 900 1011 b 71 496 276 1011 71 808 b 589 -18 71 185 276 -18 z m 589 61 b 161 496 331 61 161 233 b 589 932 161 760 331 932 b 1015 496 844 932 1015 760 b 589 61 1015 233 844 61 z m 572 199 b 785 697 572 375 642 582 l 785 763 l 389 763 l 389 690 l 688 690 l 688 689 b 481 199 568 586 481 376 z "},"⑧":{"ha":1175,"x_min":0,"x_max":0,"o":"m 589 -18 b 1106 496 900 -18 1106 185 b 589 1011 1106 808 900 1011 b 71 496 276 1011 71 808 b 589 -18 71 185 276 -18 z m 589 61 b 161 496 331 61 161 233 b 589 932 161 760 331 932 b 1015 496 844 932 1015 760 b 589 61 1015 233 844 61 z m 588 203 b 804 372 707 203 804 261 b 696 517 804 449 754 492 l 696 518 b 778 640 736 539 778 575 b 588 790 778 735 696 790 b 397 640 481 790 397 735 b 482 518 397 578 436 540 l 482 517 b 371 372 426 494 371 453 b 588 203 371 261 469 203 z m 588 547 b 482 635 522 547 482 579 b 588 724 482 690 522 724 b 693 635 653 724 693 690 b 588 547 693 579 654 547 z m 588 272 b 460 379 511 272 460 314 b 588 483 460 443 511 483 b 715 379 665 483 715 442 b 588 272 715 315 665 272 z "},"⑨":{"ha":1175,"x_min":0,"x_max":0,"o":"m 589 -18 b 1106 496 900 -18 1106 185 b 589 1011 1106 808 900 1011 b 71 496 276 1011 71 808 b 589 -18 71 185 276 -18 z m 589 61 b 161 496 331 61 161 233 b 589 932 161 760 331 932 b 1015 496 844 932 1015 760 b 589 61 1015 233 844 61 z m 576 203 b 799 504 715 203 799 310 b 578 790 799 669 738 790 b 375 593 451 790 375 706 b 561 404 375 483 450 404 b 710 488 626 404 683 435 l 711 488 l 711 471 b 578 272 711 360 678 272 b 482 356 515 272 488 311 l 390 356 b 576 203 403 268 475 203 z m 578 475 b 463 597 507 475 463 524 b 581 719 463 669 504 719 b 703 601 660 719 703 667 b 578 475 703 524 649 475 z "},"⁄":{"ha":261,"x_min":0,"x_max":0,"o":"m -135 0 l 494 993 l 392 993 l -237 0 z "},"½":{"ha":1060,"x_min":0,"x_max":0,"o":"m 150 429 l 238 429 l 238 993 l 164 993 b 32 893 161 924 118 894 l 32 822 b 150 850 78 822 122 825 z m 188 0 l 817 993 l 714 993 l 85 0 z m 1006 0 l 1006 72 l 719 72 l 719 75 b 849 201 735 132 793 167 b 1008 411 931 254 1008 304 b 824 576 1008 517 932 576 b 617 369 685 576 617 482 l 703 369 b 821 503 703 449 740 503 b 918 406 890 503 918 457 b 744 222 918 317 835 283 b 604 0 660 165 604 101 z "},"¼":{"ha":997,"x_min":0,"x_max":0,"o":"m 146 429 l 233 429 l 233 993 l 160 993 b 26 893 157 924 114 894 l 26 822 b 146 850 72 822 118 825 z m 182 0 l 811 993 l 708 993 l 79 0 z m 892 0 l 892 131 l 974 131 l 974 204 l 892 204 l 892 564 l 804 564 l 536 214 l 536 131 l 804 131 l 804 0 z m 804 458 l 804 204 l 611 204 z "},"¾":{"ha":1215,"x_min":0,"x_max":0,"o":"m 269 419 b 472 586 389 419 472 479 b 367 726 472 653 440 704 l 367 728 b 453 853 424 753 453 794 b 268 1007 453 950 365 1007 b 60 826 132 1007 60 929 l 147 826 b 264 933 147 886 178 933 b 363 844 332 933 363 896 b 263 757 363 785 324 757 l 217 757 l 217 689 l 265 689 b 381 589 326 689 381 664 b 264 492 381 529 344 492 b 131 622 169 492 131 543 l 43 622 b 269 419 43 494 125 419 z m 408 0 l 1038 993 l 935 993 l 306 0 z m 1106 0 l 1106 131 l 1186 131 l 1186 204 l 1106 204 l 1106 564 l 1017 564 l 749 214 l 749 131 l 1017 131 l 1017 0 z m 1017 458 l 1017 204 l 824 204 z "},"⅛":{"ha":1031,"x_min":0,"x_max":0,"o":"m 147 429 l 235 429 l 235 993 l 163 993 b 29 893 160 924 115 894 l 29 822 b 147 850 75 822 119 825 z m 185 0 l 814 993 l 711 993 l 82 0 z m 781 -11 b 997 158 900 -11 997 47 b 889 303 997 235 947 278 l 889 304 b 971 426 929 325 971 361 b 781 576 971 521 889 576 b 590 426 674 576 590 521 b 674 304 590 364 628 326 l 674 303 b 564 158 618 281 564 239 b 781 -11 564 47 663 -11 z m 781 333 b 674 421 715 333 674 365 b 781 510 674 476 715 510 b 886 421 844 510 886 476 b 781 333 886 365 846 333 z m 781 58 b 653 165 704 58 653 100 b 781 269 653 229 704 269 b 908 165 858 269 908 228 b 781 58 908 101 858 58 z "},"⅜":{"ha":1221,"x_min":0,"x_max":0,"o":"m 269 419 b 472 586 389 419 472 479 b 367 726 472 653 440 704 l 367 728 b 453 853 424 753 453 794 b 268 1007 453 950 365 1007 b 60 826 132 1007 60 929 l 147 826 b 264 933 147 886 178 933 b 363 844 332 933 363 896 b 263 757 363 785 324 757 l 217 757 l 217 689 l 265 689 b 381 589 326 689 381 664 b 264 492 381 529 344 492 b 131 622 169 492 131 543 l 43 622 b 269 419 43 494 125 419 z m 374 0 l 1003 993 l 900 993 l 271 0 z m 965 -11 b 1182 158 1085 -11 1182 47 b 1074 303 1182 235 1132 278 l 1074 304 b 1156 426 1114 325 1156 361 b 965 576 1156 521 1074 576 b 775 426 858 576 775 521 b 858 304 775 364 813 326 l 858 303 b 749 158 803 281 749 239 b 965 -11 749 47 847 -11 z m 965 333 b 858 421 900 333 858 365 b 965 510 858 476 900 510 b 1071 421 1029 510 1071 476 b 965 333 1071 365 1031 333 z m 965 58 b 838 165 889 58 838 100 b 965 269 838 229 889 269 b 1093 165 1043 269 1093 228 b 965 58 1093 101 1043 58 z "},"⅝":{"ha":1188,"x_min":0,"x_max":0,"o":"m 246 418 b 451 619 364 418 451 493 b 269 808 451 731 379 808 b 138 758 214 808 169 790 l 138 760 l 171 921 l 424 921 l 424 993 l 106 993 l 44 688 l 131 688 b 246 740 157 721 199 740 b 361 621 315 740 361 701 b 242 490 361 535 311 490 b 122 593 168 490 128 533 l 33 593 b 246 418 36 494 111 418 z m 344 0 l 974 993 l 871 993 l 242 0 z m 938 -11 b 1153 158 1057 -11 1153 47 b 1044 303 1153 235 1103 278 l 1044 304 b 1126 426 1086 325 1126 361 b 938 576 1126 521 1044 576 b 747 426 829 576 747 521 b 831 304 747 364 785 326 l 831 303 b 721 158 775 281 721 239 b 938 -11 721 47 818 -11 z m 938 333 b 831 421 872 333 831 365 b 938 510 831 476 872 510 b 1042 421 1001 510 1042 476 b 938 333 1042 365 1003 333 z m 938 58 b 810 165 861 58 810 100 b 938 269 810 229 860 269 b 1064 165 1014 269 1064 228 b 938 58 1064 101 1014 58 z "},"⅞":{"ha":1082,"x_min":0,"x_max":0,"o":"m 208 429 b 419 928 208 606 278 813 l 419 993 l 25 993 l 25 921 l 324 921 l 324 919 b 115 429 204 817 115 607 z m 210 0 l 839 993 l 736 993 l 107 0 z m 831 -11 b 1046 158 950 -11 1046 47 b 938 303 1046 235 996 278 l 938 304 b 1019 426 979 325 1019 361 b 831 576 1019 521 938 576 b 640 426 722 576 640 521 b 724 304 640 364 678 326 l 724 303 b 614 158 668 281 614 239 b 831 -11 614 47 711 -11 z m 831 333 b 724 421 765 333 724 365 b 831 510 724 476 765 510 b 935 421 894 510 935 476 b 831 333 935 365 896 333 z m 831 58 b 703 165 754 58 703 100 b 831 269 703 229 753 269 b 957 165 907 269 957 228 b 831 58 957 101 907 58 z "},"₀":{"ha":536,"x_min":0,"x_max":0,"o":"m 268 -150 b 496 143 426 -150 496 -14 b 268 436 496 300 426 436 b 40 143 111 436 40 301 b 268 -150 40 -15 111 -150 z m 268 -78 b 132 143 167 -78 132 19 b 268 365 132 265 167 365 b 404 143 369 365 404 268 b 268 -78 404 18 369 -78 z "},"₁":{"ha":292,"x_min":0,"x_max":0,"o":"m 135 -139 l 224 -139 l 224 425 l 150 425 b 17 325 147 356 104 326 l 17 254 b 135 282 63 254 108 257 z "},"₂":{"ha":474,"x_min":0,"x_max":0,"o":"m 431 -139 l 431 -67 l 146 -67 l 146 -64 b 275 63 160 -7 218 28 b 435 272 356 115 435 165 b 249 438 435 378 358 438 b 43 231 110 438 43 343 l 129 231 b 246 364 129 310 165 364 b 343 267 317 364 343 318 b 169 83 343 178 261 144 b 29 -139 85 26 29 -37 z "},"₃":{"ha":501,"x_min":0,"x_max":0,"o":"m 258 -150 b 461 18 378 -150 461 -90 b 356 158 461 85 429 135 l 356 160 b 442 283 413 183 442 225 b 257 438 442 382 354 438 b 49 257 121 438 49 360 l 136 257 b 253 364 136 317 167 364 b 351 275 321 364 351 326 b 251 189 351 217 313 189 l 206 189 l 206 121 l 254 121 b 369 21 315 121 369 94 b 253 -78 369 -40 333 -78 b 119 54 158 -78 119 -26 l 32 54 b 258 -150 32 -75 114 -150 z "},"₄":{"ha":496,"x_min":0,"x_max":0,"o":"m 385 -139 l 385 -8 l 467 -8 l 467 65 l 385 65 l 385 425 l 297 425 l 29 75 l 29 -8 l 297 -8 l 297 -139 z m 297 319 l 297 65 l 104 65 z "},"₅":{"ha":488,"x_min":0,"x_max":0,"o":"m 246 -150 b 450 51 363 -150 450 -75 b 268 240 450 163 378 240 b 138 190 213 240 169 222 l 138 192 l 171 353 l 422 353 l 422 425 l 104 425 l 44 119 l 129 119 b 244 172 156 153 197 172 b 360 53 314 172 360 133 b 240 -78 360 -33 311 -78 b 122 25 167 -78 126 -35 l 32 25 b 246 -150 35 -74 110 -150 z "},"₆":{"ha":507,"x_min":0,"x_max":0,"o":"m 265 -150 b 468 46 390 -150 468 -65 b 281 235 468 156 393 235 b 133 153 217 235 161 206 l 132 153 l 132 165 b 265 367 132 297 175 367 b 361 285 322 367 356 335 l 451 285 b 265 438 440 372 368 438 b 43 136 126 438 43 332 b 265 -150 43 -31 103 -150 z m 261 -79 b 142 39 185 -79 142 -26 b 265 164 142 117 194 164 b 381 42 336 164 381 117 b 261 -79 381 -28 338 -79 z "},"₇":{"ha":426,"x_min":0,"x_max":0,"o":"m 193 -139 b 406 360 193 38 263 244 l 406 425 l 10 425 l 10 353 l 308 353 l 308 351 b 101 -139 189 249 101 39 z "},"₈":{"ha":508,"x_min":0,"x_max":0,"o":"m 254 -150 b 471 19 374 -150 471 -92 b 363 164 471 96 421 139 l 363 165 b 444 288 403 186 444 222 b 254 438 444 382 363 438 b 64 288 147 438 64 382 b 147 165 64 225 101 188 l 147 164 b 38 19 92 142 38 100 b 254 -150 38 -92 136 -150 z m 254 194 b 147 282 189 194 147 226 b 254 371 147 338 189 371 b 360 282 318 371 360 338 b 254 194 360 226 319 194 z m 254 -81 b 126 26 178 -81 126 -39 b 254 131 126 90 178 131 b 382 26 332 131 382 89 b 254 -81 382 -37 332 -81 z "},"₉":{"ha":504,"x_min":0,"x_max":0,"o":"m 240 -150 b 463 151 379 -150 463 -43 b 242 438 463 317 400 438 b 39 240 115 438 39 353 b 225 51 39 131 114 51 b 374 135 289 51 346 82 l 375 135 l 375 118 b 240 -81 375 7 342 -81 b 144 3 179 -81 150 -42 l 54 3 b 240 -150 67 -85 139 -150 z m 240 122 b 126 244 171 122 126 171 b 244 367 126 317 168 367 b 367 249 322 367 367 314 b 240 122 367 171 313 122 z "},"⁰":{"ha":536,"x_min":0,"x_max":0,"o":"m 268 501 b 496 794 426 501 496 638 b 268 1088 496 951 426 1088 b 40 794 111 1088 40 953 b 268 501 40 636 111 501 z m 268 574 b 132 794 167 574 132 671 b 268 1017 132 917 167 1017 b 404 794 369 1017 404 919 b 268 574 404 669 369 574 z "},"¹":{"ha":292,"x_min":0,"x_max":0,"o":"m 135 506 l 224 506 l 224 1069 l 150 1069 b 17 969 147 1000 104 971 l 17 899 b 135 926 63 899 108 901 z "},"²":{"ha":474,"x_min":0,"x_max":0,"o":"m 431 504 l 431 576 l 146 576 l 146 579 b 275 706 160 636 218 671 b 435 915 356 758 435 808 b 249 1081 435 1021 358 1081 b 43 874 110 1081 43 986 l 129 874 b 246 1007 129 953 165 1007 b 343 910 317 1007 343 961 b 169 726 343 821 261 788 b 29 504 85 669 29 606 z "},"³":{"ha":501,"x_min":0,"x_max":0,"o":"m 258 503 b 461 671 378 503 461 563 b 356 811 461 738 429 788 l 356 813 b 442 936 413 836 442 878 b 257 1090 442 1035 354 1090 b 49 910 121 1090 49 1013 l 136 910 b 253 1017 136 969 167 1017 b 351 928 321 1017 351 979 b 251 842 351 869 313 842 l 206 842 l 206 774 l 254 774 b 369 674 315 774 369 747 b 253 575 369 613 333 575 b 119 707 158 575 119 626 l 32 707 b 258 503 32 578 114 503 z "},"⁴":{"ha":496,"x_min":0,"x_max":0,"o":"m 385 506 l 385 636 l 467 636 l 467 710 l 385 710 l 385 1069 l 297 1069 l 29 719 l 29 636 l 297 636 l 297 506 z m 297 964 l 297 710 l 104 710 z "},"⁵":{"ha":488,"x_min":0,"x_max":0,"o":"m 246 494 b 450 696 363 494 450 569 b 268 885 450 807 378 885 b 138 835 213 885 169 867 l 138 836 l 171 997 l 422 997 l 422 1069 l 104 1069 l 44 764 l 129 764 b 244 817 156 797 197 817 b 360 697 314 817 360 778 b 240 567 360 611 311 567 b 122 669 167 567 126 610 l 32 669 b 246 494 35 571 110 494 z "},"⁶":{"ha":507,"x_min":0,"x_max":0,"o":"m 265 499 b 468 694 390 499 468 583 b 281 883 468 804 393 883 b 133 801 217 883 161 854 l 132 801 l 132 814 b 265 1015 132 946 175 1015 b 361 933 322 1015 356 983 l 451 933 b 265 1086 440 1021 368 1086 b 43 785 126 1086 43 981 b 265 499 43 618 103 499 z m 261 569 b 142 688 185 569 142 622 b 265 813 142 765 194 813 b 381 690 336 813 381 765 b 261 569 381 621 338 569 z "},"⁷":{"ha":426,"x_min":0,"x_max":0,"o":"m 193 506 b 406 1004 193 682 263 889 l 406 1069 l 10 1069 l 10 997 l 308 997 l 308 996 b 101 506 189 893 101 683 z "},"⁸":{"ha":508,"x_min":0,"x_max":0,"o":"m 254 501 b 471 671 374 501 471 560 b 363 815 471 747 421 790 l 363 817 b 444 939 403 838 444 874 b 254 1089 444 1033 363 1089 b 64 939 147 1089 64 1033 b 147 817 64 876 101 839 l 147 815 b 38 671 92 793 38 751 b 254 501 38 560 136 501 z m 254 846 b 147 933 189 846 147 878 b 254 1022 147 989 189 1022 b 360 933 318 1022 360 989 b 254 846 360 878 319 846 z m 254 571 b 126 678 178 571 126 613 b 254 782 126 742 178 782 b 382 678 332 782 382 740 b 254 571 382 614 332 571 z "},"⁹":{"ha":504,"x_min":0,"x_max":0,"o":"m 240 503 b 463 804 379 503 463 610 b 242 1090 463 969 400 1090 b 39 893 115 1090 39 1006 b 225 704 39 783 114 704 b 374 788 289 704 346 735 l 375 788 l 375 771 b 240 572 375 660 342 572 b 144 656 179 572 150 611 l 54 656 b 240 503 67 568 139 503 z m 240 775 b 126 897 171 775 126 824 b 244 1019 126 969 168 1019 b 367 901 322 1019 367 967 b 240 775 367 824 313 775 z "},"﻿":{"ha":0,"x_min":0,"x_max":0,"o":""}," ":{"ha":1389,"x_min":0,"x_max":0,"o":""}," ":{"ha":1389,"x_min":0,"x_max":0,"o":""}," ":{"ha":694,"x_min":0,"x_max":0,"o":""}," ":{"ha":694,"x_min":0,"x_max":0,"o":""}," ":{"ha":931,"x_min":0,"x_max":0,"o":""}," ":{"ha":347,"x_min":0,"x_max":0,"o":""}," ":{"ha":58,"x_min":0,"x_max":0,"o":""}," ":{"ha":254,"x_min":0,"x_max":0,"o":""}," ":{"ha":232,"x_min":0,"x_max":0,"o":""}," ":{"ha":304,"x_min":0,"x_max":0,"o":""}," ":{"ha":174,"x_min":0,"x_max":0,"o":""}," ":{"ha":463,"x_min":0,"x_max":0,"o":""},"​":{"ha":0,"x_min":0,"x_max":0,"o":""},".":{"ha":254,"x_min":0,"x_max":0,"o":"m 185 0 l 185 117 l 68 117 l 68 0 z "},",":{"ha":253,"x_min":0,"x_max":0,"o":"m 68 -168 b 185 0 163 -139 185 -79 l 185 117 l 68 117 l 68 0 l 125 0 b 68 -108 126 -67 113 -92 z "},":":{"ha":267,"x_min":0,"x_max":0,"o":"m 192 424 l 192 540 l 75 540 l 75 424 z m 192 0 l 192 117 l 75 117 l 75 0 z "},";":{"ha":267,"x_min":0,"x_max":0,"o":"m 192 424 l 192 540 l 75 540 l 75 424 z m 75 -168 b 192 0 171 -139 192 -79 l 192 117 l 75 117 l 75 0 l 132 0 b 75 -108 133 -67 119 -92 z "},"…":{"ha":765,"x_min":0,"x_max":0,"o":"m 185 0 l 185 117 l 68 117 l 68 0 z m 440 0 l 440 117 l 324 117 l 324 0 z m 696 0 l 696 117 l 579 117 l 579 0 z "},"!":{"ha":289,"x_min":0,"x_max":0,"o":"m 172 256 l 196 693 l 196 993 l 92 993 l 92 693 l 115 256 z m 203 0 l 203 117 l 86 117 l 86 0 z "},"¡":{"ha":285,"x_min":0,"x_max":0,"o":"m 200 696 l 200 813 l 83 813 l 83 696 z m 194 -181 l 194 119 l 171 557 l 114 557 l 90 119 l 90 -181 z "},"?":{"ha":663,"x_min":0,"x_max":0,"o":"m 344 250 b 485 524 344 417 406 457 b 636 763 556 581 636 639 b 344 1011 636 913 519 1011 b 22 682 135 1011 22 868 l 124 682 b 347 921 124 850 221 921 b 535 761 467 921 535 857 b 407 568 535 667 475 624 b 243 250 315 493 243 432 z m 357 0 l 357 117 l 240 117 l 240 0 z "},"¿":{"ha":664,"x_min":0,"x_max":0,"o":"m 424 694 l 424 811 l 307 811 l 307 694 z m 318 -200 b 640 129 528 -200 640 -57 l 539 129 b 315 -110 539 -39 442 -110 b 128 50 196 -110 128 -46 b 256 243 128 144 189 188 b 419 561 347 318 419 381 l 319 561 b 178 288 319 394 257 354 b 26 49 108 231 26 172 b 318 -200 26 -101 143 -200 z "},"·":{"ha":264,"x_min":0,"x_max":0,"o":"m 190 290 l 190 407 l 74 407 l 74 290 z "},"•":{"ha":485,"x_min":0,"x_max":0,"o":"m 375 285 l 375 549 l 111 549 l 111 285 z "},"*":{"ha":611,"x_min":0,"x_max":0,"o":"m 306 699 l 429 538 l 488 579 l 367 733 l 556 794 l 531 856 l 342 797 l 343 993 l 267 993 l 268 797 l 81 856 l 56 794 l 244 733 l 124 579 l 182 538 z "},"#":{"ha":785,"x_min":0,"x_max":0,"o":"m 744 682 l 596 682 l 649 957 l 568 957 l 515 682 l 332 682 l 385 957 l 304 957 l 251 682 l 103 682 l 89 603 l 236 603 l 192 376 l 58 376 l 44 296 l 176 296 l 119 0 l 201 0 l 258 296 l 440 296 l 383 0 l 465 0 l 522 296 l 686 296 l 700 376 l 538 376 l 581 603 l 729 603 z m 274 376 l 317 603 l 500 603 l 456 376 z "},"/":{"ha":518,"x_min":0,"x_max":0,"o":"m 110 0 l 500 993 l 408 993 l 18 0 z "},"\\":{"ha":518,"x_min":0,"x_max":0,"o":"m 501 0 l 110 993 l 19 993 l 410 0 z "},"-":{"ha":488,"x_min":0,"x_max":0,"o":"m 429 310 l 429 399 l 57 399 l 57 310 z "},"­":{"ha":488,"x_min":0,"x_max":0,"o":"m 429 310 l 429 399 l 57 399 l 57 310 z "},"–":{"ha":810,"x_min":0,"x_max":0,"o":"m 751 310 l 751 399 l 57 399 l 57 310 z "},"—":{"ha":1501,"x_min":0,"x_max":0,"o":"m 1446 308 l 1446 399 l 57 399 l 57 308 z "},"_":{"ha":771,"x_min":0,"x_max":0,"o":"m 743 -194 l 743 -106 l 29 -106 l 29 -194 z "},"(":{"ha":347,"x_min":0,"x_max":0,"o":"m 324 -162 b 153 440 226 6 153 189 b 324 1049 153 697 226 881 l 242 1049 b 51 440 140 908 51 700 b 242 -162 51 189 140 -22 z "},")":{"ha":347,"x_min":0,"x_max":0,"o":"m 106 -162 b 296 446 207 -22 296 186 b 106 1049 296 697 207 908 l 24 1049 b 194 446 121 881 194 697 b 24 -162 194 189 121 6 z "},"{":{"ha":383,"x_min":0,"x_max":0,"o":"m 353 -162 l 353 -74 l 329 -74 b 224 88 256 -74 224 -39 l 224 292 b 140 442 224 372 190 414 l 140 444 b 224 593 190 472 224 514 l 224 804 b 329 960 224 926 256 960 l 353 960 l 353 1049 l 329 1049 b 124 792 181 1049 124 999 l 124 621 b 33 488 124 542 99 486 l 33 399 b 124 264 99 399 124 343 l 124 100 b 329 -162 124 -107 181 -162 z "},"}":{"ha":383,"x_min":0,"x_max":0,"o":"m 53 -162 b 260 94 201 -162 260 -112 l 260 265 b 349 399 260 344 285 400 l 349 488 b 260 622 285 488 260 543 l 260 786 b 53 1049 260 993 201 1049 l 31 1049 l 31 960 l 53 960 b 158 799 128 960 158 925 l 158 594 b 242 444 158 514 193 472 l 242 442 b 158 293 193 414 158 372 l 158 82 b 53 -74 158 -40 128 -74 l 31 -74 l 31 -162 z "},"[":{"ha":367,"x_min":0,"x_max":0,"o":"m 342 -162 l 342 -74 l 199 -74 l 199 960 l 342 960 l 342 1049 l 99 1049 l 99 -162 z "},"]":{"ha":367,"x_min":0,"x_max":0,"o":"m 269 -162 l 269 1049 l 26 1049 l 26 960 l 168 960 l 168 -74 l 26 -74 l 26 -162 z "},"‚":{"ha":253,"x_min":0,"x_max":0,"o":"m 68 -168 b 185 0 163 -139 185 -79 l 185 117 l 68 117 l 68 0 l 125 0 b 68 -108 126 -67 113 -92 z "},"„":{"ha":440,"x_min":0,"x_max":0,"o":"m 68 -168 b 185 0 163 -139 185 -79 l 185 117 l 68 117 l 68 0 l 125 0 b 68 -108 126 -67 113 -92 z m 254 -168 b 371 0 349 -139 371 -79 l 371 117 l 254 117 l 254 0 l 311 0 b 254 -108 313 -67 299 -92 z "},"“":{"ha":432,"x_min":0,"x_max":0,"o":"m 63 708 l 179 708 l 179 825 l 122 825 b 179 933 121 892 135 918 l 179 993 b 63 825 85 964 63 904 z m 307 825 b 364 933 307 892 319 918 l 364 993 b 249 825 269 964 249 904 l 249 708 l 365 708 l 365 825 z "},"”":{"ha":421,"x_min":0,"x_max":0,"o":"m 68 708 b 185 876 163 738 185 799 l 185 993 l 68 993 l 68 876 l 125 876 b 68 768 125 810 113 785 z m 253 708 b 369 876 347 738 369 799 l 369 993 l 253 993 l 253 876 l 310 876 b 253 768 311 810 297 785 z "},"‘":{"ha":246,"x_min":0,"x_max":0,"o":"m 179 993 b 63 825 85 964 63 904 l 63 708 l 179 708 l 179 825 l 122 825 b 179 933 121 892 135 918 z "},"’":{"ha":236,"x_min":0,"x_max":0,"o":"m 68 708 b 185 876 163 738 185 799 l 185 993 l 68 993 l 68 876 l 125 876 b 68 768 125 810 113 785 z "},"«":{"ha":640,"x_min":0,"x_max":0,"o":"m 333 189 l 115 360 l 115 363 l 333 533 l 333 638 l 61 415 l 61 307 l 333 83 z m 565 189 l 347 360 l 347 363 l 565 533 l 565 638 l 294 415 l 294 307 l 565 83 z "},"»":{"ha":640,"x_min":0,"x_max":0,"o":"m 346 306 l 346 415 l 74 638 l 74 533 l 292 363 l 292 360 l 74 188 l 74 83 z m 579 306 l 579 415 l 307 638 l 307 533 l 525 363 l 525 360 l 307 188 l 307 83 z "},"‹":{"ha":407,"x_min":0,"x_max":0,"o":"m 333 189 l 115 360 l 115 363 l 333 533 l 333 638 l 61 415 l 61 307 l 333 83 z "},"›":{"ha":407,"x_min":0,"x_max":0,"o":"m 346 306 l 346 415 l 74 638 l 74 533 l 292 363 l 292 360 l 74 188 l 74 83 z "},"\"":{"ha":415,"x_min":0,"x_max":0,"o":"m 149 664 l 160 993 l 67 993 l 78 664 z m 338 664 l 349 993 l 257 993 l 268 664 z "},"'":{"ha":226,"x_min":0,"x_max":0,"o":"m 149 664 l 160 993 l 67 993 l 78 664 z "},"ƒ":{"ha":631,"x_min":0,"x_max":0,"o":"m 539 1001 b 340 813 438 1001 369 967 l 306 639 l 178 639 l 175 560 l 290 560 l 189 51 b 86 -58 172 -33 158 -58 b 25 -53 68 -58 51 -57 l 29 -129 b 96 -137 58 -136 75 -137 b 279 53 189 -137 249 -103 l 379 560 l 533 560 l 536 639 l 394 639 l 428 807 b 536 922 444 896 464 922 b 592 919 556 922 567 921 l 608 996 b 539 1001 578 1000 560 1001 z "},"@":{"ha":1204,"x_min":0,"x_max":0,"o":"m 592 -144 b 876 -83 696 -144 792 -126 l 847 -18 b 593 -64 769 -50 685 -64 b 128 407 319 -64 128 126 b 610 908 128 679 322 908 b 1071 456 878 908 1071 731 b 915 194 1071 292 1011 194 b 822 346 839 194 810 253 l 868 708 l 789 708 l 774 583 l 771 583 b 574 718 746 663 668 718 b 311 400 422 718 311 583 b 543 115 311 225 410 115 b 749 250 647 115 711 171 b 910 114 767 171 814 114 b 1153 458 1025 114 1153 213 b 610 988 1153 768 926 988 b 46 407 286 988 46 739 b 592 -144 46 69 269 -144 z m 557 196 b 392 397 447 196 392 281 b 586 639 392 525 457 639 b 749 444 675 639 749 574 b 557 196 749 307 679 196 z "},"&":{"ha":825,"x_min":0,"x_max":0,"o":"m 681 185 b 772 471 732 272 761 376 l 681 471 b 619 260 671 397 651 324 l 401 533 b 608 793 528 610 608 675 b 385 1011 608 910 529 1011 b 161 794 233 1011 161 901 b 281 547 161 704 211 633 b 44 244 167 483 44 401 b 340 -18 44 94 156 -18 b 629 113 467 -18 561 35 l 719 0 l 828 0 z m 385 926 b 517 788 468 926 517 867 b 356 590 517 700 454 647 b 253 794 299 660 253 725 b 385 926 253 863 297 926 z m 342 71 b 136 251 215 71 136 144 b 328 489 136 365 225 428 l 572 183 b 342 71 518 115 442 71 z "},"¶":{"ha":726,"x_min":0,"x_max":0,"o":"m 426 0 l 426 904 l 536 904 l 536 0 l 617 0 l 617 993 l 283 993 b 26 736 118 993 26 903 b 283 486 26 569 118 486 l 344 486 l 344 0 z "},"§":{"ha":810,"x_min":0,"x_max":0,"o":"m 746 294 b 499 560 746 425 639 481 l 428 599 b 233 800 331 653 233 696 b 399 924 233 872 281 924 b 576 768 550 924 571 842 l 668 768 b 397 1003 663 894 589 1003 b 143 792 222 1003 143 907 b 213 635 143 725 171 675 b 64 447 122 613 64 550 b 317 181 64 317 176 263 l 386 139 b 575 -60 482 85 575 40 b 410 -182 575 -131 528 -182 b 232 -26 271 -182 235 -107 l 142 -26 b 411 -261 147 -154 221 -261 b 667 -50 586 -261 667 -165 b 599 107 667 18 640 67 b 746 294 689 129 746 192 z m 529 161 b 450 208 504 178 478 193 l 368 254 b 154 463 246 322 154 371 b 285 581 154 529 197 572 b 365 533 310 564 338 549 l 446 488 b 654 279 557 426 654 371 b 529 161 654 214 613 171 z "},"©":{"ha":1175,"x_min":0,"x_max":0,"o":"m 589 -18 b 1106 496 900 -18 1106 185 b 589 1011 1106 808 900 1011 b 71 496 276 1011 71 808 b 589 -18 71 185 276 -18 z m 589 56 b 154 496 328 56 154 229 b 589 938 154 764 328 938 b 1021 496 849 938 1021 764 b 589 56 1021 229 849 56 z m 599 182 b 854 406 750 182 846 278 l 774 406 b 594 261 767 347 722 261 b 393 496 447 261 393 369 b 594 732 393 622 447 732 b 772 597 719 732 763 646 l 853 597 b 592 811 838 715 744 811 b 308 496 413 811 308 679 b 599 182 308 311 417 182 z "},"®":{"ha":794,"x_min":0,"x_max":0,"o":"m 397 346 b 726 681 581 346 726 488 b 397 1015 726 872 581 1015 b 68 681 214 1015 68 872 b 397 346 68 488 214 346 z m 397 394 b 122 681 246 394 122 513 b 397 967 122 847 246 967 b 672 681 550 967 672 847 b 397 394 672 513 550 394 z m 338 499 l 338 638 l 390 638 b 472 499 482 638 446 518 l 547 499 l 547 503 b 460 665 522 513 551 649 l 460 668 b 540 760 510 679 540 710 b 413 867 540 828 496 867 l 264 867 l 264 499 z m 338 699 l 338 806 l 396 806 b 469 754 438 806 469 797 b 394 699 469 710 439 699 z "},"™":{"ha":910,"x_min":0,"x_max":0,"o":"m 229 606 l 229 929 l 357 929 l 357 993 l 28 993 l 28 929 l 156 929 l 156 606 z m 482 606 l 482 906 l 485 906 l 582 606 l 651 606 l 749 906 l 751 906 l 751 606 l 822 606 l 822 993 l 717 993 l 617 697 l 615 697 l 518 993 l 411 993 l 411 606 z "},"°":{"ha":532,"x_min":0,"x_max":0,"o":"m 265 594 b 478 803 410 594 478 710 b 265 1011 478 896 410 1011 b 54 803 119 1011 54 896 b 265 594 54 710 119 594 z m 265 665 b 128 803 181 665 128 725 b 265 942 128 882 181 942 b 403 803 351 942 403 882 b 265 665 403 725 351 665 z "},"|":{"ha":293,"x_min":0,"x_max":0,"o":"m 188 -178 l 188 1033 l 106 1033 l 106 -178 z "},"¦":{"ha":293,"x_min":0,"x_max":0,"o":"m 188 533 l 188 1033 l 106 1033 l 106 533 z m 188 -178 l 188 340 l 106 340 l 106 -178 z "},"†":{"ha":649,"x_min":0,"x_max":0,"o":"m 375 -246 l 375 611 l 631 611 l 631 700 l 375 700 l 375 993 l 275 993 l 275 700 l 18 700 l 18 611 l 275 611 l 275 -246 z "},"‡":{"ha":703,"x_min":0,"x_max":0,"o":"m 401 -246 l 401 167 l 658 167 l 658 256 l 401 256 l 401 611 l 656 611 l 656 700 l 401 700 l 401 993 l 300 993 l 300 700 l 44 700 l 44 611 l 300 611 l 300 256 l 46 256 l 46 167 l 300 167 l 300 -246 z "},"⮠":{"ha":838,"x_min":0,"x_max":0,"o":"m 681 397 l 206 397 l 461 671 l 400 726 l 53 351 l 400 -24 l 461 33 l 206 307 l 763 307 l 763 782 l 681 782 z "},"⮡":{"ha":838,"x_min":0,"x_max":0,"o":"m 375 675 l 631 401 l 156 401 l 156 786 l 74 786 l 74 311 l 631 311 l 375 38 l 436 -19 l 783 356 l 436 731 z "},"⮦":{"ha":899,"x_min":0,"x_max":0,"o":"m 860 706 l 383 706 l 383 149 l 110 404 l 54 343 l 429 -4 l 804 343 l 747 404 l 475 149 l 475 624 l 860 624 z "},"⮤":{"ha":896,"x_min":0,"x_max":0,"o":"m 474 554 l 747 299 l 804 360 l 429 707 l 54 360 l 110 299 l 383 554 l 383 -3 l 860 -3 l 860 79 l 474 79 z "},"⮧":{"ha":894,"x_min":0,"x_max":0,"o":"m 511 154 l 511 711 l 35 711 l 35 629 l 419 629 l 419 154 l 147 410 l 90 349 l 465 1 l 840 349 l 785 410 z "},"⮥":{"ha":899,"x_min":0,"x_max":0,"o":"m 93 363 l 150 301 l 424 557 l 424 82 l 38 82 l 38 0 l 514 0 l 514 557 l 788 301 l 843 363 l 468 710 z "},"⮢":{"ha":839,"x_min":0,"x_max":0,"o":"m 464 688 l 403 744 l 56 369 l 403 -6 l 464 50 l 208 324 l 683 324 l 683 -61 l 765 -61 l 765 415 l 208 415 z "},"⮣":{"ha":839,"x_min":0,"x_max":0,"o":"m 375 688 l 631 415 l 74 415 l 74 -61 l 154 -61 l 154 324 l 631 324 l 375 50 l 436 -6 l 783 369 l 436 744 z "},"¢":{"ha":768,"x_min":0,"x_max":0,"o":"m 439 790 b 618 606 564 776 613 678 l 713 606 b 439 869 699 746 594 857 l 439 981 l 368 981 l 368 869 b 69 499 188 850 69 704 b 368 128 69 292 188 147 l 368 7 l 439 7 l 439 128 b 713 397 594 140 703 254 l 618 397 b 439 207 613 317 565 221 z m 164 499 b 368 789 164 632 224 768 l 368 208 b 164 499 224 229 164 365 z "},"¤":{"ha":725,"x_min":0,"x_max":0,"o":"m 628 478 b 576 646 628 546 608 603 l 665 736 l 615 785 l 528 696 b 363 753 481 733 421 753 b 197 697 304 753 244 733 l 110 786 l 60 736 l 149 647 b 96 478 115 603 96 547 b 147 310 96 410 115 353 l 60 221 l 110 171 l 197 258 b 363 203 244 222 304 203 b 528 260 421 203 481 222 l 615 171 l 665 222 l 578 311 b 628 478 608 354 628 410 z m 188 478 b 363 674 188 610 265 674 b 536 478 458 674 536 610 b 363 282 536 346 458 282 b 188 478 265 282 188 346 z "},"$":{"ha":811,"x_min":0,"x_max":0,"o":"m 764 249 b 451 529 764 421 654 474 l 451 876 b 640 678 565 861 628 793 l 736 678 b 451 964 725 847 613 946 l 451 1069 l 382 1069 l 382 967 b 81 711 196 961 81 863 b 382 458 81 551 233 492 l 382 69 b 135 314 222 85 147 178 l 39 314 b 382 -15 51 115 192 1 l 382 -140 l 451 -140 l 451 -18 b 764 249 661 -11 764 106 z m 176 719 b 382 881 176 815 254 876 l 382 547 b 176 719 261 581 176 618 z m 667 244 b 451 67 665 144 607 72 l 451 442 b 667 244 608 400 669 356 z "},"€":{"ha":906,"x_min":0,"x_max":0,"o":"m 517 71 b 261 358 365 71 285 193 l 556 358 l 556 428 l 254 428 b 253 476 253 443 253 460 b 254 522 253 492 253 507 l 556 522 l 556 592 l 261 592 b 517 881 285 757 364 881 b 746 646 674 881 728 751 l 846 646 b 517 969 824 826 715 969 b 158 592 321 969 190 824 l 71 592 l 71 522 l 153 522 b 151 476 151 507 151 492 b 153 428 151 460 151 443 l 71 428 l 71 358 l 160 358 b 517 -18 192 126 322 -18 b 846 340 717 -18 825 125 l 746 340 b 517 71 738 203 675 71 z "},"£":{"ha":786,"x_min":0,"x_max":0,"o":"m 701 147 b 549 79 654 107 613 79 b 319 149 468 79 421 149 b 183 106 261 149 215 124 l 182 108 b 289 349 247 161 289 250 b 285 397 289 365 288 382 l 489 397 l 489 481 l 258 481 b 194 686 231 544 194 604 b 407 881 194 806 279 881 b 622 653 551 881 622 796 l 722 653 b 407 969 722 829 629 969 b 93 696 179 969 93 810 b 154 481 93 604 126 540 l 67 481 l 67 397 l 185 397 b 189 353 188 383 189 368 b 57 75 189 231 135 129 l 113 0 b 290 67 183 46 231 67 b 558 -18 383 67 442 -18 b 746 67 646 -18 697 26 z "},"¥":{"ha":813,"x_min":0,"x_max":0,"o":"m 667 953 l 407 478 l 404 478 l 146 953 l 38 953 l 342 418 l 100 418 l 100 347 l 356 347 l 356 254 l 100 254 l 100 185 l 356 185 l 356 0 l 457 0 l 457 185 l 711 185 l 711 254 l 457 254 l 457 347 l 711 347 l 711 418 l 471 418 l 775 953 z "},"∙":{"ha":403,"x_min":0,"x_max":0,"o":"m 260 424 l 260 540 l 143 540 l 143 424 z "},"≧":{"ha":771,"x_min":0,"x_max":0,"o":"m 692 553 l 692 665 l 86 890 l 86 796 l 604 611 l 604 608 l 86 425 l 86 331 z m 692 196 l 692 285 l 86 285 l 86 196 z m 692 0 l 692 89 l 86 89 l 86 0 z "},"≦":{"ha":771,"x_min":0,"x_max":0,"o":"m 685 425 l 165 608 l 165 611 l 685 796 l 685 890 l 78 665 l 78 553 l 685 331 z m 685 196 l 685 285 l 78 285 l 78 196 z m 685 0 l 685 89 l 78 89 l 78 0 z "},"+":{"ha":753,"x_min":0,"x_max":0,"o":"m 422 136 l 422 408 l 685 408 l 685 497 l 422 497 l 422 768 l 331 768 l 332 497 l 69 497 l 69 408 l 332 408 l 331 136 z "},"−":{"ha":753,"x_min":0,"x_max":0,"o":"m 685 408 l 685 497 l 69 497 l 69 408 z "},"×":{"ha":753,"x_min":0,"x_max":0,"o":"m 376 388 l 590 174 l 654 238 l 440 451 l 654 665 l 590 729 l 376 515 l 164 729 l 99 665 l 313 451 l 99 238 l 164 174 z "},"÷":{"ha":753,"x_min":0,"x_max":0,"o":"m 435 625 l 435 742 l 318 742 l 318 625 z m 685 410 l 685 499 l 69 499 l 69 410 z m 435 169 l 435 286 l 318 286 l 318 169 z "},"=":{"ha":750,"x_min":0,"x_max":0,"o":"m 678 507 l 678 594 l 72 594 l 72 507 z m 678 311 l 678 399 l 72 399 l 72 311 z "},"≠":{"ha":750,"x_min":0,"x_max":0,"o":"m 682 594 l 486 594 l 563 756 l 482 756 l 406 594 l 76 594 l 76 507 l 364 507 l 313 399 l 76 399 l 76 311 l 271 311 l 196 151 l 278 151 l 353 311 l 682 311 l 682 399 l 394 399 l 446 507 l 682 507 z "},">":{"ha":704,"x_min":0,"x_max":0,"o":"m 639 381 l 639 485 l 79 719 l 79 628 l 561 433 l 561 431 l 79 238 l 79 147 z "},"<":{"ha":704,"x_min":0,"x_max":0,"o":"m 624 238 l 142 432 l 142 435 l 624 628 l 624 719 l 65 486 l 65 382 l 624 147 z "},"≥":{"ha":693,"x_min":0,"x_max":0,"o":"m 631 388 l 631 488 l 72 719 l 72 628 l 551 439 l 551 436 l 72 249 l 72 157 z m 631 0 l 631 79 l 72 79 l 72 0 z "},"≤":{"ha":694,"x_min":0,"x_max":0,"o":"m 622 247 l 140 436 l 140 439 l 622 628 l 622 719 l 63 489 l 63 385 l 622 157 z m 622 0 l 622 79 l 63 79 l 63 0 z "},"±":{"ha":753,"x_min":0,"x_max":0,"o":"m 422 171 l 422 443 l 685 443 l 685 532 l 422 532 l 422 803 l 331 803 l 332 532 l 69 532 l 69 443 l 332 443 l 331 171 z m 685 -8 l 685 81 l 69 81 l 69 -8 z "},"≈":{"ha":801,"x_min":0,"x_max":0,"o":"m 167 457 b 247 524 168 504 188 524 b 569 471 343 524 465 471 b 722 618 683 471 719 546 l 640 618 b 558 550 639 568 618 550 b 236 604 457 550 339 604 b 85 457 124 604 88 528 z m 167 246 b 247 314 168 294 188 314 b 569 261 343 314 465 261 b 722 408 683 261 719 336 l 640 408 b 558 340 639 358 618 340 b 236 393 457 340 339 393 b 85 246 124 393 88 318 z "},"~":{"ha":593,"x_min":0,"x_max":0,"o":"m 158 383 b 215 451 160 415 174 451 b 399 382 267 451 315 382 b 518 535 472 382 515 446 l 436 535 b 379 467 435 503 421 467 b 197 536 329 467 281 536 b 78 383 124 536 79 474 z "},"¬":{"ha":711,"x_min":0,"x_max":0,"o":"m 624 201 l 624 547 l 60 547 l 60 457 l 522 457 l 522 201 z "},"^":{"ha":639,"x_min":0,"x_max":0,"o":"m 138 611 l 319 910 l 321 910 l 503 611 l 603 611 l 367 993 l 274 993 l 36 611 z "},"∅":{"ha":1167,"x_min":0,"x_max":0,"o":"m 1057 908 l 1014 953 l 922 861 b 585 978 833 936 715 978 b 74 479 299 978 74 776 b 201 140 74 342 121 225 l 113 51 l 156 8 l 246 99 b 585 -18 335 24 454 -18 b 1094 479 871 -18 1094 182 b 968 819 1094 617 1047 733 z m 135 479 b 585 918 135 739 333 918 b 878 817 697 918 800 882 l 244 183 b 135 479 176 260 135 361 z m 585 42 b 289 142 471 42 368 78 l 924 775 b 1032 479 992 699 1032 597 b 585 42 1032 219 835 42 z "},"∞":{"ha":1024,"x_min":0,"x_max":0,"o":"m 758 661 b 514 493 639 661 571 574 b 265 661 460 569 386 661 b 65 422 151 661 65 572 b 265 185 65 274 153 185 b 514 361 386 185 454 278 b 760 185 569 285 639 185 b 957 422 869 185 957 271 b 758 661 957 576 869 661 z m 282 275 b 157 424 203 275 157 332 b 282 572 157 515 201 572 b 467 422 364 572 422 490 b 282 275 419 353 364 275 z m 743 275 b 560 424 661 275 606 357 b 742 572 607 492 660 572 b 867 424 821 572 867 517 b 743 275 867 332 821 275 z "},"∫":{"ha":500,"x_min":0,"x_max":0,"o":"m 119 -242 b 300 -10 250 -242 300 -142 l 300 760 b 415 929 300 865 328 929 b 476 922 433 929 454 926 l 476 1011 b 381 1025 457 1018 419 1025 b 200 793 250 1025 200 925 l 200 24 b 83 -146 200 -90 172 -146 b 22 -139 67 -146 46 -143 l 22 -228 b 119 -242 43 -235 81 -242 z "},"Ω":{"ha":1089,"x_min":0,"x_max":0,"o":"m 447 0 l 446 72 b 179 499 296 153 179 269 b 544 919 179 751 321 919 b 910 499 769 919 910 751 b 643 72 910 269 793 153 l 642 0 l 1036 0 l 1036 89 l 806 89 b 1015 515 931 175 1015 325 b 544 1011 1015 793 826 1011 b 74 515 263 1011 74 793 b 285 89 74 325 160 175 l 53 89 l 53 0 z "},"∆":{"ha":874,"x_min":0,"x_max":0,"o":"m 375 993 l 26 88 l 26 0 l 847 0 l 847 88 l 497 993 z m 442 897 l 740 89 l 131 89 l 432 897 z "},"∏":{"ha":974,"x_min":0,"x_max":0,"o":"m 207 -139 l 207 904 l 767 904 l 767 -139 l 868 -139 l 868 993 l 106 993 l 106 -139 z "},"∑":{"ha":814,"x_min":0,"x_max":0,"o":"m 776 -139 l 776 -50 l 153 -50 l 153 -47 l 528 417 l 528 474 l 161 901 l 161 904 l 764 904 l 764 993 l 42 993 l 42 901 l 442 443 l 442 442 l 42 -46 l 42 -139 z "},"√":{"ha":849,"x_min":0,"x_max":0,"o":"m 435 -139 l 821 993 l 719 993 l 390 -11 l 388 -11 l 232 429 l 61 429 l 61 340 l 168 340 l 344 -139 z "},"µ":{"ha":763,"x_min":0,"x_max":0,"o":"m 575 261 b 353 63 575 157 485 63 b 188 231 228 63 188 140 l 188 708 l 97 708 l 97 -246 l 188 -246 l 188 35 b 340 -17 228 0 282 -17 b 572 100 460 -17 533 42 l 575 100 l 575 0 l 665 0 l 665 708 l 575 708 z "},"∂":{"ha":715,"x_min":0,"x_max":0,"o":"m 313 -18 b 658 431 553 -18 658 196 b 190 994 658 711 524 938 l 190 915 b 567 521 417 869 531 746 b 347 653 524 607 450 653 b 32 296 161 653 32 486 b 313 -18 32 106 143 -18 z m 324 63 b 122 288 204 63 122 153 b 361 572 122 446 215 572 b 565 346 492 572 565 471 b 324 63 565 203 483 63 z "},"%":{"ha":1088,"x_min":0,"x_max":0,"o":"m 251 435 b 468 703 401 435 468 557 b 251 972 468 850 399 972 b 33 703 101 972 33 850 b 251 435 33 557 103 435 z m 318 0 l 863 957 l 771 957 l 225 0 z m 251 511 b 117 703 157 511 117 596 b 251 896 117 811 157 896 b 385 703 344 896 385 811 b 251 511 385 596 344 511 z m 839 -18 b 1057 251 989 -18 1057 106 b 839 521 1057 397 986 521 b 621 251 689 521 621 397 b 839 -18 621 106 690 -18 z m 839 58 b 706 251 744 58 706 143 b 839 443 706 358 744 443 b 972 251 933 443 972 358 b 839 58 972 143 933 58 z "},"‰":{"ha":1578,"x_min":0,"x_max":0,"o":"m 251 435 b 468 703 401 435 468 557 b 251 972 468 850 399 972 b 33 703 101 972 33 850 b 251 435 33 557 103 435 z m 318 0 l 863 957 l 771 957 l 225 0 z m 251 511 b 117 703 157 511 117 596 b 251 896 117 811 157 896 b 385 703 344 896 385 811 b 251 511 385 596 344 511 z m 839 -18 b 1057 251 989 -18 1057 106 b 839 521 1057 397 986 521 b 621 251 689 521 621 397 b 839 -18 621 106 690 -18 z m 1329 -18 b 1547 251 1479 -18 1547 106 b 1329 521 1547 397 1478 521 b 1111 251 1179 521 1111 397 b 1329 -18 1111 106 1182 -18 z m 839 58 b 706 251 744 58 706 143 b 839 443 706 358 744 443 b 972 251 933 443 972 358 b 839 58 972 143 933 58 z m 1329 58 b 1196 251 1235 58 1196 143 b 1329 443 1196 358 1235 443 b 1463 251 1424 443 1463 358 b 1329 58 1463 143 1424 58 z "},"↑":{"ha":804,"x_min":0,"x_max":0,"o":"m 443 0 l 443 811 l 721 551 l 778 613 l 403 960 l 28 613 l 83 551 l 361 811 l 361 0 z "},"↗":{"ha":818,"x_min":0,"x_max":0,"o":"m 665 683 l 665 308 l 746 308 l 746 822 l 232 822 l 232 742 l 610 742 l 36 169 l 93 111 z "},"→":{"ha":1086,"x_min":0,"x_max":0,"o":"m 1025 444 l 678 819 l 617 763 l 875 485 l 65 485 l 65 403 l 875 403 l 617 125 l 678 69 z "},"↘":{"ha":826,"x_min":0,"x_max":0,"o":"m 747 74 l 747 586 l 665 586 l 667 211 l 94 783 l 36 726 l 610 154 l 232 154 l 232 74 z "},"↓":{"ha":806,"x_min":0,"x_max":0,"o":"m 778 292 l 722 353 l 443 93 l 443 904 l 363 904 l 363 93 l 85 353 l 28 292 l 403 -56 z "},"↙":{"ha":826,"x_min":0,"x_max":0,"o":"m 594 74 l 594 154 l 217 154 l 790 726 l 733 783 l 161 211 l 161 586 l 81 586 l 81 74 z "},"←":{"ha":1086,"x_min":0,"x_max":0,"o":"m 469 125 l 211 403 l 1021 403 l 1021 485 l 211 485 l 469 763 l 408 819 l 61 444 l 408 69 z "},"↖":{"ha":818,"x_min":0,"x_max":0,"o":"m 781 169 l 208 742 l 586 742 l 586 822 l 71 822 l 71 308 l 153 308 l 151 683 l 724 111 z "},"↔":{"ha":1600,"x_min":0,"x_max":0,"o":"m 468 125 l 210 403 l 1390 403 l 1131 125 l 1192 69 l 1539 444 l 1192 819 l 1131 763 l 1390 485 l 210 485 l 468 763 l 407 819 l 60 444 l 407 69 z "},"↕":{"ha":822,"x_min":0,"x_max":0,"o":"m 786 101 l 729 163 l 451 -97 l 451 943 l 729 683 l 786 744 l 411 1092 l 36 744 l 93 683 l 371 943 l 371 -97 l 93 163 l 36 101 l 411 -246 z "},"⬎":{"ha":894,"x_min":0,"x_max":0,"o":"m 511 154 l 511 711 l 35 711 l 35 629 l 419 629 l 419 154 l 147 410 l 90 349 l 465 1 l 840 349 l 785 410 z "},"⬏":{"ha":899,"x_min":0,"x_max":0,"o":"m 93 363 l 150 301 l 424 557 l 424 82 l 38 82 l 38 0 l 514 0 l 514 557 l 788 301 l 843 363 l 468 710 z "},"⬐":{"ha":899,"x_min":0,"x_max":0,"o":"m 860 706 l 383 706 l 383 149 l 110 404 l 54 343 l 429 -4 l 804 343 l 747 404 l 475 149 l 475 624 l 860 624 z "},"⬑":{"ha":896,"x_min":0,"x_max":0,"o":"m 474 554 l 747 299 l 804 360 l 429 707 l 54 360 l 110 299 l 383 554 l 383 -3 l 860 -3 l 860 79 l 474 79 z "},"▄":{"ha":1174,"x_min":0,"x_max":0,"o":"m 1083 0 l 1083 497 l 90 497 l 90 0 z "},"█":{"ha":1206,"x_min":0,"x_max":0,"o":"m 1099 0 l 1099 993 l 106 993 l 106 0 z "},"▀":{"ha":1171,"x_min":0,"x_max":0,"o":"m 1082 496 l 1082 993 l 89 993 l 89 496 z "},"●":{"ha":1168,"x_min":0,"x_max":0,"o":"m 585 -18 b 1099 496 868 -18 1099 213 b 585 1011 1099 779 868 1011 b 69 496 300 1011 69 779 b 585 -18 69 213 300 -18 z "},"○":{"ha":1175,"x_min":0,"x_max":0,"o":"m 589 -18 b 1106 496 900 -18 1106 185 b 589 1011 1106 808 900 1011 b 71 496 276 1011 71 808 b 589 -18 71 185 276 -18 z m 589 61 b 161 496 331 61 161 233 b 589 932 161 760 331 932 b 1015 496 844 932 1015 760 b 589 61 1015 233 844 61 z "},"◊":{"ha":779,"x_min":0,"x_max":0,"o":"m 443 0 l 722 496 l 442 993 l 339 993 l 58 497 l 339 0 z m 158 499 l 388 903 l 390 903 l 621 493 l 393 90 l 390 90 z "},"■":{"ha":1206,"x_min":0,"x_max":0,"o":"m 1099 0 l 1099 993 l 106 993 l 106 0 z "},"□":{"ha":1206,"x_min":0,"x_max":0,"o":"m 1099 0 l 1099 993 l 106 993 l 106 0 z m 196 903 l 1008 903 l 1008 90 l 196 90 z "},"▪":{"ha":428,"x_min":0,"x_max":0,"o":"m 346 313 l 346 576 l 82 576 l 82 313 z "},"▫":{"ha":497,"x_min":0,"x_max":0,"o":"m 413 281 l 413 608 l 85 608 l 85 281 z m 175 518 l 322 518 l 322 371 l 175 371 z "},"▲":{"ha":1149,"x_min":0,"x_max":0,"o":"m 1131 0 l 575 993 l 19 0 z "},"▼":{"ha":1151,"x_min":0,"x_max":0,"o":"m 1131 993 l 19 993 l 575 0 z "},"►":{"ha":1167,"x_min":0,"x_max":0,"o":"m 1115 496 l 122 1051 l 122 -60 z "},"◄":{"ha":1167,"x_min":0,"x_max":0,"o":"m 1044 1051 l 51 496 l 1044 -60 z "},"̈":{"ha":0,"x_min":0,"x_max":0,"o":"m 174 850 l 174 967 l 57 967 l 57 850 z m 381 850 l 381 967 l 264 967 l 264 850 z "},"̇":{"ha":0,"x_min":0,"x_max":0,"o":"m 171 850 l 171 967 l 54 967 l 54 850 z "},"̀":{"ha":0,"x_min":0,"x_max":0,"o":"m 235 824 l 158 1007 l 49 1007 l 160 824 z "},"́":{"ha":0,"x_min":0,"x_max":0,"o":"m 122 824 l 242 1007 l 133 1007 l 47 824 z "},"̋":{"ha":0,"x_min":0,"x_max":0,"o":"m 122 824 l 242 1007 l 133 1007 l 47 824 z m 313 824 l 433 1007 l 324 1007 l 238 824 z "},"̂":{"ha":0,"x_min":0,"x_max":0,"o":"m 150 826 l 232 956 l 233 956 l 315 826 l 410 826 l 285 1007 l 182 1007 l 56 826 z "},"̌":{"ha":0,"x_min":0,"x_max":0,"o":"m 285 826 l 410 1007 l 317 1007 l 235 878 l 232 878 l 150 1007 l 56 1007 l 182 826 z "},"̆":{"ha":0,"x_min":0,"x_max":0,"o":"m 228 817 b 400 993 328 817 394 881 l 329 993 b 228 885 324 924 292 885 b 125 993 164 885 132 924 l 56 993 b 228 817 60 878 129 817 z "},"̊":{"ha":0,"x_min":0,"x_max":0,"o":"m 174 779 b 293 897 243 779 293 828 b 174 1015 293 968 243 1015 b 54 897 104 1015 54 968 b 174 779 54 828 104 779 z m 174 826 b 106 897 132 826 106 856 b 174 968 106 938 132 968 b 243 897 215 968 243 938 b 174 826 243 856 215 826 z "},"̃":{"ha":0,"x_min":0,"x_max":0,"o":"m 126 835 b 164 890 128 861 135 890 b 336 833 207 890 267 833 b 436 957 389 833 435 868 l 365 957 b 328 903 364 929 357 903 b 156 960 285 903 226 960 b 56 835 103 960 57 922 z "},"̄":{"ha":0,"x_min":0,"x_max":0,"o":"m 401 858 l 401 938 l 56 938 l 56 858 z "},"̒":{"ha":0,"x_min":0,"x_max":0,"o":"m 171 1090 b 54 938 76 1063 54 1007 l 54 829 l 171 829 l 171 938 l 114 938 b 171 1035 113 996 126 1019 z "},"̦":{"ha":0,"x_min":0,"x_max":0,"o":"m 56 -167 l 113 -167 b 56 -260 113 -224 100 -246 l 56 -310 b 172 -167 150 -285 172 -233 l 172 -67 l 56 -67 z "},"̧":{"ha":0,"x_min":0,"x_max":0,"o":"m 199 -269 b 339 -165 272 -269 339 -239 b 208 -78 339 -93 271 -67 l 208 -75 l 271 0 l 210 0 l 125 -104 l 142 -129 b 200 -118 156 -122 181 -118 b 258 -164 236 -118 258 -131 b 182 -219 258 -199 232 -219 b 82 -197 144 -219 114 -211 l 56 -228 b 199 -269 93 -251 144 -269 z "},"̨":{"ha":0,"x_min":0,"x_max":0,"o":"m 182 -244 b 268 -231 214 -244 244 -239 l 268 -161 b 199 -175 246 -171 225 -175 b 136 -124 161 -175 136 -156 b 236 0 136 -87 171 -46 l 165 0 b 56 -142 113 -25 56 -78 b 182 -244 56 -201 97 -244 z "},"̵":{"ha":0,"x_min":0,"x_max":0,"o":"m 622 474 l 622 554 l 56 554 l 56 474 z "},"̶":{"ha":0,"x_min":0,"x_max":0,"o":"m 750 450 l 750 550 l 56 550 l 56 450 z "},"̷":{"ha":0,"x_min":0,"x_max":0,"o":"m 778 681 l 735 724 l 56 31 l 97 -12 z "},"̸":{"ha":0,"x_min":0,"x_max":0,"o":"m 778 681 l 735 724 l 56 31 l 97 -12 z "},"¨":{"ha":444,"x_min":0,"x_max":0,"o":"m 174 850 l 174 967 l 57 967 l 57 850 z m 381 850 l 381 967 l 264 967 l 264 850 z "},"˙":{"ha":226,"x_min":0,"x_max":0,"o":"m 171 850 l 171 967 l 54 967 l 54 850 z "},"`":{"ha":292,"x_min":0,"x_max":0,"o":"m 235 824 l 158 1007 l 49 1007 l 160 824 z "},"´":{"ha":292,"x_min":0,"x_max":0,"o":"m 122 824 l 242 1007 l 133 1007 l 47 824 z "},"˝":{"ha":482,"x_min":0,"x_max":0,"o":"m 122 824 l 242 1007 l 133 1007 l 47 824 z m 313 824 l 433 1007 l 324 1007 l 238 824 z "},"ˆ":{"ha":465,"x_min":0,"x_max":0,"o":"m 150 826 l 232 956 l 233 956 l 315 826 l 410 826 l 285 1007 l 182 1007 l 56 826 z "},"ˇ":{"ha":465,"x_min":0,"x_max":0,"o":"m 285 826 l 410 1007 l 317 1007 l 235 878 l 232 878 l 150 1007 l 56 1007 l 182 826 z "},"˘":{"ha":456,"x_min":0,"x_max":0,"o":"m 228 817 b 400 993 328 817 394 881 l 329 993 b 228 885 324 924 292 885 b 125 993 164 885 132 924 l 56 993 b 228 817 60 878 129 817 z "},"˚":{"ha":349,"x_min":0,"x_max":0,"o":"m 174 769 b 293 888 243 769 293 818 b 174 1006 293 958 243 1006 b 54 888 104 1006 54 958 b 174 769 54 818 104 769 z m 174 817 b 106 888 132 817 106 846 b 174 958 106 928 132 958 b 243 888 215 958 243 928 b 174 817 243 846 215 817 z "},"˜":{"ha":492,"x_min":0,"x_max":0,"o":"m 126 835 b 164 890 128 861 135 890 b 336 833 207 890 267 833 b 436 957 389 833 435 868 l 365 957 b 328 903 364 929 357 903 b 156 960 285 903 226 960 b 56 835 103 960 57 922 z "},"¯":{"ha":457,"x_min":0,"x_max":0,"o":"m 401 858 l 401 938 l 56 938 l 56 858 z "},"¸":{"ha":394,"x_min":0,"x_max":0,"o":"m 199 -269 b 339 -165 272 -269 339 -239 b 208 -78 339 -93 271 -67 l 208 -75 l 271 0 l 210 0 l 125 -104 l 142 -129 b 200 -118 156 -122 181 -118 b 258 -164 236 -118 258 -131 b 182 -219 258 -199 232 -219 b 82 -197 144 -219 114 -211 l 56 -228 b 199 -269 93 -251 144 -269 z "},"˛":{"ha":324,"x_min":0,"x_max":0,"o":"m 182 -244 b 268 -231 214 -244 244 -239 l 268 -161 b 199 -175 246 -171 225 -175 b 136 -124 161 -175 136 -156 b 236 0 136 -87 171 -46 l 165 0 b 56 -142 113 -25 56 -78 b 182 -244 56 -201 97 -244 z "},"᎚":{"ha":915,"x_min":0,"x_max":0,"o":""}}}
